#define circle_cursor2018_mask_width 52
#define circle_cursor2018_mask_height 52
#define circle_cursor2018_mask_x_hot 18
#define circle_cursor2018_mask_y_hot 18
static unsigned char circle_cursor2018_mask_bits[] = {
   0x00, 0x00, 0x00, 0x00, 0x00, 0x00, 0x00, 0x00, 0x00, 0x00, 0x00, 0x00,
   0x00, 0x00, 0x00, 0x00, 0xf0, 0xff, 0x00, 0x00, 0x00, 0x00, 0x00, 0xfe,
   0xff, 0x07, 0x00, 0x00, 0x00, 0x80, 0xff, 0xff, 0x1f, 0x00, 0x00, 0x00,
   0xe0, 0xff, 0xff, 0x7f, 0x00, 0x00, 0x00, 0xf0, 0x3f, 0xc0, 0xff, 0x00,
   0x00, 0x00, 0xfc, 0x07, 0x00, 0xfe, 0x03, 0x00, 0x00, 0xfe, 0x01, 0x00,
   0xf8, 0x07, 0x00, 0x00, 0x7f, 0x00, 0x00, 0xe0, 0x0f, 0x00, 0x80, 0x3f,
   0x00, 0x00, 0xc0, 0x1f, 0x00, 0x80, 0x0f, 0x00, 0x00, 0x00, 0x1f, 0x00,
   0xc0, 0x07, 0x00, 0x00, 0x00, 0x3e, 0x00, 0xe0, 0x07, 0x00, 0x00, 0x00,
   0x7e, 0x00, 0xe0, 0x03, 0x00, 0x00, 0x00, 0x7c, 0x00, 0xf0, 0x01, 0x00,
   0x00, 0x00, 0xf8, 0x00, 0xf0, 0x01, 0x00, 0x00, 0x00, 0xf8, 0x00, 0xf8,
   0x00, 0x00, 0x00, 0x00, 0xf0, 0x01, 0xf8, 0x00, 0x7c, 0x00, 0x00, 0xf0,
   0x01, 0x78, 0x00, 0x7c, 0x00, 0x00, 0xe0, 0x01, 0x7c, 0x00, 0x7c, 0x00,
   0x00, 0xe0, 0x03, 0x7c, 0x00, 0x9c, 0x0f, 0x00, 0xe0, 0x03, 0x3c, 0x00,
   0xdc, 0x1f, 0x00, 0xc0, 0x03, 0x3c, 0x00, 0xe0, 0x3f, 0x00, 0xc0, 0x03,
   0x3c, 0x00, 0xf0, 0x3f, 0x00, 0xc0, 0x03, 0x3c, 0x00, 0xf0, 0x3f, 0x00,
   0xc0, 0x03, 0x3c, 0x00, 0xf0, 0x7f, 0x00, 0xc0, 0x03, 0x3c, 0x00, 0xf0,
   0x3f, 0x00, 0xc0, 0x03, 0x3c, 0x00, 0xe0, 0x3f, 0x00, 0xc0, 0x03, 0x3c,
   0x00, 0xc0, 0x1f, 0x00, 0xc0, 0x03, 0x7c, 0x00, 0x80, 0x0f, 0x00, 0xe0,
   0x03, 0x7c, 0x00, 0x00, 0x00, 0x00, 0xe0, 0x03, 0x78, 0x00, 0x00, 0x00,
   0x00, 0xe0, 0x01, 0xf8, 0x00, 0x00, 0x00, 0x00, 0xf0, 0x01, 0xf8, 0x00,
   0x00, 0x00, 0x00, 0xf0, 0x01, 0xf0, 0x01, 0x00, 0x00, 0x00, 0xf8, 0x00,
   0xf0, 0x01, 0x00, 0x00, 0x00, 0xf8, 0x00, 0xe0, 0x03, 0x00, 0x00, 0x00,
   0x7c, 0x00, 0xe0, 0x07, 0x00, 0x00, 0x00, 0x7e, 0x00, 0xc0, 0x07, 0x00,
   0x00, 0x00, 0x3e, 0x00, 0x80, 0x0f, 0x00, 0x00, 0x00, 0x1f, 0x00, 0x80,
   0x3f, 0x00, 0x00, 0xc0, 0x1f, 0x00, 0x00, 0x7f, 0x00, 0x00, 0xe0, 0x0f,
   0x00, 0x00, 0xfe, 0x01, 0x00, 0xf8, 0x07, 0x00, 0x00, 0xfc, 0x07, 0x00,
   0xfe, 0x03, 0x00, 0x00, 0xf0, 0x3f, 0xc0, 0xff, 0x00, 0x00, 0x00, 0xe0,
   0xff, 0xff, 0x7f, 0x00, 0x00, 0x00, 0x80, 0xff, 0xff, 0x1f, 0x00, 0x00,
   0x00, 0x00, 0xfe, 0xff, 0x07, 0x00, 0x00, 0x00, 0x00, 0xf0, 0xff, 0x00,
   0x00, 0x00, 0x00, 0x00, 0x00, 0x00, 0x00, 0x00, 0x00, 0x00, 0x00, 0x00,
   0x00, 0x00, 0x00, 0x00 };
