#define circle_cursor2017_width 52
#define circle_cursor2017_height 52
#define circle_cursor2017_x_hot 20
#define circle_cursor2017_y_hot 20
static unsigned char circle_cursor2017_bits[] = {
   0x00, 0x00, 0x80, 0x0f, 0x00, 0x00, 0x00, 0x00, 0x00, 0xfc, 0xff, 0x01,
   0x00, 0x00, 0x00, 0x80, 0xff, 0xff, 0x0f, 0x00, 0x00, 0x00, 0xe0, 0x0f,
   0x80, 0x3f, 0x00, 0x00, 0x00, 0xf8, 0xe1, 0x3f, 0xfc, 0x00, 0x00, 0x00,
   0x7c, 0xfc, 0xff, 0xf1, 0x01, 0x00, 0x00, 0x1f, 0x7f, 0xf0, 0xc7, 0x07,
   0x00, 0x80, 0xcf, 0x0f, 0x80, 0x9f, 0x0f, 0x00, 0xc0, 0xe3, 0x03, 0x00,
   0x3e, 0x1e, 0x00, 0xc0, 0xf9, 0x00, 0x00, 0xf8, 0x1c, 0x00, 0xe0, 0x7c,
   0x00, 0x00, 0xf0, 0x39, 0x00, 0xf0, 0x1e, 0x00, 0x00, 0xc0, 0x7b, 0x00,
   0x70, 0x0e, 0x00, 0x00, 0x80, 0x73, 0x00, 0x38, 0x07, 0x00, 0x00, 0x00,
   0xe7, 0x00, 0xb8, 0x07, 0x00, 0x00, 0x00, 0xef, 0x00, 0x9c, 0x03, 0x00,
   0x00, 0x00, 0xce, 0x01, 0xdc, 0x01, 0x00, 0x00, 0x00, 0xdc, 0x01, 0xcc,
   0x01, 0x00, 0x00, 0x00, 0x9c, 0x01, 0xee, 0x00, 0x7c, 0x00, 0x00, 0xb8,
   0x03, 0xee, 0x00, 0x44, 0x00, 0x00, 0xb8, 0x03, 0x66, 0x00, 0x74, 0x00,
   0x00, 0x30, 0x03, 0x76, 0x00, 0x14, 0x07, 0x00, 0x70, 0x03, 0x76, 0x00,
   0x9c, 0x0f, 0x00, 0x70, 0x03, 0x37, 0x00, 0xc0, 0x18, 0x00, 0x60, 0x07,
   0x37, 0x00, 0x60, 0x38, 0x00, 0x60, 0x07, 0x37, 0x00, 0x60, 0x30, 0x00,
   0x60, 0x07, 0x37, 0x00, 0xe0, 0x30, 0x00, 0x60, 0x07, 0x37, 0x00, 0xc0,
   0x1c, 0x00, 0x60, 0x07, 0x76, 0x00, 0x00, 0x1f, 0x00, 0x70, 0x03, 0x76,
   0x00, 0x00, 0x02, 0x00, 0x70, 0x03, 0x66, 0x00, 0x00, 0x00, 0x00, 0x30,
   0x03, 0xee, 0x00, 0x00, 0x00, 0x00, 0xb8, 0x03, 0xee, 0x00, 0x00, 0x00,
   0x00, 0xb8, 0x03, 0xcc, 0x01, 0x00, 0x00, 0x00, 0x9c, 0x01, 0xdc, 0x01,
   0x00, 0x00, 0x00, 0xdc, 0x01, 0x9c, 0x03, 0x00, 0x00, 0x00, 0xce, 0x01,
   0xb8, 0x07, 0x00, 0x00, 0x00, 0xef, 0x00, 0x38, 0x07, 0x00, 0x00, 0x00,
   0xe7, 0x00, 0x70, 0x0e, 0x00, 0x00, 0x80, 0x73, 0x00, 0xf0, 0x1e, 0x00,
   0x00, 0xc0, 0x7b, 0x00, 0xe0, 0x7c, 0x00, 0x00, 0xf0, 0x39, 0x00, 0xc0,
   0xf9, 0x00, 0x00, 0xf8, 0x1c, 0x00, 0xc0, 0xe3, 0x03, 0x00, 0x3e, 0x1e,
   0x00, 0x80, 0xcf, 0x0f, 0x80, 0x9f, 0x0f, 0x00, 0x00, 0x1f, 0x7f, 0xf0,
   0xc7, 0x07, 0x00, 0x00, 0x7c, 0xfc, 0xff, 0xf1, 0x01, 0x00, 0x00, 0xf8,
   0xe1, 0x3f, 0xfc, 0x00, 0x00, 0x00, 0xe0, 0x0f, 0x80, 0x3f, 0x00, 0x00,
   0x00, 0x80, 0xff, 0xff, 0x0f, 0x00, 0x00, 0x00, 0x00, 0xfc, 0xff, 0x01,
   0x00, 0x00, 0x00, 0x00, 0x80, 0x0f, 0x00, 0x00, 0x00, 0x00, 0x00, 0x00,
   0x00, 0x00, 0x00, 0x00 };
