#define circle_cursor2018_width 52
#define circle_cursor2018_height 52
#define circle_cursor2018_x_hot 18
#define circle_cursor2018_y_hot 18
static unsigned char circle_cursor2018_bits[] = {
   0x00, 0x00, 0x00, 0x00, 0x00, 0x00, 0x00, 0x00, 0x00, 0x00, 0x00, 0x00,
   0x00, 0x00, 0x00, 0x00, 0xf0, 0xff, 0x00, 0x00, 0x00, 0x00, 0x00, 0x0e,
   0x80, 0x07, 0x00, 0x00, 0x00, 0x80, 0xe1, 0x3f, 0x1c, 0x00, 0x00, 0x00,
   0x60, 0xfc, 0xff, 0x71, 0x00, 0x00, 0x00, 0x10, 0x3f, 0xc0, 0xc7, 0x00,
   0x00, 0x00, 0xcc, 0x07, 0x00, 0x9e, 0x03, 0x00, 0x00, 0xe2, 0x01, 0x00,
   0x38, 0x06, 0x00, 0x00, 0x79, 0x00, 0x00, 0xe0, 0x0c, 0x00, 0x80, 0x3c,
   0x00, 0x00, 0xc0, 0x19, 0x00, 0x80, 0x0e, 0x00, 0x00, 0x00, 0x1b, 0x00,
   0x40, 0x06, 0x00, 0x00, 0x00, 0x32, 0x00, 0x20, 0x07, 0x00, 0x00, 0x00,
   0x66, 0x00, 0xa0, 0x03, 0x00, 0x00, 0x00, 0x6c, 0x00, 0x90, 0x01, 0x00,
   0x00, 0x00, 0xc8, 0x00, 0xd0, 0x01, 0x00, 0x00, 0x00, 0xd8, 0x00, 0xc8,
   0x00, 0x00, 0x00, 0x00, 0x90, 0x01, 0xe8, 0x00, 0x7c, 0x00, 0x00, 0xb0,
   0x01, 0x68, 0x00, 0x44, 0x00, 0x00, 0xa0, 0x01, 0x64, 0x00, 0x74, 0x00,
   0x00, 0x20, 0x03, 0x74, 0x00, 0x94, 0x0f, 0x00, 0x60, 0x03, 0x34, 0x00,
   0xdc, 0x1f, 0x00, 0x40, 0x03, 0x34, 0x00, 0x60, 0x38, 0x00, 0x40, 0x03,
   0x34, 0x00, 0x30, 0x30, 0x00, 0x40, 0x03, 0x34, 0x00, 0x30, 0x30, 0x00,
   0x40, 0x03, 0x34, 0x00, 0x30, 0x70, 0x00, 0x40, 0x03, 0x34, 0x00, 0x30,
   0x30, 0x00, 0x40, 0x03, 0x34, 0x00, 0x60, 0x38, 0x00, 0x40, 0x03, 0x34,
   0x00, 0xc0, 0x1f, 0x00, 0x40, 0x03, 0x64, 0x00, 0x80, 0x0f, 0x00, 0x20,
   0x03, 0x6c, 0x00, 0x00, 0x00, 0x00, 0xa0, 0x03, 0x68, 0x00, 0x00, 0x00,
   0x00, 0xa0, 0x01, 0xc8, 0x00, 0x00, 0x00, 0x00, 0x90, 0x01, 0xd8, 0x00,
   0x00, 0x00, 0x00, 0xd0, 0x01, 0x90, 0x01, 0x00, 0x00, 0x00, 0xc8, 0x00,
   0xb0, 0x01, 0x00, 0x00, 0x00, 0xe8, 0x00, 0x20, 0x03, 0x00, 0x00, 0x00,
   0x64, 0x00, 0x60, 0x06, 0x00, 0x00, 0x00, 0x72, 0x00, 0xc0, 0x06, 0x00,
   0x00, 0x00, 0x3a, 0x00, 0x80, 0x0c, 0x00, 0x00, 0x00, 0x19, 0x00, 0x80,
   0x39, 0x00, 0x00, 0xc0, 0x1c, 0x00, 0x00, 0x63, 0x00, 0x00, 0x20, 0x0e,
   0x00, 0x00, 0xce, 0x01, 0x00, 0x98, 0x07, 0x00, 0x00, 0x1c, 0x07, 0x00,
   0xc6, 0x03, 0x00, 0x00, 0x70, 0x3c, 0xc0, 0xf1, 0x00, 0x00, 0x00, 0xe0,
   0xe1, 0x3f, 0x7c, 0x00, 0x00, 0x00, 0x80, 0x0f, 0x80, 0x1f, 0x00, 0x00,
   0x00, 0x00, 0xfe, 0xff, 0x07, 0x00, 0x00, 0x00, 0x00, 0xf0, 0xff, 0x00,
   0x00, 0x00, 0x00, 0x00, 0x00, 0x00, 0x00, 0x00, 0x00, 0x00, 0x00, 0x00,
   0x00, 0x00, 0x00, 0x00 };
