/* XPM */
static char *image[] = {
"16 16 173 2",
"   c None",
"00 c #900e07",
"10 c #890d06",
"20 c #830b05",
"30 c #7d0904",
"40 c #770803",
"50 c #720603",
"60 c #6c0502",
"70 c #680402",
"80 c #650301",
"90 c #630302",
":0 c #600202",
";0 c #620202",
"A0 c #630202",
"B0 c #640303",
"C0 c #8c0d06",
"D0 c #8a0c06",
"E0 c #850a05",
"F0 c #800904",
"G0 c #7b0703",
"H0 c #780603",
"I0 c #740503",
"J0 c #710503",
"K0 c #6e0403",
"L0 c #6d0303",
"M0 c #6c0303",
"N0 c #ad7171",
"O0 c #c8a0a0",
"P0 c #6f0303",
"Q0 c #700303",
"R0 c #8c0c06",
"S0 c #8a0b05",
"T0 c #860a05",
"U0 c #840804",
"V0 c #800804",
"W0 c #7d0604",
"X0 c #7b0503",
"Y0 c #790403",
"Z0 c #780403",
"a0 c #780404",
"b0 c #bb8181",
"c0 c #ac6262",
"d0 c #ad6262",
"e0 c #7d0404",
"f0 c #7e0404",
"g0 c #8c0b05",
"h0 c #d8adac",
"i0 c #890905",
"j0 c #870804",
"k0 c #850704",
"l0 c #840604",
"m0 c #830604",
"n0 c #830504",
"o0 c #840505",
"p0 c #a34343",
"q0 c #b46363",
"r0 c #972424",
"s0 c #8a0505",
"t0 c #8b0505",
"u0 c #8c0505",
"v0 c #8d0a05",
"w0 c #b76562",
"x0 c #b86563",
"y0 c #cc9391",
"z0 c #b76362",
"01 c #a84443",
"11 c #b86463",
"21 c #ead1d1",
"31 c #ab4444",
"41 c #dcb1b1",
"51 c #930606",
"61 c #950606",
"71 c #970606",
"81 c #900905",
"91 c #a63734",
":1 c #c17573",
";1 c #c27473",
"A1 c #b45553",
"B1 c #ffffff",
"C1 c #9d1716",
"D1 c #980606",
"E1 c #c16464",
"F1 c #b03636",
"G1 c #a10707",
"H1 c #a30707",
"I1 c #a50707",
"J1 c #a60707",
"K1 c #930905",
"L1 c #950905",
"M1 c #960805",
"N1 c #980705",
"O1 c #9a0706",
"P1 c #9d0706",
"Q1 c #d59292",
"R1 c #ab1717",
"S1 c #d99292",
"T1 c #ac0707",
"U1 c #970805",
"V1 c #990805",
"W1 c #9c0806",
"X1 c #9f0807",
"Y1 c #a30807",
"Z1 c #a80707",
"a1 c #b72626",
"b1 c #f0d1d1",
"c1 c #bd2727",
"d1 c #bd0808",
"e1 c #c00808",
"f1 c #9b0806",
"g1 c #9f0806",
"h1 c #a20807",
"i1 c #a80807",
"j1 c #b20808",
"k1 c #eec1c1",
"l1 c #c10808",
"m1 c #c50909",
"n1 c #c90909",
"o1 c #cb0909",
"p1 c #a00907",
"q1 c #b60808",
"r1 c #e79292",
"s1 c #d63737",
"t1 c #d50a0a",
"u1 c #d80a0a",
"v1 c #da0a0a",
"w1 c #d90a0a",
"x1 c #a40807",
"y1 c #ab0807",
"z1 c #b10808",
"02 c #b80808",
"12 c #bf0808",
"22 c #cf1818",
"32 c #dd4747",
"42 c #e76565",
"52 c #dd0a0a",
"62 c #e20b0b",
"72 c #e50b0b",
"82 c #aa0807",
"92 c #b00808",
":2 c #b70808",
";2 c #be0808",
"A2 c #c60909",
"B2 c #cd0a0a",
"C2 c #d30a0a",
"D2 c #ea7474",
"E2 c #ea5757",
"F2 c #e70b0b",
"G2 c #f20c0c",
"H2 c #ad0707",
"I2 c #b30808",
"J2 c #bb0808",
"K2 c #c20909",
"L2 c #d00a0a",
"M2 c #df0b0b",
"N2 c #f40c0c",
"O2 c #fb0d0d",
"P2 c #f50c0c",
"Q2 c #ed0c0c",
"R2 c #ae0707",
"S2 c #b50808",
"T2 c #bc0808",
"U2 c #c30909",
"V2 c #ca0909",
"W2 c #d10a0a",
"X2 c #d70a0a",
"Y2 c #de0a0a",
"Z2 c #e40b0b",
"a2 c #e90c0c",
"b2 c #ee0c0c",
"c2 c #f00c0c",
"d2 c #ef0c0c",
"e2 c #eb0c0c",
"f2 c #e60b0b",
"f2e2d2c2b2a2Z2Y2X2W2V2U2T2S2R2  ",
"Q2P2O2O2N2Q2f2M2X2L2V2K2J2I2H2  ",
"Q2G2N2G2Q2F2E2D2C2B2A2;2:29282  ",
"72F2F2726252423222A21202z1y1x1  ",
"w1v1w1u1t1W2s1r1U2T2q192y1x1p1  ",
"B2B2B2o1n1m1l1k1:2j1H2i1h1g1f1  ",
"e1e112d1J202c1b1a1Z1Y1X1W1V1U1  ",
"j1j1z192R2T1S1R1Q1P1O1N1M1L1K1  ",
"J1J1I1H1G1F1E1D1C1B1A1;1:19181  ",
"D1D17161514131211101z0y0x0w0v0  ",
"u0t0s0r0q0p0o0n0m0l0k0j0i0h0g0  ",
"f0e0d0c0b0a0Z0Y0X0W0V0U0T0S0R0  ",
"Q0P0O0N0M0L0K0J0I0H0G0F0E0D0C0  ",
"B0A0;0:0:090807060504030201000  ",
"                                ",
"                                "};
