/* XPM */
static char *image[] = {
"16 16 150 2",
"   c None",
"00 c #801400",
"10 c #781400",
"20 c #902800",
"30 c #a84400",
"40 c #b04000",
"50 c #983000",
"60 c #902400",
"70 c #a84800",
"80 c #b85000",
"90 c #d05c08",
":0 c #d05808",
";0 c #d05408",
"A0 c #d05008",
"B0 c #c04400",
"C0 c #903000",
"D0 c #b85400",
"E0 c #d87008",
"F0 c #e07008",
"G0 c #d86808",
"H0 c #a03800",
"I0 c #b85810",
"J0 c #c86400",
"K0 c #e08410",
"L0 c #c86408",
"M0 c #b05008",
"N0 c #a05018",
"O0 c #a03808",
"P0 c #d86c18",
"Q0 c #e07410",
"R0 c #b84008",
"S0 c #b03c00",
"T0 c #b85010",
"U0 c #b04c08",
"V0 c #e88800",
"W0 c #f8a410",
"X0 c #c08420",
"Y0 c #704030",
"Z0 c #103878",
"a0 c #a83400",
"b0 c #c04808",
"c0 c #d86010",
"d0 c #e87c10",
"e0 c #d06008",
"f0 c #b03400",
"g0 c #d07000",
"h0 c #f8ac18",
"i0 c #e0a018",
"j0 c #183868",
"k0 c #104480",
"l0 c #c85810",
"m0 c #d85c08",
"n0 c #c85410",
"o0 c #c84808",
"p0 c #c84800",
"q0 c #b84808",
"r0 c #b84000",
"s0 c #e8a018",
"t0 c #f8c428",
"u0 c #807040",
"v0 c #184880",
"w0 c #a06840",
"x0 c #a84c20",
"y0 c #104888",
"z0 c #083c78",
"01 c #b02c00",
"11 c #d06c08",
"21 c #b04800",
"31 c #e8c030",
"41 c #f8d438",
"51 c #405460",
"61 c #185490",
"71 c #185c98",
"81 c #185898",
"91 c #104080",
":1 c #a01c00",
";1 c #b03c08",
"A1 c #f08c10",
"B1 c #b04400",
"C1 c #b04c00",
"D1 c #f0b838",
"E1 c #e8c850",
"F1 c #284468",
"G1 c #2064a0",
"H1 c #2874b0",
"I1 c #388cc8",
"J1 c #3898d8",
"K1 c #f0ac48",
"L1 c #e09c30",
"M1 c #e07810",
"N1 c #e88810",
"O1 c #a83c00",
"P1 c #b85808",
"Q1 c #e0a830",
"R1 c #e0c450",
"S1 c #586c68",
"T1 c #2068a0",
"U1 c #3898d0",
"V1 c #48ace0",
"W1 c #50b8e8",
"X1 c #e8a470",
"Y1 c #e07028",
"Z1 c #e07018",
"a1 c #e88410",
"b1 c #c06410",
"c1 c #c87418",
"d1 c #f0d458",
"e1 c #809070",
"f1 c #206498",
"g1 c #50b0d8",
"h1 c #58bce0",
"i1 c #681000",
"j1 c #e87810",
"k1 c #e88820",
"l1 c #e07818",
"m1 c #982000",
"n1 c #b05c10",
"o1 c #e0ac40",
"p1 c #c8c060",
"q1 c #50acd8",
"r1 c #70c8e8",
"s1 c #300000",
"t1 c #982400",
"u1 c #e08018",
"v1 c #e89020",
"w1 c #d86c10",
"x1 c #901400",
"y1 c #b05410",
"z1 c #d0a040",
"02 c #285c90",
"12 c #50a0d0",
"22 c #78c8e8",
"32 c #88d0e8",
"42 c #88d4f0",
"52 c #a02c00",
"62 c #e88010",
"72 c #584050",
"82 c #2060a0",
"92 c #4888b8",
":2 c #80c8e0",
";2 c #98dcf0",
"A2 c #a83000",
"B2 c #405070",
"C2 c #504058",
"D2 c #285890",
"E2 c #286090",
"F2 c #306498",
"G2 c #685058",
"H2 c #484460",
"I2 c #d85c10",
"  I2      H2G2F2F2E2D2          ",
"  I2I2C2B2I2A2;2;2:2928272      ",
"  I262I2I262524232221202z1y1    ",
"x1w162v1u162t1t1s1r1q1E2p1o1n1  ",
"m1l1v1k1l1j1I2I2i1h1g1f1e1d1c1b1",
"A2a1v162Z1Y1X1t1W1V1U1T1S1R1Q1P1",
"O1N1v1M1L1L1K152J1I1H1G1F1E1D1C1",
"B1a1A1;1:1t1t1918171616151413121",
"B111a1M101A2z0y0x0w0v0y0u0t0s0C1",
"r0q0a1a1p0o0n0m0l0t1k0j0i0h0g021",
"  f0e0a1d0c0b0a0t1Z0Y0X0W0V0U0T0",
"  S0R0M162Q0P0O0N0M0L0a1K0J0I0  ",
"    H0r0G0M1M1M1M1F0G0F0E0D0    ",
"      C0S0B0A0;0:090:08070      ",
"        605040B1B1B13020        ",
"            10000010            "};
