/* XPM */
static char *image[] = {
"16 16 125 2",
"   c None",
"00 c #282828",
"10 c #2b2c2b",
"20 c #2f302f",
"30 c #343534",
"40 c #323332",
"50 c #4d4b45",
"60 c #5f5c56",
"70 c #787367",
"80 c #756f62",
"90 c #6d675c",
":0 c #5e5b51",
";0 c #54514a",
"A0 c #2a2c2a",
"B0 c #303030",
"C0 c #58554d",
"D0 c #686257",
"E0 c #4c4537",
"F0 c #413a2d",
"G0 c #514b3d",
"H0 c #575041",
"I0 c #665f50",
"J0 c #706a5b",
"K0 c #777164",
"L0 c #615e55",
"M0 c #30312e",
"N0 c #2b2b2b",
"O0 c #716d64",
"P0 c #554e3e",
"Q0 c #433c2f",
"R0 c #3f382b",
"S0 c #423b2e",
"T0 c #484133",
"U0 c #635c4d",
"V0 c #665f4f",
"W0 c #4d493c",
"X0 c #202220",
"Y0 c #181919",
"Z0 c #484842",
"a0 c #645e53",
"b0 c #3d382d",
"c0 c #7e7c72",
"d0 c #838077",
"e0 c #7c7a6f",
"f0 c #79766b",
"g0 c #676153",
"h0 c #746c56",
"i0 c #726955",
"j0 c #3e3b32",
"k0 c #1f2222",
"l0 c #303638",
"m0 c #1f201f",
"n0 c #151615",
"o0 c #676358",
"p0 c #6f6a5f",
"q0 c #7d7a70",
"r0 c #cfcfcf",
"s0 c #d8d8d8",
"t0 c #cdcecd",
"u0 c #b5b5ae",
"v0 c #b2b3ac",
"w0 c #e2e2e1",
"x0 c #5b584e",
"y0 c #262928",
"z0 c #aaacac",
"01 c #b2b4b4",
"11 c #787368",
"21 c #858379",
"31 c #d9d9d7",
"41 c #262626",
"51 c #343434",
"61 c #e2e2e2",
"71 c #c9c7c3",
"81 c #111111",
"91 c #e6e6e6",
":1 c #2b2d2b",
";1 c #b3b6b6",
"A1 c #e2e3e3",
"B1 c #181a19",
"C1 c #777167",
"D1 c #838076",
"E1 c #d6d5d2",
"F1 c #4d4d4c",
"G1 c #aaaaaa",
"H1 c #d0cfcb",
"I1 c #3b3b3b",
"J1 c #f0f0f0",
"K1 c #7f8080",
"L1 c #262728",
"M1 c #363838",
"N1 c #736f64",
"O1 c #8c8b81",
"P1 c #d1d0cd",
"Q1 c #ffffff",
"R1 c #eeeeee",
"S1 c #bab9b5",
"T1 c #dfdfde",
"U1 c #d6d6d5",
"V1 c #7c7c78",
"W1 c #716c62",
"X1 c #87847b",
"Y1 c #939188",
"Z1 c #d3d2cf",
"a1 c #fefefe",
"b1 c #fdfdfd",
"c1 c #939590",
"d1 c #c5c5c4",
"e1 c #c3c3c1",
"f1 c #8c8c8a",
"g1 c #8a8781",
"h1 c #757269",
"i1 c #30312f",
"j1 c #656763",
"k1 c #767874",
"l1 c #787975",
"m1 c #838681",
"n1 c #999c96",
"o1 c #858783",
"p1 c #787976",
"q1 c #333432",
"r1 c #2e302e",
"s1 c #595a58",
"t1 c #2d2f2e",
"u1 c #2e2f2e",
"v1 c #2d2e2d",
"                              v1",
"      u1                    u1u1",
"      u1t1                u1s1r1",
"      q1p1p1p1o1n1m1l1k1j1i1h1u1",
"      g1f1e1d1c1c1b1a1Z1Y1X1W1u1",
"      V1U1T1T1S1R1Q1Q1Q1P1O1N1u1",
"  M1L1K1J1Q1I1H1R1R1G1F1E1D1C1u1",
"B1A1;1:191I18171R1615141312111u1",
"8101z0y0x0w0v0u0u0t0s0r0q0p0o0u1",
"n0m0l0k0j0i0h0g0f0e0d0c0b0a0Z0u1",
"  Y0n0X0W0V0U0T0S0S0R0Q0P0O0u1N0",
"    u1M0L0K0J0I0H0G0F0E0D0C0B0  ",
"        A0;0:0908070O0605040    ",
"          30202020u1u11000      ",
"                                ",
"                                "};
