/* XPM */
static char *image[] = {
"22 22 159 2",
"   c None",
"00 c #1d4379",
"10 c #204a85",
"20 c #1f4b87",
"30 c #1f4a87",
"40 c #204a86",
"50 c #1e447a",
"60 c #1d4177",
"70 c #2b5690",
"80 c #5984ba",
"90 c #719dcc",
":0 c #7da6d2",
";0 c #7fa9d4",
"A0 c #7aa2cf",
"B0 c #628dbe",
"C0 c #2f5a94",
"D0 c #1d4278",
"E0 c #1f467f",
"F0 c #3a65a0",
"G0 c #6e99ca",
"H0 c #6f9bcc",
"I0 c #6b99cb",
"J0 c #6a97ca",
"K0 c #6d99cb",
"L0 c #78a1cf",
"M0 c #80a6d1",
"N0 c #446da4",
"O0 c #204781",
"P0 c #2b5691",
"Q0 c #628dc1",
"R0 c #5d8ac0",
"S0 c #5a88bf",
"T0 c #638fc3",
"U0 c #7ba0cb",
"V0 c #305a95",
"W0 c #4470a9",
"X0 c #5280b6",
"Y0 c #779bc6",
"Z0 c #5f8abc",
"a0 c #5c83b5",
"b0 c #224d89",
"c0 c #204c89",
"d0 c #4976ac",
"e0 c #3d6daa",
"f0 c #6b90be",
"g0 c #3a6ba9",
"h0 c #4170ac",
"i0 c #6f92be",
"j0 c #214b88",
"k0 c #4e78ae",
"l0 c #668bba",
"m0 c #3566a4",
"n0 c #799ac3",
"o0 c #547cb1",
"p0 c #acc0da",
"q0 c #7a9ac3",
"r0 c #809ec6",
"s0 c #5980b4",
"t0 c #5981b5",
"u0 c #a5bbd7",
"v0 c #5f86b8",
"w0 c #3b6ba9",
"x0 c #89a6cb",
"y0 c #5f85b6",
"z0 c #3465a4",
"01 c #3868a6",
"11 c #5881b5",
"21 c #5d86b9",
"31 c #4272ad",
"41 c #4272ae",
"51 c #92aed0",
"61 c #658ab9",
"71 c #3667a5",
"81 c #3a6ba8",
"91 c #6289ba",
":1 c #abc1db",
";1 c #6b92c1",
"A1 c #4a79b3",
"B1 c #9db6d5",
"C1 c #6d8fbd",
"D1 c #3b6ca9",
"E1 c #3f70ac",
"F1 c #b4c8df",
"G1 c #4a7ab3",
"H1 c #8cabd0",
"I1 c #5180b8",
"J1 c #a2bbd9",
"K1 c #7596c1",
"L1 c #4071ac",
"M1 c #4474af",
"N1 c #7699c5",
"O1 c #7b9fc9",
"P1 c #5685bc",
"Q1 c #5887bd",
"R1 c #5987bd",
"S1 c #204a87",
"T1 c #214c89",
"U1 c #7395c0",
"V1 c #4b79b1",
"W1 c #4878b2",
"X1 c #4d7cb5",
"Y1 c #7da0ca",
"Z1 c #5d8bc0",
"a1 c #5f8ec2",
"b1 c #608ec3",
"c1 c #6894c5",
"d1 c #9db7d7",
"e1 c #5d82b1",
"f1 c #658cbd",
"g1 c #4b7ab4",
"h1 c #507fb7",
"i1 c #5584bb",
"j1 c #83a6ce",
"k1 c #ffffff",
"l1 c #6391c5",
"m1 c #6694c7",
"n1 c #6895c8",
"o1 c #86aad3",
"p1 c #7b9cc4",
"q1 c #2c558f",
"r1 c #87a6cc",
"s1 c #5f8abd",
"t1 c #5281b8",
"u1 c #5786bc",
"v1 c #5c8bc0",
"w1 c #6290c4",
"x1 c #6795c7",
"y1 c #6c9acb",
"z1 c #7fa7d3",
"02 c #a6c1de",
"12 c #345c96",
"22 c #224c89",
"32 c #3e669d",
"42 c #95b0d2",
"52 c #7fa2ca",
"62 c #648fc1",
"72 c #5e8cc1",
"82 c #6491c4",
"92 c #729ccb",
":2 c #91b3d8",
";2 c #a9c2de",
"A2 c #4b71a5",
"B2 c #25508c",
"C2 c #214b89",
"D2 c #2e5690",
"E2 c #6c8eba",
"F2 c #93b0d1",
"G2 c #a5bddb",
"H2 c #a7c0dd",
"I2 c #9bb7d7",
"J2 c #7697c2",
"K2 c #2f5992",
"L2 c #234e89",
"M2 c #234d8b",
"N2 c #234d89",
"O2 c #204b88",
"P2 c #204b87",
"Q2 c #224d8a",
"R2 c #23508b",
"                                            ",
"                                            ",
"                R2Q2P2O2N2M2                ",
"            L2K2J2I2H2G2F2E2D2C2            ",
"          B2A2;2:29282726252423222          ",
"          1202z1y1x1w1v1u1t1s1r1q1          ",
"        B2p1o1n1m1l1k1j1i1h1g1f1e122        ",
"        22d1c1b1a1Z1k1k1Y1X1W1V1U1T1        ",
"        S1G2R1R1Q1P1k1O1k1N1M1L1K1O2        ",
"        S1J1I1I1k1H1k1G1F1k1E1D1C1O2        ",
"        S1B1A1A1;1k1k1:1k191817161O2        ",
"        S15141413121k1k11101z0z0y0O2        ",
"        S1x0w0w0v0k1k1u0k1t0z0z0s0O2        ",
"        S1r0z0z0k1q0k1z0p0k1z0z0o0O2        ",
"        S1n0m0z0z0z0k1l0k1l0z0z0k0O2        ",
"        j0i0h0g0g0g0k1k1f0g0g0e0d0c0        ",
"        b0a0Z0G1G1G1k1Y0G1G1G1X0W022        ",
"          V0U0T0S0S0S0S0S0S0R0Q0P0          ",
"          O0N0M0L0K0J0J0I0H0G0F0E0          ",
"            D0C0B0A0;0:090807060            ",
"                504030201000                ",
"                                            "};
