/* XPM */
static char *image[] = {
"32 32 501 2",
"   c None",
"00 c #010100",
"10 c #070708",
"20 c #040200",
"30 c #02182f",
"40 c #040a12",
"50 c #030000",
"60 c #100f0e",
"70 c #020201",
"80 c #060606",
"90 c #010001",
":0 c #000a1c",
";0 c #003887",
"A0 c #00081a",
"B0 c #000101",
"C0 c #282624",
"D0 c #020100",
"E0 c #0a0502",
"F0 c #4c2509",
"G0 c #8c460f",
"H0 c #b35c10",
"I0 c #c86912",
"J0 c #d06e14",
"K0 c #cd6c14",
"L0 c #c36715",
"M0 c #b05509",
"N0 c #8e634b",
"O0 c #625862",
"P0 c #361a0a",
"Q0 c #0c0402",
"R0 c #010407",
"S0 c #4b2709",
"T0 c #d26d15",
"U0 c #ff9116",
"V0 c #fe9e15",
"W0 c #ffa318",
"X0 c #ffa61b",
"Y0 c #fda417",
"Z0 c #fda418",
"a0 c #fda112",
"b0 c #fea011",
"c0 c #ff9805",
"d0 c #ff950a",
"e0 c #fe8d10",
"f0 c #e8780f",
"g0 c #b5590d",
"h0 c #6e3207",
"i0 c #230b00",
"j0 c #0e1013",
"k0 c #030201",
"l0 c #502b0b",
"m0 c #fb891b",
"n0 c #fda219",
"o0 c #f19e0e",
"p0 c #f2a116",
"q0 c #f4a41d",
"r0 c #f5a41e",
"s0 c #f19e12",
"t0 c #f29b0b",
"u0 c #fea924",
"v0 c #ffb13d",
"w0 c #fbaf50",
"x0 c #eca656",
"y0 c #e09f59",
"z0 c #df9c5b",
"01 c #e99146",
"11 c #f48737",
"21 c #e97b32",
"31 c #d07235",
"41 c #814721",
"51 c #0d0a06",
"61 c #cf6e17",
"71 c #ffa21c",
"81 c #f09f12",
"91 c #f6a31b",
":1 c #f6a319",
";1 c #f39b0a",
"A1 c #fbac2e",
"B1 c #fdc073",
"C1 c #bf906a",
"D1 c #6e5343",
"E1 c #3a2820",
"F1 c #1c1a1f",
"G1 c #0c52a3",
"H1 c #065ec0",
"I1 c #064c9a",
"J1 c #0b0f14",
"K1 c #1c120a",
"L1 c #392113",
"M1 c #5d3419",
"N1 c #6a3a1b",
"O1 c #643a1e",
"P1 c #060504",
"Q1 c #3a1f08",
"R1 c #f78b1b",
"S1 c #f39f10",
"T1 c #f5a016",
"U1 c #f6a41d",
"V1 c #f39c0c",
"W1 c #ffb646",
"X1 c #d6af8d",
"Y1 c #3d2f2a",
"Z1 c #010101",
"a1 c #003a7a",
"b1 c #005fc7",
"c1 c #0060c9",
"d1 c #003b7e",
"e1 c #010102",
"f1 c #282c2f",
"g1 c #0d0b0a",
"h1 c #000002",
"i1 c #4d2709",
"j1 c #fe9017",
"k1 c #f39f0f",
"l1 c #f6a218",
"m1 c #f5a116",
"n1 c #f29b0a",
"o1 c #feac2e",
"p1 c #ceaa8b",
"q1 c #110b0a",
"r1 c #050404",
"s1 c #090808",
"t1 c #0a0400",
"u1 c #05264a",
"v1 c #0062cc",
"w1 c #015fc3",
"x1 c #012a56",
"y1 c #020000",
"z1 c #030303",
"02 c #0f0d0c",
"12 c #01070c",
"22 c #3e1e06",
"32 c #fc972c",
"42 c #f5ac2e",
"52 c #f6a41f",
"62 c #f5a012",
"72 c #f39400",
"82 c #f9b86a",
"92 c #392e2d",
":2 c #090807",
";2 c #0b0b0c",
"A2 c #0e0e0f",
"B2 c #0f0c08",
"C2 c #0b1d31",
"D2 c #005fc5",
"E2 c #0059b8",
"F2 c #000e1d",
"G2 c #000102",
"H2 c #020202",
"I2 c #000001",
"J2 c #170700",
"K2 c #e8a970",
"L2 c #ffe2af",
"M2 c #fbd69b",
"N2 c #f7c879",
"O2 c #ffbb4d",
"P2 c #c29063",
"Q2 c #050504",
"R2 c #080808",
"S2 c #0d0d0d",
"T2 c #111111",
"U2 c #141515",
"V2 c #161310",
"W2 c #111e2c",
"X2 c #0055b1",
"Y2 c #0061ca",
"Z2 c #0063ce",
"a2 c #003b7a",
"b2 c #010000",
"c2 c #0a0a0a",
"d2 c #0b0b0b",
"e2 c #ad7649",
"f2 c #ffe6b5",
"g2 c #f8d9a5",
"h2 c #f8daa7",
"i2 c #ffe8b5",
"j2 c #99775d",
"k2 c #0c0c0c",
"l2 c #121212",
"m2 c #171717",
"n2 c #1b1b1c",
"o2 c #1d1a17",
"p2 c #172739",
"q2 c #0157b5",
"r2 c #0061c8",
"s2 c #0063cd",
"t2 c #0060c6",
"u2 c #0157b4",
"v2 c #010c19",
"w2 c #131314",
"x2 c #201f1e",
"y2 c #191f23",
"z2 c #61422b",
"03 c #ffca92",
"13 c #f9d9a0",
"23 c #f7d398",
"33 c #ffe0a3",
"43 c #957155",
"53 c #0a0a09",
"63 c #1c1c1c",
"73 c #202223",
"83 c #26211b",
"93 c #11345a",
":3 c #005bc2",
";3 c #0061c9",
"A3 c #0164cd",
"B3 c #0161c9",
"C3 c #0464cc",
"D3 c #092a4d",
"E3 c #040506",
"F3 c #636363",
"G3 c #c08757",
"H3 c #ffdda5",
"I3 c #f6d397",
"J3 c #ffdb9c",
"K3 c #b98a65",
"L3 c #0d0e10",
"M3 c #171716",
"N3 c #131313",
"O3 c #161616",
"P3 c #1c1d1f",
"Q3 c #262422",
"R3 c #25292d",
"S3 c #1c5da4",
"T3 c #106bcc",
"U3 c #0364cb",
"V3 c #005fcb",
"W3 c #005dc9",
"X3 c #0467d1",
"Y3 c #184575",
"Z3 c #171819",
"a3 c #2a2a2a",
"b3 c #0a0a0b",
"c3 c #414243",
"d3 c #484748",
"e3 c #584233",
"f3 c #f6b87e",
"g3 c #fad89d",
"h3 c #fed798",
"i3 c #e2a875",
"j3 c #2f2927",
"k3 c #292c2e",
"l3 c #2d2d2d",
"m3 c #2b2928",
"n3 c #27221d",
"o3 c #1c2227",
"p3 c #305e91",
"q3 c #66a0dd",
"r3 c #6aa2de",
"s3 c #609ee0",
"t3 c #4c91db",
"u3 c #2378d1",
"v3 c #0b67cf",
"w3 c #2e5581",
"x3 c #181819",
"y3 c #403c38",
"z3 c #302a24",
"04 c #48433d",
"14 c #3a3d3e",
"24 c #94643f",
"34 c #ffcc88",
"44 c #fbd891",
"54 c #ffc97f",
"64 c #754f32",
"74 c #292a29",
"84 c #37332f",
"94 c #32373d",
":4 c #2c4764",
";4 c #386fab",
"A4 c #5e9adb",
"B4 c #659edb",
"C4 c #68a3e1",
"D4 c #70a7e2",
"E4 c #79ade5",
"F4 c #76a9e0",
"G4 c #71aae7",
"H4 c #3c546e",
"I4 c #060607",
"J4 c #00112e",
"K4 c #314256",
"L4 c #475360",
"M4 c #3b4550",
"N4 c #af805e",
"O4 c #d9bc90",
"P4 c #ccb692",
"Q4 c #85746e",
"R4 c #234a72",
"S4 c #2f5d8e",
"T4 c #3570af",
"U4 c #488ad1",
"V4 c #5a99db",
"W4 c #5c99da",
"X4 c #5f9ddf",
"Y4 c #64a0e0",
"Z4 c #68a2e0",
"a4 c #a8c7e8",
"b4 c #151d25",
"c4 c #030200",
"d4 c #303031",
"e4 c #1d1d1d",
"f4 c #000b17",
"g4 c #335a85",
"h4 c #326fb2",
"i4 c #206bbb",
"j4 c #1f73cd",
"k4 c #216cbd",
"l4 c #2d74c2",
"m4 c #2a76c7",
"n4 c #327ccb",
"o4 c #3f88d6",
"p4 c #468cd7",
"q4 c #4d90d8",
"r4 c #5192d8",
"s4 c #5294db",
"t4 c #5798dd",
"u4 c #5b9add",
"v4 c #5d9bdc",
"w4 c #5f9ada",
"x4 c #6fa5df",
"y4 c #a5caf2",
"z4 c #526273",
"05 c #101011",
"15 c #35312e",
"25 c #403e3d",
"35 c #192736",
"45 c #456b94",
"55 c #356ba5",
"65 c #3075bf",
"75 c #357fcf",
"85 c #3180d3",
"95 c #327fd2",
":5 c #3d87d5",
";5 c #468edb",
"A5 c #4a8fda",
"B5 c #4f92db",
"C5 c #5497df",
"D5 c #5c9ce1",
"E5 c #6aa4e2",
"F5 c #81b2e7",
"G5 c #8cadd1",
"H5 c #4d5b6a",
"I5 c #1b1b1a",
"J5 c #2b2b2b",
"K5 c #242425",
"L5 c #0e0e0e",
"M5 c #1f1c1a",
"N5 c #706b67",
"O5 c #6d6c6b",
"P5 c #5e6770",
"Q5 c #54667b",
"R5 c #878186",
"S5 c #8096ad",
"T5 c #5c82af",
"U5 c #4780bd",
"V5 c #5388c1",
"W5 c #598ec7",
"X5 c #6190c4",
"Y5 c #678eb8",
"Z5 c #6782a0",
"a5 c #556575",
"b5 c #34393e",
"c5 c #2d2b29",
"d5 c #303030",
"e5 c #494949",
"f5 c #3c3c3c",
"g5 c #0a0601",
"h5 c #cc7c1b",
"i5 c #875208",
"j5 c #343f4b",
"k5 c #918b80",
"l5 c #554e45",
"m5 c #676665",
"n5 c #6c6b68",
"o5 c #8b6a51",
"p5 c #f59f51",
"q5 c #f7a35a",
"r5 c #725e52",
"s5 c #505960",
"t5 c #56585b",
"u5 c #505254",
"v5 c #4a4a4a",
"w5 c #444241",
"x5 c #42403d",
"y5 c #444341",
"z5 c #464647",
"06 c #474747",
"16 c #232323",
"26 c #5e3a0a",
"36 c #56370d",
"46 c #74460e",
"56 c #f6921c",
"66 c #e68a14",
"76 c #9b641b",
"86 c #dd8926",
"96 c #905911",
":6 c #55595d",
";6 c #858382",
"A6 c #6e777e",
"B6 c #806f64",
"C6 c #ed9652",
"D6 c #e38f50",
"E6 c #66615f",
"F6 c #5f6161",
"G6 c #5d5c5a",
"H6 c #5b5b5b",
"I6 c #565657",
"J6 c #535354",
"K6 c #505050",
"L6 c #262626",
"M6 c #555555",
"N6 c #c57715",
"O6 c #ff981b",
"P6 c #f78f18",
"Q6 c #f3931c",
"R6 c #fa9216",
"S6 c #ff9c1b",
"T6 c #8a5f26",
"U6 c #697381",
"V6 c #666768",
"W6 c #2f2c2b",
"X6 c #6d7377",
"Y6 c #857871",
"Z6 c #ee9354",
"a6 c #d3844f",
"b6 c #646a6f",
"c6 c #727373",
"d6 c #666665",
"e6 c #6d6d6d",
"f6 c #6b6b6b",
"g6 c #585858",
"h6 c #212121",
"i6 c #714e20",
"j6 c #ffad4c",
"k6 c #f0992d",
"l6 c #f89d26",
"m6 c #fe9d22",
"n6 c #f0961d",
"o6 c #fb9a21",
"p6 c #c37814",
"q6 c #695029",
"r6 c #000000",
"s6 c #858381",
"t6 c #6a6f72",
"u6 c #282422",
"v6 c #ce7439",
"w6 c #c97f4e",
"x6 c #313a40",
"y6 c #5f5f5f",
"z6 c #5a5959",
"07 c #313131",
"17 c #747474",
"27 c #40301a",
"37 c #c79b66",
"47 c #fcc07c",
"57 c #ffbb66",
"67 c #bc8339",
"77 c #6f4811",
"87 c #f5911d",
"97 c #f3951d",
":7 c #f1991f",
";7 c #ffa826",
"A7 c #555351",
"B7 c #696b6c",
"C7 c #e09360",
"D7 c #742e00",
"E7 c #2a3238",
"F7 c #797979",
"G7 c #ceb180",
"H7 c #ffeaba",
"I7 c #f5c48d",
"J7 c #ffca84",
"K7 c #b18242",
"L7 c #5b3b12",
"M7 c #f0931e",
"N7 c #f29213",
"O7 c #f89e26",
"P7 c #71350d",
"Q7 c #8b4a1e",
"R7 c #8a6f49",
"S7 c #ffdeb1",
"T7 c #f5cb99",
"U7 c #faca89",
"V7 c #ffc879",
"W7 c #f5b557",
"X7 c #f29f31",
"Y7 c #ea992b",
"Z7 c #2d2210",
"a7 c #f5dcbe",
"b7 c #ffebcb",
"c7 c #fcdaab",
"d7 c #f7cb92",
"e7 c #facb89",
"f7 c #fcc879",
"g7 c #ffc563",
"h7 c #57472e",
"i7 c #fffad3",
"j7 c #c3a477",
"k7 c #debf97",
"l7 c #ffe6c0",
"m7 c #eac080",
"n7 c #ffe0a2",
"                                                                ",
"                                                  n7            ",
"                                                m7l7k7j7i7h7    ",
"                                            g7f7e7d7c7b7a7Z7    ",
"                                            Y7X7W7V7U7T7S7R7    ",
"                        Q7P7                O7N7M7L7K7J7I7H7G7  ",
"                      F7E7D7C7B7    A7    ;7:79787776757473727  ",
"                1707  z6y6x6w6v6u6t6s6r6  q6p6o6n6m6l6k6j6i6    ",
"                h6g6f6e6d6c6b6a6Z6Y6X6W6V6U6T6S6R6Q6Q6P6O6N6    ",
"            M6L6g6K6J6I6H6G6F6E6D6C6B6A6;6:69686766656463626    ",
"            1606z5y5x5w5v5u5t5s5r5q5p5o5n5m5l5k5j5i5h5g5        ",
"        f5  e5d5c5b5a5Z5Y5X5W5V5U5T5S5R5Q5P5O5N5M5              ",
"        L5K5J5I5H5G5F5E5D5C5B5A5;5:5958575655545352515          ",
"          05r6z4y4x4w4v4u4t4s4r4q4p4o4n4m4l4k4j4i4h4g4f4        ",
"      e4d4c4b4a4x4Z4E5Y4X4W4V4U4T4S4R4Q4P4O4N4M4L4K4J4          ",
"      r6I4r6H4G4F4E4D4C4B4A4;4:494847464544434241404z3y3        ",
"        x3r6w3v3u3t3s3r3q3p3o3n3m3l3k3j3i3h3g3f3e3b5d3c3b3      ",
"      a3Z3r6Y3X3W3V3U3T3S3R3Q3P3O3N3M3L3K3J3I3H3G3J5J5r6        ",
"    F3r6E3r6D3C3B3A3;3:393837363O3L553r64333231303z2y2x2        ",
"        w2r6v2u2t2s2r2q2p2o2n2m2l2k253r6j2i2h2g2f2e2r6d2c2r6    ",
"        a3r6b2a2Z2Y2;3X2W2V2U2T2S2R2Q2r6P2O2N2M2L2K2J2I2Q2      ",
"      r6H2G2r6F2E2t2;3D2C2B2A2;2R2:2r6928272625242322212        ",
"          02z1y1x1w1w1v1u1t1b3s1r1r6q1p1o1n1m1l1k1j1i1h1g1      ",
"          f1r6e1r6d1c1b1a1r6G2Z1r6Y1X1W1V1m1U1T1S1R1Q1r6P1      ",
"        O1N1M1L1K1J1I1H1G1F1E1D1C1B1A1;1:191T181716151          ",
"            4131211101z0y0x0w0v0u0t0s0r0q0p0o0n0m0l0r6k0        ",
"              j0i0h0g0f0e0d0c0b0a0Z0Y0X0W0V0U0T0S0r6  r6        ",
"              I2r6R0I2Q0P0O0N0M0L0K0J0I0H0G0F0E0r6D0            ",
"                  C0b2B0r6A0;0:0r690y1r6r6r6r6b2D0r6            ",
"                  80r67060504030r6r6r6r6D020c4b2                ",
"                        k2r6I210B0r6b2r6r6  r6r6                ",
"                                00r6  r6r6                      "};
