/* XPM */
static char *image[] = {
"32 32 548 2",
"   c None",
"00 c #343434",
"10 c #2c2d2d",
"20 c #2b2b2b",
"30 c #2e2e2e",
"40 c #363838",
"50 c #424242",
"60 c #333434",
"70 c #2c2c2c",
"80 c #565655",
"90 c #676666",
":0 c #6a6a6a",
";0 c #636262",
"A0 c #4e4e4e",
"B0 c #353534",
"C0 c #2a2b2b",
"D0 c #383a3a",
"E0 c #343535",
"F0 c #8c8b8b",
"G0 c #aaa9a9",
"H0 c #b6b5b6",
"I0 c #b8b8b8",
"J0 c #bababb",
"K0 c #bab9ba",
"L0 c #b6b4b5",
"M0 c #a5a3a4",
"N0 c #7e7d7d",
"O0 c #4b4b4b",
"P0 c #313232",
"Q0 c #383939",
"R0 c #4b4a4a",
"S0 c #8b8989",
"T0 c #a4a3a4",
"U0 c #a3a3a4",
"V0 c #979899",
"W0 c #969698",
"X0 c #98989a",
"Y0 c #99999b",
"Z0 c #9f9fa0",
"a0 c #a8a7a9",
"b0 c #a4a2a2",
"c0 c #797877",
"d0 c #3c3c3b",
"e0 c #404040",
"f0 c #393a3a",
"g0 c #5d5c5b",
"h0 c #959393",
"i0 c #979798",
"j0 c #8c8c8e",
"k0 c #9b9a9b",
"l0 c #9d9d9e",
"m0 c #a2a1a2",
"n0 c #99999a",
"o0 c #949495",
"p0 c #909092",
"q0 c #909192",
"r0 c #9e9d9e",
"s0 c #8b8888",
"t0 c #5e5c5b",
"u0 c #918f8f",
"v0 c #8c8c8d",
"w0 c #959698",
"x0 c #959a9d",
"y0 c #969da0",
"z0 c #9ba1a5",
"01 c #899195",
"11 c #798187",
"21 c #9fa0a2",
"31 c #979697",
"41 c #979596",
"51 c #939192",
"61 c #8a8a8b",
"71 c #8a8787",
"81 c #464545",
"91 c #4f4e4d",
":1 c #868484",
";1 c #888889",
"A1 c #8d8a8b",
"B1 c #8a9093",
"C1 c #899397",
"D1 c #969393",
"E1 c #a4928e",
"F1 c #ab9088",
"G1 c #ab8e86",
"H1 c #af9891",
"I1 c #6e5e60",
"J1 c #767277",
"K1 c #979b9e",
"L1 c #8f989c",
"M1 c #8e9498",
"N1 c #8e8f91",
"O1 c #8d8b8c",
"P1 c #7d7a7a",
"Q1 c #3e3e3d",
"R1 c #3d3d3d",
"S1 c #3c3c3c",
"T1 c #40403f",
"U1 c #777575",
"V1 c #828284",
"W1 c #868586",
"X1 c #838b8f",
"Y1 c #a0847d",
"Z1 c #c97250",
"a1 c #de6527",
"b1 c #e86000",
"c1 c #ea5d00",
"d1 c #e95c00",
"e1 c #e55f00",
"f1 c #df6318",
"g1 c #cd5700",
"h1 c #c66c44",
"i1 c #b47862",
"j1 c #a08278",
"k1 c #8d8988",
"l1 c #848b8f",
"m1 c #80878b",
"n1 c #87888a",
"o1 c #686565",
"p1 c #3a3b3b",
"q1 c #3c3d3d",
"r1 c #5b595a",
"s1 c #817f80",
"t1 c #7e8689",
"u1 c #b47761",
"v1 c #e85d00",
"w1 c #ef5c00",
"x1 c #ef6600",
"y1 c #ef6e15",
"z1 c #ee701c",
"02 c #ed6b13",
"12 c #ef6200",
"22 c #ee5b00",
"32 c #e45c00",
"42 c #dc5900",
"52 c #d25900",
"62 c #c15a17",
"72 c #ae6848",
"82 c #967568",
"92 c #867f7e",
":2 c #7b7a7b",
";2 c #3a3a3a",
"A2 c #3e3e3e",
"B2 c #6f6d6d",
"C2 c #817e7f",
"D2 c #798184",
"E2 c #a17b70",
"F2 c #ea5c00",
"G2 c #eb6100",
"H2 c #ee711e",
"I2 c #f18235",
"J2 c #f18b43",
"K2 c #f68f44",
"L2 c #f7893a",
"M2 c #e47a3c",
"N2 c #cf7958",
"O2 c #b47967",
"P2 c #75494e",
"Q2 c #5a3845",
"R2 c #806867",
"S2 c #9f847b",
"T2 c #98786d",
"U2 c #987568",
"V2 c #8b7770",
"W2 c #807e7f",
"X2 c #3f3f3f",
"Y2 c #424142",
"Z2 c #504e4d",
"a2 c #757474",
"b2 c #7e7b7c",
"c2 c #747f83",
"d2 c #c66b45",
"e2 c #ee5d00",
"f2 c #ed6d18",
"g2 c #f28539",
"h2 c #f49a58",
"i2 c #fcae71",
"j2 c #ecaa78",
"k2 c #b0907f",
"l2 c #909091",
"m2 c #879296",
"n2 c #889296",
"o2 c #325573",
"p2 c #002c5d",
"q2 c #003358",
"r2 c #717a81",
"s2 c #82888b",
"t2 c #7c8387",
"u2 c #7d8082",
"v2 c #7c7c7e",
"w2 c #6c6b6b",
"x2 c #484747",
"y2 c #414141",
"z2 c #4a4948",
"03 c #767576",
"13 c #7a787a",
"23 c #757b7e",
"33 c #d06737",
"43 c #ef6000",
"53 c #ef7827",
"63 c #f3944f",
"73 c #fcb57c",
"83 c #ecbf9b",
"93 c #8f8e8e",
":3 c #7f878d",
";3 c #8c8b8d",
"A3 c #8c8a8b",
"B3 c #8f8c8a",
"C3 c #6a6e7f",
"D3 c #27416a",
"E3 c #003058",
"F3 c #34445c",
"G3 c #838181",
"H3 c #7f7d7e",
"I3 c #7c7b7c",
"J3 c #7a797b",
"K3 c #6f6e6f",
"L3 c #454444",
"M3 c #514f4f",
"N3 c #767677",
"O3 c #7a7777",
"P3 c #707b7f",
"Q3 c #c76a43",
"R3 c #f16100",
"S3 c #ef7d2f",
"T3 c #f49a57",
"U3 c #ffc290",
"V3 c #ab9e95",
"W3 c #7c8085",
"X3 c #89898a",
"Y3 c #88888a",
"Z3 c #8a8989",
"a3 c #757987",
"b3 c #394f76",
"c3 c #234065",
"d3 c #002852",
"e3 c #5e646e",
"f3 c #828181",
"g3 c #787879",
"h3 c #706f70",
"i3 c #545251",
"j3 c #494848",
"k3 c #5d5c5c",
"l3 c #767577",
"m3 c #787576",
"n3 c #6d797e",
"o3 c #aa705e",
"p3 c #f16000",
"q3 c #ee792b",
"r3 c #f79853",
"s3 c #f1b180",
"t3 c #848486",
"u3 c #868687",
"v3 c #868688",
"w3 c #787c8a",
"x3 c #4a5b81",
"y3 c #2a4469",
"z3 c #002e57",
"04 c #304259",
"14 c #7c7c7d",
"24 c #79797a",
"34 c #777677",
"44 c #555354",
"54 c #4f4d4d",
"64 c #5c5959",
"74 c #5b5a5a",
"84 c #737274",
"94 c #747374",
":4 c #737577",
";4 c #7d7776",
"A4 c #e1621b",
"B4 c #f06e11",
"C4 c #f58b3f",
"D4 c #ea9b63",
"E4 c #848282",
"F4 c #808082",
"G4 c #818081",
"H4 c #828283",
"I4 c #828184",
"J4 c #828180",
"K4 c #757c92",
"L4 c #4e5d83",
"M4 c #2a446a",
"N4 c #0c345a",
"O4 c #032e4f",
"P4 c #6c6e72",
"Q4 c #797879",
"R4 c #747375",
"S4 c #6d6c6d",
"T4 c #565454",
"U4 c #545252",
"V4 c #625f5f",
"W4 c #585657",
"X4 c #6e6e6f",
"Y4 c #747071",
"Z4 c #6a767b",
"a4 c #a96e5a",
"b4 c #f26000",
"c4 c #ee7524",
"d4 c #ed8843",
"e4 c #8a807c",
"f4 c #797c7f",
"g4 c #7d7c7e",
"h4 c #7f7f80",
"i4 c #807e7c",
"j4 c #80828e",
"k4 c #6b7696",
"l4 c #46577b",
"m4 c #254168",
"n4 c #0d3459",
"o4 c #00294c",
"p4 c #63666c",
"q4 c #777676",
"r4 c #717172",
"s4 c #666667",
"t4 c #585655",
"u4 c #5a5757",
"v4 c #575555",
"w4 c #676768",
"x4 c #707071",
"y4 c #737273",
"z4 c #797677",
"05 c #727a7c",
"15 c #cc6b3e",
"25 c #f66600",
"35 c #fa7200",
"45 c #ad7c66",
"55 c #777f82",
"65 c #817d7c",
"75 c #7b7c7f",
"85 c #797e8e",
"95 c #6d7797",
":5 c #556385",
";5 c #3a4e73",
"A5 c #1b3c63",
"B5 c #103457",
"C5 c #002a4a",
"D5 c #65676b",
"E5 c #747373",
"F5 c #706f71",
"G5 c #5e5b5b",
"H5 c #5e5c5c",
"I5 c #676464",
"J5 c #605d5d",
"K5 c #5f5e5f",
"L5 c #68686a",
"M5 c #56585c",
"N5 c #5c5e62",
"O5 c #62676d",
"P5 c #716b6c",
"Q5 c #c36031",
"R5 c #d05c1d",
"S5 c #a26454",
"T5 c #56677a",
"U5 c #5c647b",
"V5 c #576484",
"W5 c #57658a",
"X5 c #4f5e81",
"Y5 c #3f5276",
"Z5 c #29446a",
"a5 c #1c3c60",
"b5 c #002e53",
"c5 c #314156",
"d5 c #727272",
"e5 c #6f6e70",
"f5 c #6e6d6e",
"g5 c #575657",
"h5 c #636161",
"i5 c #6b6767",
"j5 c #737070",
"k5 c #545454",
"l5 c #69696a",
"m5 c #656668",
"n5 c #54585f",
"o5 c #343e4d",
"p5 c #052d49",
"q5 c #002c51",
"r5 c #003158",
"s5 c #003461",
"t5 c #0b3b67",
"u5 c #2f476f",
"v5 c #3b4f74",
"w5 c #3d5074",
"x5 c #384d72",
"y5 c #2a456b",
"z5 c #193b62",
"06 c #053259",
"16 c #283d57",
"26 c #6e6f73",
"36 c #6d6d6e",
"46 c #646465",
"56 c #5a5858",
"66 c #767272",
"76 c #807c7d",
"86 c #605e5e",
"96 c #646365",
":6 c #7f7e7f",
";6 c #7f7e7e",
"A6 c #747376",
"B6 c #63656d",
"C6 c #4d5768",
"D6 c #4f4b5d",
"E6 c #43455f",
"F6 c #194169",
"G6 c #264068",
"H6 c #234169",
"I6 c #234067",
"J6 c #294265",
"K6 c #394a65",
"L6 c #59606e",
"M6 c #78787a",
"N6 c #7e7d7e",
"O6 c #7a7a7b",
"P6 c #787778",
"Q6 c #525253",
"R6 c #706d6d",
"S6 c #736f70",
"T6 c #7a7676",
"U6 c #837f7f",
"V6 c #5c5b5b",
"W6 c #818082",
"X6 c #838283",
"Y6 c #838282",
"Z6 c #898786",
"a6 c #878788",
"b6 c #918581",
"c6 c #c2794d",
"d6 c #917972",
"e6 c #707984",
"f6 c #76787f",
"g6 c #767880",
"h6 c #7c7d81",
"i6 c #858485",
"j6 c #898787",
"k6 c #858484",
"l6 c #807f80",
"m6 c #888687",
"n6 c #757475",
"o6 c #615f5f",
"p6 c #898585",
"q6 c #736f71",
"r6 c #908c8b",
"s6 c #7c7978",
"t6 c #616061",
"u6 c #949394",
"v6 c #908f8f",
"w6 c #8e8d8e",
"x6 c #908d8e",
"y6 c #8c8f93",
"z6 c #988f8c",
"07 c #b18b75",
"17 c #949291",
"27 c #949292",
"37 c #939191",
"47 c #918f90",
"57 c #908f90",
"67 c #8f8d8f",
"77 c #898889",
"87 c #5e5d5d",
"97 c #8b8786",
":7 c #807d7d",
";7 c #878381",
"A7 c #a39e9d",
"B7 c #7c7a79",
"C7 c #6a696a",
"D7 c #a3a2a2",
"E7 c #9b9a9a",
"F7 c #9f9c9c",
"G7 c #9b9c9e",
"H7 c #9b9b9c",
"I7 c #9f9c9b",
"J7 c #9d9c9d",
"K7 c #9d9b9c",
"L7 c #9c9b9c",
"M7 c #9c9b9b",
"N7 c #9d9c9c",
"O7 c #a6a4a5",
"P7 c #626161",
"Q7 c #8c8888",
"R7 c #938e8e",
"S7 c #918d8d",
"T7 c #afabab",
"U7 c #8c8988",
"V7 c #6e6d6d",
"W7 c #9e9d9d",
"X7 c #b9b7b7",
"Y7 c #b8b6b6",
"Z7 c #b2b1b1",
"a7 c #afadad",
"b7 c #afaeaf",
"c7 c #b0aeae",
"d7 c #b0aeaf",
"e7 c #b3b1b2",
"f7 c #bab8b8",
"g7 c #b5b3b4",
"h7 c #6d6c6b",
"i7 c #9a9696",
"j7 c #a39f9e",
"k7 c #9c9997",
"l7 c #bbb7b7",
"m7 c #aba8a8",
"n7 c #7d7b7b",
"o7 c #868585",
"p7 c #abaaab",
"q7 c #c2c1c2",
"r7 c #cac9ca",
"s7 c #cdcbcc",
"t7 c #ceccce",
"u7 c #cdcbcd",
"v7 c #c8c7c8",
"w7 c #bcbbbc",
"x7 c #a09fa0",
"y7 c #7b7b7b",
"z7 c #8a8887",
"08 c #b6b3b2",
"18 c #a5a2a1",
"28 c #b6b3b3",
"38 c #d2cfcf",
"48 c #bab7b8",
"58 c #9a9999",
"68 c #8d8c8d",
"78 c #8d8d8e",
"88 c #939293",
"98 c #959495",
":8 c #919091",
";8 c #8c8b8c",
"A8 c #8e8d8d",
"B8 c #a19fa0",
"C8 c #c2bfc0",
"D8 c #ccc8c8",
"E8 c #adaaaa",
"F8 c #bcb8ba",
"G8 c #cecccc",
"H8 c #e9e7e7",
"I8 c #f2f0f1",
"J8 c #edeced",
"K8 c #e8e8e8",
"L8 c #e6e6e6",
"M8 c #e7e7e7",
"N8 c #ecebec",
"O8 c #eeecec",
"P8 c #dad8d9",
"Q8 c #c5c2c2",
"R8 c #dddbdb",
"S8 c #e9e9e9",
"T8 c #f1f1f1",
"U8 c #f3f3f3",
"V8 c #eeeded",
"W8 c #e3e2e3",
"                                                                ",
"                                                                ",
"                          W8V8U8T8S8R8                          ",
"                    Q8P8O8N8M8L8K8J8I8H8G8F8                    ",
"                E8D8C8B8A8;8:89888786858483828                  ",
"              1808z7y7x7w7v7u7t7s7r7q7p7o7n7m7l7k7              ",
"            j7i7h7;8g7f7e7d7c7b7a7c7Z7Y7X7W7V7U7T7S7            ",
"          R7Q7P788O7N7M7L7K7J7I7H7G7F7L7E7D7B8C7B7A7;7          ",
"        :797877788;867574737271707z6y6x6w668v6u6t6s6r6          ",
"      q6p6o6n6m6l6k6j6i6h6g6f6e6d6c6b6a6Z6o7Y6X6W6V6U6T6        ",
"      S6R6Q6P6O6N6M6L6K6J6I6H6G6F6E6D6C6B6A6N6;6:6968676        ",
"      66564636P6261606z5y5x5w5v5u5t5s5r5q5p5o5n5m5l5k5j5i5      ",
"    h5i5g5f5e5d5c5b5a5Z5Y5X5W5V5U5T5S5R5Q5P5O5N5M5L5K5J5I5      ",
"    H5G5K5F5E5D5C5B5A5;5:595857565554535251505z4y4x4w4v4I5      ",
"    u4t4s4r4q4p4o4n4m4l4k4j4i4h4g4f4e4d4c4b4a4Z4Y4r4X4W4V4      ",
"    U4T4S4R4Q4P4O4N4M4L4K4J4I4H4G4F4E4D4C4B4A4;4:494847464      ",
"    5444x434241404z3y3x3w3o7v3u3i6t3U7s3r3q3p3o3n3m3l3k3T4      ",
"    j3i3h3g3O6f3e3d3c3b3a3Z3Y3X3Q7W3V3U3T3S3R3Q3P3O3N3V6M3      ",
"    L354K3J3I3H3G3F3E3D3C3B3A3;3:393837363534333231303v4z2      ",
"    y2x2w2v2u2t2s2r2q2p2o2n2m2l2k2j2i2h2g2f2e2d2c2b2a2Z2Y2      ",
"      X2o6W2V2U2T2S2R2Q2P2O2N2M2L2K2J2I2H2G2F2E2D2C2B2L3A2      ",
"      ;2x2:292827262524232F2221202z1y1x1w1v1u1t1s1G4r1q1        ",
"      X2p1o1n1m1l1k1j1i1h1g1f1e1d1c1b1a1Z1Y1X1W1V1U1T1S1        ",
"        R1Q1P1O177N1M1L1K1J1I1H1G1F1E1D1C1B1A1;1:191S1          ",
"          S18171l261514131211101z0y0x0w037O1v0u0t0p1y2          ",
"            S181s0r0q0p0o0n0m0l0J7k031p0j0i0h0g0f0e0            ",
"              ;2d0c0b0a0Z0Y0X0Y0W0V0l0U0T0S0R0Q0y2              ",
"                A2P0O0N0M0L0K0J0I0H0G0F0V6E0Q0                  ",
"                    D0C0B0A0;0:09080R1706050                    ",
"                          4030201000X2                          ",
"                                                                ",
"                                                                "};
