/* XPM */
static char *image[] = {
"48 48 608 2",
"   c None",
"00 c #ee7424",
"10 c #ec7324",
"20 c #263d49",
"30 c #f37b2c",
"40 c #f37d2e",
"50 c #ed7324",
"60 c #e87224",
"70 c #9f5f33",
"80 c #ea7324",
"90 c #ef7424",
":0 c #f37c2d",
";0 c #f58b44",
"A0 c #f69554",
"B0 c #f79758",
"C0 c #f69250",
"D0 c #f4853b",
"E0 c #f27727",
"F0 c #e77224",
"G0 c #e07025",
"H0 c #da6f26",
"I0 c #c2ccd3",
"J0 c #b7c4cc",
"K0 c #ed7424",
"L0 c #f3792a",
"M0 c #f58e4a",
"N0 c #f8a268",
"O0 c #fab07d",
"P0 c #fab484",
"Q0 c #f9ac77",
"R0 c #f79b5e",
"S0 c #f5863d",
"T0 c #f17525",
"U0 c #eb7324",
"V0 c #e37124",
"W0 c #dc6f25",
"X0 c #d46d27",
"Y0 c #cd6b27",
"Z0 c #f2f4f6",
"a0 c #f8fafa",
"b0 c #f07424",
"c0 c #f48338",
"d0 c #f79d61",
"e0 c #fab787",
"f0 c #fdcba7",
"g0 c #fdd1b0",
"h0 c #214e73",
"i0 c #194966",
"j0 c #3d4d53",
"k0 c #ac6432",
"l0 c #ce6b27",
"m0 c #c76a27",
"n0 c #c16827",
"o0 c #dde2e7",
"p0 c #b2bfc7",
"q0 c #f17524",
"r0 c #f58941",
"s0 c #f8a56c",
"t0 c #fcc299",
"u0 c #fedcc3",
"v0 c #395677",
"w0 c #275175",
"x0 c #073e5f",
"y0 c #c2cdd4",
"z0 c #e9edf0",
"01 c #f0f2f4",
"11 c #f07524",
"21 c #f5873e",
"31 c #f8a269",
"41 c #fbbf93",
"51 c #405a78",
"61 c #3f5c7e",
"71 c #11486d",
"81 c #084061",
"91 c #2a4f66",
":1 c #768d9b",
";1 c #9dadb8",
"A1 c #abbac4",
"B1 c #b0bdc7",
"C1 c #b4c1ca",
"D1 c #b9c5cd",
"E1 c #bec9d1",
"F1 c #c1ccd3",
"G1 c #c5cfd7",
"H1 c #c9d3d9",
"I1 c #d1d9de",
"J1 c #f07423",
"K1 c #f47f32",
"L1 c #f79858",
"M1 c #f9ae7b",
"N1 c #c5cfd6",
"O1 c #c2cdd5",
"P1 c #c3ced6",
"Q1 c #c3ced5",
"R1 c #8694aa",
"S1 c #9cb1bd",
"T1 c #cbd5dc",
"U1 c #cdd7dd",
"V1 c #d2dbe1",
"W1 c #d4dce2",
"X1 c #d7dfe4",
"Y1 c #d5dde3",
"Z1 c #d6dee4",
"a1 c #dbe2e7",
"b1 c #d9e0e6",
"c1 c #dbe2e6",
"d1 c #dfe5e9",
"e1 c #e0e5ea",
"f1 c #dfe5ea",
"g1 c #e2e8ec",
"h1 c #e1e7ea",
"i1 c #e6ebee",
"j1 c #e6ebef",
"k1 c #f27625",
"l1 c #f5873d",
"m1 c #f69757",
"n1 c #d8dfe5",
"o1 c #dae1e7",
"p1 c #dce3e8",
"q1 c #cdd4dd",
"r1 c #73809c",
"s1 c #4b6384",
"t1 c #1a4c70",
"u1 c #074163",
"v1 c #7795a6",
"w1 c #e8edf1",
"x1 c #ebeff2",
"y1 c #edf1f4",
"z1 c #edf2f4",
"02 c #f0f3f6",
"12 c #f1f4f7",
"22 c #f2f6f8",
"32 c #f4f7f9",
"42 c #f6f8fa",
"52 c #f7f9fb",
"62 c #fafcfd",
"72 c #0c2737",
"82 c #0c2c3f",
"92 c #0b3248",
":2 c #ee7324",
";2 c #f27626",
"A2 c #f47f31",
"B2 c #f1f4f6",
"C2 c #f2f5f7",
"D2 c #dadee6",
"E2 c #8c96ad",
"F2 c #657593",
"G2 c #405d7f",
"H2 c #11496d",
"I2 c #084062",
"J2 c #829cac",
"K2 c #fcfdfe",
"L2 c #fefeff",
"M2 c #0b3147",
"N2 c #0a364f",
"O2 c #33464e",
"P2 c #7b5a42",
"Q2 c #a86539",
"R2 c #305578",
"S2 c #6a7e97",
"T2 c #aab3c4",
"U2 c #929cb2",
"V2 c #7985a0",
"W2 c #687795",
"X2 c #4e6585",
"Y2 c #295276",
"Z2 c #084468",
"a2 c #083f5f",
"b2 c #849dab",
"c2 c #e8e7e8",
"d2 c #cbc9ca",
"e2 c #e3e2e3",
"f2 c #0a354e",
"g2 c #093955",
"h2 c #083e5d",
"i2 c #154a6f",
"j2 c #36587b",
"k2 c #4a6384",
"l2 c #546989",
"m2 c #526888",
"n2 c #446081",
"o2 c #2b5376",
"p2 c #0c466b",
"q2 c #074162",
"r2 c #083c5a",
"s2 c #b2c1ca",
"t2 c #f2f2f2",
"u2 c #e0dfdf",
"v2 c #c3c1c2",
"w2 c #b0a59b",
"x2 c #94918e",
"y2 c #d4d3d3",
"z2 c #083c59",
"03 c #665546",
"13 c #154561",
"23 c #0d476b",
"33 c #1c4d71",
"43 c #265175",
"53 c #235074",
"63 c #164b6f",
"73 c #094569",
"83 c #083d5c",
"93 c #375f75",
":3 c #dddddd",
";3 c #b6aca5",
"A3 c #b19b88",
"B3 c #c6a07d",
"C3 c #d7b18b",
"D3 c #cbb39d",
"E3 c #d39e7b",
"F3 c #c2723b",
"G3 c #557b92",
"H3 c #174e6e",
"I3 c #074266",
"J3 c #074265",
"K3 c #084163",
"L3 c #083f60",
"M3 c #083d5b",
"N3 c #658496",
"O3 c #e3e2e2",
"P3 c #918678",
"Q3 c #af845b",
"R3 c #caa37e",
"S3 c #dcbc9d",
"T3 c #ecd4bb",
"U3 c #e0cbb7",
"V3 c #dbe1e5",
"W3 c #e19a6a",
"X3 c #d2ccc8",
"Y3 c #c1cfd7",
"Z3 c #c1ced6",
"a3 c #a19992",
"b3 c #624420",
"c3 c #bf6b29",
"d3 c #d08c53",
"e3 c #e7c7a8",
"f3 c #f3e2d0",
"g3 c #deccbb",
"h3 c #f0f3f4",
"i3 c #fcf6f2",
"j3 c #d2c5bd",
"k3 c #f0f0f0",
"l3 c #aea9a4",
"m3 c #5c4423",
"n3 c #b16426",
"o3 c #d7945b",
"p3 c #f6eadd",
"q3 c #dcccbb",
"r3 c #c0bdbc",
"s3 c #634d30",
"t3 c #9c5b23",
"u3 c #e99e29",
"v3 c #f4b940",
"w3 c #e2c695",
"x3 c #f6f6f6",
"y3 c #f7f7f7",
"z3 c #cccaca",
"04 c #6a553a",
"14 c #8d5421",
"24 c #e29227",
"34 c #f1c052",
"44 c #ebe6de",
"54 c #fefdfd",
"64 c #dfe5e8",
"74 c #d5dce1",
"84 c #d5d4d4",
"94 c #7a6a57",
":4 c #754a1e",
";4 c #ca6f29",
"A4 c #cb6f29",
"B4 c #db8828",
"C4 c #fcbb27",
"D4 c #f7bd39",
"E4 c #e5e0d6",
"F4 c #f7f9fa",
"G4 c #dddcdc",
"H4 c #867867",
"I4 c #65431c",
"J4 c #c46c28",
"K4 c #cb7029",
"L4 c #d68028",
"M4 c #fbba28",
"N4 c #f9bb30",
"O4 c #e2d8c3",
"P4 c #f7f8fa",
"Q4 c #eceff2",
"R4 c #e5e4e4",
"S4 c #958b81",
"T4 c #5f411c",
"U4 c #ba6827",
"V4 c #cc7229",
"W4 c #cf7829",
"X4 c #d17929",
"Y4 c #f9b82d",
"Z4 c #fbbd2e",
"a4 c #e3d0aa",
"b4 c #f9f8f8",
"c4 c #d4dbe0",
"d4 c #edecec",
"e4 c #a6a099",
"f4 c #5a3f1b",
"g4 c #a86024",
"h4 c #cd7329",
"i4 c #d17e2a",
"j4 c #d17b29",
"k4 c #f5b32f",
"l4 c #fbbf35",
"m4 c #e5ca8e",
"n4 c #f4f4f4",
"o4 c #b0bec7",
"p4 c #f7f9f9",
"q4 c #d2dadf",
"r4 c #b6b1ae",
"s4 c #5d4626",
"t4 c #9d5b23",
"u4 c #cd742b",
"v4 c #d38331",
"w4 c #d17d2d",
"x4 c #f0ab32",
"y4 c #fcc23f",
"z4 c #eac473",
"05 c #d9e0e5",
"15 c #f6f5f5",
"25 c #c0bdbb",
"35 c #675136",
"45 c #885220",
"55 c #cd742d",
"65 c #d58739",
"75 c #d38335",
"85 c #eca633",
"95 c #fcc549",
":5 c #f0c25b",
";5 c #ecebeb",
"A5 c #f8f9fb",
"B5 c #ced7dc",
"C5 c #cfcece",
"D5 c #715e47",
"E5 c #72491d",
"F5 c #cc742d",
"G5 c #d68c42",
"H5 c #d5893e",
"I5 c #e39733",
"J5 c #fdc852",
"K5 c #f3c050",
"L5 c #e7e2d9",
"M5 c #f9fbfb",
"N5 c #dde3e7",
"O5 c #b5c2ca",
"P5 c #fafafa",
"Q5 c #d9d7d7",
"R5 c #7c6c58",
"S5 c #69451d",
"T5 c #c26f2b",
"U5 c #d78f48",
"V5 c #d8914b",
"W5 c #e09539",
"X5 c #fcca59",
"Y5 c #f6c24e",
"Z5 c #e7decc",
"a5 c #fcfbfb",
"b5 c #8499a6",
"c5 c #e1e0e0",
"d5 c #8f8377",
"e5 c #5b3f1b",
"f5 c #b96827",
"g5 c #d8924f",
"h5 c #db9a58",
"i5 c #db8f38",
"j5 c #fac75c",
"k5 c #fcc548",
"l5 c #e1d4b7",
"m5 c #faf9f9",
"n5 c #f8f9fa",
"o5 c #cbd4da",
"p5 c #879ca9",
"q5 c #e9e8e8",
"r5 c #9b9389",
"s5 c #593f1d",
"t5 c #aa6125",
"u5 c #d99453",
"v5 c #dea162",
"w5 c #d98d3f",
"x5 c #f9c861",
"y5 c #fdc956",
"z5 c #e4cd9d",
"06 c #f7f6f6",
"16 c #fafbfc",
"26 c #859aa7",
"36 c #eeeeee",
"46 c #aaa49e",
"56 c #5c4322",
"66 c #965822",
"76 c #d89252",
"86 c #e0a66b",
"96 c #db944b",
":6 c #f6c260",
";6 c #fcce63",
"A6 c #e7ca8a",
"B6 c #f3f2f2",
"C6 c #bfcad2",
"D6 c #798c98",
"E6 c #bcb9b8",
"F6 c #624b2e",
"G6 c #845020",
"H6 c #d58a48",
"I6 c #e1ac75",
"J6 c #db9b5b",
"K6 c #f1b856",
"L6 c #fdd476",
"M6 c #edc56e",
"N6 c #ededed",
"O6 c #f5f7f9",
"P6 c #ecf0f2",
"Q6 c #eceff1",
"R6 c #505c64",
"S6 c #6a563b",
"T6 c #6f471d",
"U6 c #d18849",
"V6 c #e3b27f",
"W6 c #dfa66e",
"X6 c #edb151",
"Y6 c #fcd782",
"Z6 c #f1c35e",
"a6 c #e9e9e9",
"b6 c #fbfcfd",
"c6 c #e4e9ee",
"d6 c #473720",
"e6 c #62421b",
"f6 c #c37839",
"g6 c #e4b584",
"h6 c #e3b280",
"i6 c #e6a54b",
"j6 c #fcdc90",
"k6 c #f5c860",
"l6 c #e4e0d9",
"m6 c #fcfcfc",
"n6 c #f9fafb",
"o6 c #e3e9ed",
"p6 c #b9c8d2",
"q6 c #d6dde2",
"r6 c #453116",
"s6 c #5e401b",
"t6 c #b66f32",
"u6 c #e5b587",
"v6 c #e6b88b",
"w6 c #e19d49",
"x6 c #f9ca60",
"y6 c #e5d8c1",
"z6 c #fbfbfb",
"07 c #f8fafb",
"17 c #e0e7eb",
"27 c #b8c4cd",
"37 c #97b3c4",
"47 c #eaeef1",
"57 c #f1f4f5",
"67 c #cbd3d9",
"77 c #583d1a",
"87 c #a7652c",
"97 c #e5b689",
":7 c #eac29a",
";7 c #e19f56",
"A7 c #fddd93",
"B7 c #fcd272",
"C7 c #e1d2b4",
"D7 c #f9f9f9",
"E7 c #e9eff1",
"F7 c #d9e2e6",
"G7 c #c9d6dd",
"H7 c #b0c4ce",
"I7 c #94b3c4",
"J7 c #859faf",
"K7 c #d6dde3",
"L7 c #563c1a",
"M7 c #8f5926",
"N7 c #e2ad7d",
"O7 c #edc8a4",
"P7 c #e3a662",
"Q7 c #f9d68e",
"R7 c #fdda88",
"S7 c #e5cc96",
"T7 c #f5f5f5",
"U7 c #c3dde6",
"V7 c #a5dbeb",
"W7 c #93c8df",
"X7 c #74a6c0",
"Y7 c #4f768b",
"Z7 c #543b19",
"a7 c #7f4e1f",
"b7 c #dda677",
"c7 c #efcfaf",
"d7 c #e5b17b",
"e7 c #f5cb81",
"f7 c #fddf97",
"g7 c #ebc87e",
"h7 c #f1f1f1",
"i7 c #feffff",
"j7 c #dce3e7",
"k7 c #addae5",
"l7 c #86b9cd",
"m7 c #6291a7",
"n7 c #28536c",
"o7 c #5f5228",
"p7 c #6b461d",
"q7 c #d5935c",
"r7 c #f1d4b8",
"s7 c #e8ba8d",
"t7 c #f4c572",
"u7 c #fde8b3",
"v7 c #eec874",
"w7 c #eceaea",
"x7 c #ecf0f3",
"y7 c #b7ced6",
"z7 c #82b4c9",
"08 c #558196",
"18 c #8b422a",
"28 c #71683a",
"38 c #9c8651",
"48 c #f1d9be",
"58 c #edcaa9",
"68 c #edb765",
"78 c #feedc1",
"88 c #f0c76b",
"98 c #e7e4dd",
":8 c #fdfdfd",
";8 c #fdfefe",
"A8 c #e7ecef",
"B8 c #aabdc8",
"C8 c #81adc1",
"D8 c #447086",
"E8 c #61592a",
"F8 c #7e6136",
"G8 c #a55239",
"H8 c #988758",
"I8 c #b6a877",
"J8 c #edba5c",
"K8 c #feeab6",
"L8 c #f6d078",
"M8 c #dbd6cb",
"N8 c #f7f8f9",
"O8 c #f9fbfc",
"P8 c #a2b8c5",
"Q8 c #749aac",
"R8 c #be6655",
"S8 c #8e8451",
"T8 c #b09d78",
"U8 c #e0a397",
"V8 c #dacdb4",
"W8 c #c7b983",
"X8 c #e2b441",
"Y8 c #9c8d5f",
"Z8 c #9cabb5",
"a8 c #a7b6c0",
"b8 c #a4b4be",
"c8 c #9eafb9",
"d8 c #cfd8de",
"e8 c #d1dae0",
"f8 c #d3dbe0",
"g8 c #d3dce1",
"h8 c #d2dae0",
"i8 c #d5dde2",
"j8 c #d4dce1",
"k8 c #d1dadf",
"l8 c #ccd5db",
"m8 c #a1b2bc",
"n8 c #97a8b3",
"o8 c #a2b2bc",
"p8 c #90a5b1",
"q8 c #7999aa",
"r8 c #d6595e",
"s8 c #da5b60",
"t8 c #d26e64",
"u8 c #cebc96",
"v8 c #e2dac3",
"w8 c #f2d9d2",
"x8 c #ece4d8",
"y8 c #938347",
"z8 c #c3cdd4",
"09 c #eaeef0",
"19 c #becad1",
"29 c #ca5459",
"39 c #da5f63",
"49 c #de7276",
"59 c #e27e82",
"69 c #de7573",
"79 c #edd1b1",
"89 c #f3f1e6",
"99 c #bb9476",
":9 c #fefefe",
";9 c #fbfcfc",
"A9 c #d7dee2",
"B9 c #db6f74",
"C9 c #e79799",
"D9 c #efb5b6",
"E9 c #f5d3d4",
"F9 c #e99fa0",
"G9 c #bb9257",
"H9 c #d9e0e4",
"I9 c #ffffff",
"J9 c #f6f7f9",
"K9 c #bec9d0",
"L9 c #df898b",
"M9 c #f4cfcf",
"N9 c #f9e5e6",
"O9 c #d9888b",
"P9 c #fdfdfe",
"Q9 c #e5e9ec",
"R9 c #dd8a8d",
"S9 c #df9c9e",
"                                                                                    S9R9        ",
"                                                          Q9P9                    O9N9M9L9      ",
"                                                    K9J9I9I9I9H9                G9F9E9D9C9B9    ",
"                                                A9;9I9I9I9I9I9:9              9989796959493929  ",
"                                          1909:9I9I9I9I9I9I9I9I9z8          y8x8w8v8u8t8s8r8    ",
"                              q8p8o8n8m8l8k8j8k8k8i8h8h8g8f8f8e8d8c8b8a8Z8Y8X8W8V8U8T8S8R8      ",
"                          Q8P8i8O8I9I9I9I9I9I9I9I9I9I9I9I9I9I9I9I9I9I9N8M8L8K8J8I8H8G8F8E8      ",
"                      D8C8B8A8;8I9I9I9I9I9I9I9I9I9I9I9I9I9I9I9I9I9I9:8988878685848382818        ",
"                    08z7y7x7:9I9I9I9I9I9I9I9I9I9I9I9I9I9I9I9I9I9I9:9w7v7u7t7s7r7q7p7o7          ",
"                n7m7l7k7j7i7I9I9I9I9I9I9I9I9I9I9I9I9I9I9I9I9I9I9:9h7g7f7e7d7c7b7a7Z7            ",
"              Y7X7W7V7U7:9I9I9I9I9I9I9I9I9I9I9I9I9I9I9I9I9I9I9I9T7S7R7Q7P7O7N7M7L7              ",
"          K7J7I7H7G7F7E7I9I9I9I9I9I9I9I9I9I9I9I9I9I9I9I9I9I9I9D7C7B7A7;7:7978777                ",
"    6757I94737271707I9I9I9I9I9I9I9I9I9I9I9I9I9I9I9I9I9I9I9I9z6y6x6A7w6v6u6t6s6r6                ",
"  q6I9I9I947p6o6n6I9I9I9I9I9I9I9I9I9I9I9I9I9I9I9I9I9I9I9I9m6l6k6j6i6h6g6f6e6d6                  ",
"    I9I9I9x7c6b6I9I9I9I9I9I9I9I9I9I9I9I9I9I9I9I9I9I9I9I9:8a6Z6Y6X6W6V6U6T6S6R6                  ",
"    Q6I9I9P6O6I9I9I9I9I9I9I9I9I9I9I9I9I9I9I9I9I9I9I9I9:9N6M6L6K6J6I6H6G6F6E6D6                  ",
"    C6I9I9x7n6I9I9I9I9I9I9I9I9I9I9I9I9I9I9I9I9I9I9I9I9B6A6;6:69686766656463626                  ",
"      16I9P6n6I9I9I9I9I9I9I9I9I9I9I9I9I9I9I9I9I9I9I906z5y5x5w5v5u5t5s5r5q5;8p5                  ",
"      o5I9x7n5I9I9I9I9I9I9I9I9I9I9I9I9I9I9I9I9I9I9m5l5k5j5i5h5g5f5e5d5c5:8I9b5                  ",
"        I9P616I9I9I9I9I9I9I9I9I9I9I9I9I9I9I9I9I9a5Z5Y5X5W5V5U5T5S5R5Q5P5I9I9O5                  ",
"        N5P6M5I9I9I9I9I9I9I9I9I9I9I9I9I9I9I9I9:8L5K5J5I5H5G5F5E5D5C5D7I9I9I9B5                  ",
"          P6A5I9I9I9I9I9I9I9I9I9I9I9I9I9I9I9:9;5:5958575655545352515I9I9I9I9d8N5                ",
"          05n6I9I9I9I9I9I9I9I9I9I9I9I9I9I9:9h7z4y4x4w4v4u4t4s4r4h7:9I9I9I9I9q4p4                ",
"          o4O8I9I9I9I9I9I9I9I9I9I9I9I9I9I9n4m4l4k4j4i4h4g4f4e4d4:9I9I9I9I9I9c4I9l8              ",
"            n6I9I9I9I9I9I9I9I9I9I9I9I9I9b4a4Z4Y4X4W4V4U4T4S4R4:8I9I9I9I9I9I9f8I9Q4              ",
"            P4I9I9I9I9I9I9I9I9I9I9I9I9z6O4N4M4L4h4K4J4I4H4G4m6I9I9I9I9I9I9I9j8I9I9              ",
"            F4I9I9I9I9I9I9I9I9I9I9I9m6E4D4C4B4K4A4;4:49484P5I9I9I9I9I9I9I9I974I9I964            ",
"            n6I9I9I9I9I9I9I9I9I9I9544434C424K4A4A41404z3y3I9I9I9I9I9I9I9I9I9j8I9I9I9            ",
"            07I9I9I9I9I9I9I9I9I9I9x3w3v3u3A4A4A4t3s3r3T7I9I9I9I9I9I9I9I9I9I974I9I9I9j8          ",
"            A5I9I9I9I9I9I9I9I9I9I936q3p3o3A4A4n3m3l3k3:9I9I9I9I9I9I9I9I9I9I9j3i3I9I9h3          ",
"            M5I9I9I9I9I9I9I9I9I9I9;5g3f3e3d3c3b3a3q5:9I9I9I9I9I9I9Z3Y3Y317I9X3W3I9:9V3          ",
"            F4I9I9I9I9I9I9I9I9I9I9q5U3T3S3R3Q3P3O3m6I9I9I9I9h3N3M3L3K3J3I3H3G3F3E3              ",
"            07I9I9I9I9I9I9I9I9I9:9O3D3C3B3A3;3:3z6I9I9I9I9I99383K37363534333231303z2            ",
"            n6I9I9I9I9I9I9I9I9I9:8y2x2w2v2u2t2m6I9I9I9I9I9s2r2q2p2o2n2m2l2k2j2i2J3h2g2f2        ",
"            n6I9I9I9I9I9I9I9I9I9:8e2d2c2P5:9I9I9I9I9I9I9I9b2a2Z2Y2X2W2V2U2T2S2R2Q2P2O2N2M2      ",
"            07I9I9I9I9I9I9I9I9I9I9m6P5:9I9I9I9i7L2:9;8;8K2J2I2H2G2F2E2D2C2B2    A2;2:2  928272  ",
"            n5I9I9I9i7L2;8P9K2b66216n6524232221202z1y1x1w1v1u1t1s1r1q1p1o1n1    m1l1k1          ",
"            P6A8j1i1h1o6g1f1e1d1d1c1b1a1Z1Y1X1W1V1d8d8U1T1S1u1t1s1R1Q1P1O1N1    M1L1K1J1        ",
"                        I1l8H1G1F1E1D1C1B1A1;1:191          81716151            41312111        ",
"                        01I9I9I9I9i7:9;8z0y0                x0Z2w0v0          u0t0s0r0q0        ",
"                        p0I9I9I9I9I9o0                n0m0l0k0j0i0h0        g0f0e0d0c0b0        ",
"                          a0I9Z0q4                        Y0X0W0V0U0T0S0R0Q0P0O0N0M0L0K0        ",
"                          J0I0                                H0G0F0K0E0D0C0B0A0;0:09080        ",
"                                                                  706050q0L04030;29080          ",
"                                                                  N220  10K0000010              ",
"                                                                    M2                          ",
"                                                                                                ",
"                                                                                                "};
