/* XPM */
static char *image[] = {
"48 48 111 2",
"   c None",
"00 c #414141",
"10 c #212121",
"20 c #4c4c4c",
"30 c #121212",
"40 c #161616",
"50 c #323232",
"60 c #373737",
"70 c #525252",
"80 c #4d4d4d",
"90 c #070707",
":0 c #dd5800",
";0 c #f66300",
"A0 c #fb6500",
"B0 c #e85d00",
"C0 c #f46100",
"D0 c #fe6500",
"E0 c #f66200",
"F0 c #383838",
"G0 c #020202",
"H0 c #0d0d0d",
"I0 c #4e4e4e",
"J0 c #d65600",
"K0 c #ed5f00",
"L0 c #f46200",
"M0 c #de5900",
"N0 c #535353",
"O0 c #101010",
"P0 c #f56200",
"Q0 c #983d00",
"R0 c #f96300",
"S0 c #c34e00",
"T0 c #d55500",
"U0 c #e45b00",
"V0 c #ba4a00",
"W0 c #3b3b3b",
"X0 c #0c0500",
"Y0 c #2e1200",
"Z0 c #371600",
"a0 c #491d00",
"b0 c #3a3a3a",
"c0 c #0b0b0b",
"d0 c #252525",
"e0 c #fa6400",
"f0 c #c64f00",
"g0 c #fe6600",
"h0 c #474747",
"i0 c #222222",
"j0 c #c44e00",
"k0 c #ce5200",
"l0 c #434343",
"m0 c #2b2b2b",
"n0 c #181818",
"o0 c #464646",
"p0 c #f26100",
"q0 c #0c0c0c",
"r0 c #d95700",
"s0 c #db5800",
"t0 c #ec5e00",
"u0 c #262626",
"v0 c #2d2d2d",
"w0 c #f06000",
"x0 c #fc6500",
"y0 c #515151",
"z0 c #141414",
"01 c #0e0e0e",
"11 c #444444",
"21 c #eb5e00",
"31 c #fb6400",
"41 c #111111",
"51 c #010101",
"61 c #1e1e1e",
"71 c #5f5f5f",
"81 c #f76300",
"91 c #ff6600",
":1 c #f96400",
";1 c #393939",
"A1 c #151515",
"B1 c #040404",
"C1 c #030303",
"D1 c #2a2a2a",
"E1 c #e35b00",
"F1 c #fd6500",
"G1 c #e25a00",
"H1 c #404040",
"I1 c #242424",
"J1 c #090909",
"K1 c #080808",
"L1 c #282828",
"M1 c #454545",
"N1 c #f86300",
"O1 c #3f3f3f",
"P1 c #060606",
"Q1 c #171717",
"R1 c #1f1f1f",
"S1 c #3c3c3c",
"T1 c #3d3d3d",
"U1 c #202020",
"V1 c #131313",
"W1 c #1a1a1a",
"X1 c #050505",
"Y1 c #484848",
"Z1 c #424242",
"a1 c #333333",
"b1 c #005300",
"c1 c #009200",
"d1 c #00ff00",
"e1 c #000000",
"f1 c #003e00",
"g1 c #006d00",
"h1 c #002f00",
"                                                                                                ",
"                                                                                                ",
"                h1g1g1g1g1g1f1e1                                                                ",
"                g1d1d1d1d1d1c1e1                                                                ",
"                g1d1d1d1d1d1c1e1                                                                ",
"                g1d1d1d1d1d1c1e1                                                                ",
"                g1d1d1d1d1d1c1e1                                                                ",
"                g1d1d1d1d1d1c1e1                                                                ",
"                f1c1c1c1c1c1b1e1                                                                ",
"                  e1e1e1e1e1e1                                                                  ",
"                    e1e1                                                                        ",
"                    e1e1                                                                        ",
"      e1e1e1e1e1e1e1e1e1e1e1e1e1e1e1e1e1e1e1e1e1e1e1e1e1e1e1a1Z1Y1                              ",
"        e1e1e1e1e1e1e1e1e1e1e1e1e1e1e1e1e1e1e1e1e1e1e1e1e1e1X1W1V1U1T1                          ",
"                    e1e1                                      S1R1Q1P1V1O1                      ",
"                    e1e1                      N1                  M1L1K1J1I1H1                  ",
"                    e1e1                    G1F1E1                  Y1D1C1B1A1;1                ",
"                    e1e1                    :19181                    7161e15141Z1              ",
"                    e1e1                  3191N19121                    1101e1e1z0y0            ",
"                    e1e1                  x091  91w0                      v0C1e1e1u0            ",
"                    e1e1                  91t0  s091r0                    11q0e1e1J1M1          ",
"                    e1e1                F191      91p0                    o0n0e1e1e1m0l0        ",
"                    e1e1                91E1      k091j0                    i0e1e1e1n0h0        ",
"                    e1e1              g091f0        91e0        e1e1        d0e1e1e1c0b0        ",
"                    e1e1e1e1e1e1e1e1e1e1e1e1e1e1e1e1e1e1e1e1e1e1e1  e1e1    d0e1e1e1J1;1        ",
"                    e1e1e1e1e1e1e1e1a0Z0e1e1e1e1e1e1e1Y0a0X0e1e1e1  e1e1    d0e1e1e1q0W0        ",
"                    e1e1          V091U0              T091S0    e1e1        d0e1e1e1n0M1        ",
"                    e1e1          81R0Q0                P091              11O0e1e1e1L1N0        ",
"                    e1e1        M0F1L0                  K091J0            I0H0e1e1G0F0L1        ",
"                    e1e1        E091D0L0C0P081:1e0e0e0N1F191C0            T1J1e1e1V1y0          ",
"                    e1e1      B0A0:1E0L0L0P0E0;0818181;0P0L0C0:0          u0e1e190b0            ",
"                    e1e1                                                8041e1B1L170            ",
"                    e1e1                                                I1e1X1U1T1              ",
"                    e1e1                                              a1K1P1i060                ",
"                    e1e1                                            D1c0K1v0l0                  ",
"                    e1e1                                        Z1n0P101b050                    ",
"                    e1e1                                    b0C1H0O050                          ",
"      e1e1e1e1e1e1e1e1e1e1e1e1e1e1e1e1e1e1e1e1e1e1e1e1c040W1J13020                              ",
"        e1e1e1e1e1e1e1e1e1e1e1e1e1e1e1e1e1e1e1e1e1e1e11000I0                                    ",
"                    e1e1                                                                        ",
"                    e1e1                                                                        ",
"                  e1e1e1e1e1                                                                    ",
"                  e1      e1                                                                    ",
"                  e1    e1                                                                      ",
"                    e1e1e1                                                                      ",
"                    e1e1                                                                        ",
"                                                                                                ",
"                                                                                                "};
