/* XPM */
static char *image[] = {
"22 22 243 2",
"   c None",
"00 c #8f5902",
"10 c #8b5603",
"20 c #94600e",
"30 c #c38b31",
"40 c #9c6306",
"50 c #8e5903",
"60 c #945f0a",
"70 c #ad8138",
"80 c #c7933e",
"90 c #996109",
":0 c #945d03",
";0 c #a5772b",
"A0 c #c09348",
"B0 c #915c06",
"C0 c #2b3b52",
"D0 c #313c46",
"E0 c #353d40",
"F0 c #373f42",
"G0 c #37424c",
"H0 c #334358",
"I0 c #925f0c",
"J0 c #84652c",
"K0 c #394247",
"L0 c #444f5c",
"M0 c #647791",
"N0 c #849ab4",
"O0 c #8ca0b9",
"P0 c #7c8da1",
"Q0 c #5a656f",
"R0 c #414a51",
"S0 c #3d464c",
"T0 c #67727c",
"U0 c #889bb9",
"V0 c #aebace",
"W0 c #828e9c",
"X0 c #475259",
"Y0 c #7b7b78",
"Z0 c #7b7c78",
"a0 c #767772",
"b0 c #33445c",
"c0 c #505b69",
"d0 c #91a4be",
"e0 c #a3a5a9",
"f0 c #939ca2",
"g0 c #aab3bc",
"h0 c #747e87",
"i0 c #6d7882",
"j0 c #d2d3cf",
"k0 c #f0f0ef",
"l0 c #868783",
"m0 c #3c4850",
"n0 c #8b98ab",
"o0 c #969a9c",
"p0 c #909292",
"q0 c #8f918f",
"r0 c #999b98",
"s0 c #bcbdbb",
"t0 c #d5d6d7",
"u0 c #d0d6dd",
"v0 c #b8c0ca",
"w0 c #616b70",
"x0 c #e2e2de",
"y0 c #d9d9d4",
"z0 c #e6e7e2",
"01 c #bebebb",
"11 c #4b5052",
"21 c #adb9cb",
"31 c #7e868b",
"41 c #a3a6a7",
"51 c #d2d3d1",
"61 c #e8e8e7",
"71 c #eeeeec",
"81 c #e8e9e7",
"91 c #e1e2e0",
":1 c #d1d6d9",
";1 c #bec7d1",
"A1 c #696d6c",
"B1 c #acbb7b",
"C1 c #9eb35a",
"D1 c #b0c078",
"E1 c #7c7e78",
"F1 c #515658",
"G1 c #b7c3d0",
"H1 c #515a62",
"I1 c #e7e9ea",
"J1 c #dddedb",
"K1 c #d8d8d4",
"L1 c #d5d5d0",
"M1 c #bcbdb0",
"N1 c #a4a39a",
"O1 c #b9bdb7",
"P1 c #b2bcb8",
"Q1 c #6e7271",
"R1 c #9a8d8e",
"S1 c #9a9c74",
"T1 c #a5ba5c",
"U1 c #f5f6f3",
"V1 c #7e7e7b",
"W1 c #4b565c",
"X1 c #9aa7b8",
"Y1 c #586674",
"Z1 c #d4d6d8",
"a1 c #c0c7a9",
"b1 c #9fb36b",
"c1 c #8ba148",
"d1 c #988e8f",
"e1 c #e7e6ea",
"f1 c #d6dae3",
"g1 c #b0b4c1",
"h1 c #71797e",
"i1 c #9a8f8c",
"j1 c #aabe5e",
"k1 c #e1e6cf",
"l1 c #abaca8",
"m1 c #46576b",
"n1 c #6b7680",
"o1 c #8f9dad",
"p1 c #9fa8b0",
"q1 c #adbc8b",
"r1 c #7e9c33",
"s1 c #8f976c",
"t1 c #b9b1b9",
"u1 c #f1eeed",
"v1 c #c6b8af",
"w1 c #8e8d8b",
"x1 c #846d5a",
"y1 c #dbc8bd",
"z1 c #a1998b",
"02 c #c4c6a3",
"12 c #dadad8",
"22 c #7b7b76",
"32 c #576167",
"42 c #87929f",
"52 c #a7afbb",
"62 c #b7c3c3",
"72 c #808d6f",
"82 c #eaeaed",
"92 c #d1d2d9",
":2 c #cbbcae",
";2 c #aba69f",
"A2 c #777971",
"B2 c #e2921f",
"C2 c #ca7920",
"D2 c #f1eff0",
"E2 c #eeebed",
"F2 c #a09493",
"G2 c #f6f6f6",
"H2 c #7d7e79",
"I2 c #61686d",
"J2 c #7b838a",
"K2 c #b8c1cd",
"L2 c #bbc3c6",
"M2 c #d1d7e0",
"N2 c #c4ccd7",
"O2 c #91908c",
"P2 c #777871",
"Q2 c #e0c855",
"R2 c #e9af33",
"S2 c #d1821f",
"T2 c #efedee",
"U2 c #ece9eb",
"V2 c #a19592",
"W2 c #f6f7ed",
"X2 c #949591",
"Y2 c #5e6a75",
"Z2 c #737b80",
"a2 c #747876",
"b2 c #757977",
"c2 c #6f757a",
"d2 c #737279",
"e2 c #dca151",
"f2 c #d9932e",
"g2 c #e1a54c",
"h2 c #dbc2a9",
"i2 c #a8a191",
"j2 c #c5ca90",
"k2 c #eaeed1",
"l2 c #cbccca",
"m2 c #b3b3b0",
"n2 c #d2dab7",
"o2 c #93ad42",
"p2 c #ffffff",
"q2 c #fcfbfc",
"r2 c #8e7c87",
"s2 c #e6e2e4",
"t2 c #f3f2f3",
"u2 c #9b8c91",
"v2 c #d2dc9a",
"w2 c #e0e6b9",
"x2 c #edefdc",
"y2 c #848580",
"z2 c #f4f5f0",
"03 c #9db450",
"13 c #9d9b7d",
"23 c #9c9090",
"33 c #9b8d8e",
"43 c #a8a685",
"53 c #a69b97",
"63 c #a99e9f",
"73 c #c9c5c0",
"83 c #efefed",
"93 c #f5f5f4",
":3 c #7a7b76",
";3 c #7e7e7a",
"A3 c #ededec",
"B3 c #b9c984",
"C3 c #bbca84",
"D3 c #ced7ab",
"E3 c #dee1cd",
"F3 c #e8e8e4",
"G3 c #ededea",
"H3 c #f3f3f2",
"I3 c #f9f9f7",
"J3 c #fdfdfd",
"K3 c #f9f9f9",
"L3 c #e3e3e1",
"M3 c #afafac",
"N3 c #7e7f7a",
"O3 c #787874",
"P3 c #cdcdcb",
"Q3 c #f2f2f1",
"R3 c #eaeae8",
"S3 c #f1f1f0",
"T3 c #f7f7f6",
"U3 c #fcfcfc",
"V3 c #f8f8f7",
"W3 c #e2e2e1",
"X3 c #bdbdbb",
"Y3 c #888984",
"Z3 c #7d7e7a",
"a3 c #91928f",
"b3 c #fbfbfa",
"c3 c #f6f6f5",
"d3 c #dfe0de",
"e3 c #babbb7",
"f3 c #878883",
"g3 c #7e7e79",
"h3 c #7d7f7a",
"i3 c #80807b",
"j3 c #777873",
"k3 c #7c7d79",
"l3 c #7c7c79",
"                    l3k3j3i3                ",
"            h3g3f3e3d3c3b3a3                ",
"    h3Z3Y3X3W3V3U3T3S3R3Q3P3O3              ",
"N3M3L3K3J3I3H3G3F3E3D3C3B3A3;3              ",
":3J39383R37363534333231303z2y2              ",
"N3S3x2w2v2u2t2s2r2q2p223o2n2m2              ",
"  l2k2j2i2r2h2g2f2e2d2c2b2a2Z2Y2            ",
"  X2W2V2U2T2S2R2Q2P2O2N2M2L2K2J2I2          ",
"  H2G2F2E2D2C2B2A2;2:292827262524232        ",
"  221202z1r2y1x1w1v1u1t1s1r1q1p1o1n1m1      ",
"    l1k1j1i1p2h1g1f1e1d1c1b1a1Z1Y1X1W1      ",
"    V1U1T1S1R1Q1P1O1N1M1L1K1J1I1H1G1F1      ",
"    E1L3D1C1B1A1;1:1918171615141312111      ",
"      01z0y0x0w0v0u0t0s0r0q0p0o0  n0m0      ",
"      l0k0R3j0i0h0g0f0e0        d0c0b0      ",
"      g3a0Z0Y0  X0W0V0        U0T0S0        ",
"                  R0Q0P0O0N0M0L0K0J0I0      ",
"                    H0G0F0E0D0C0  B0A0;0:0  ",
"                                    90807060",
"                                    50403020",
"                                      1000  ",
"                                            "};
