/* XPM */
static char *image[] = {
"22 22 171 2",
"   c None",
"00 c #5e4667",
"10 c #715279",
"20 c #74507b",
"30 c #74517b",
"40 c #72537b",
"50 c #604a6b",
"60 c #73547b",
"70 c #74567d",
"80 c #746f77",
"90 c #858782",
":0 c #838580",
";0 c #73547c",
"A0 c #cebbce",
"B0 c #dcd9db",
"C0 c #d1d0cf",
"D0 c #b3b3b1",
"E0 c #dcd9da",
"F0 c #d1bed1",
"G0 c #f4f3f5",
"H0 c #6e557a",
"I0 c #cfbcd0",
"J0 c #dededc",
"K0 c #dadad8",
"L0 c #d1bed0",
"M0 c #826f8d",
"N0 c #e5e6e5",
"O0 c #74557d",
"P0 c #dddbde",
"Q0 c #e3e3e1",
"R0 c #d2d2d0",
"S0 c #6d6d6c",
"T0 c #e2dfe0",
"U0 c #785a81",
"V0 c #c5c7c4",
"W0 c #eaeaea",
"X0 c #cccbca",
"Y0 c #e4e4e2",
"Z0 c #ebebe9",
"a0 c #c2c2c1",
"b0 c #787878",
"c0 c #e6e6e4",
"d0 c #dad9d8",
"e0 c #d3d2d6",
"f0 c #cccecb",
"g0 c #c0c2bf",
"h0 c #75517b",
"i0 c #c1c1c0",
"j0 c #e2e2e0",
"k0 c #b7b7b6",
"l0 c #868686",
"m0 c #f7f7f5",
"n0 c #f3f3f1",
"o0 c #d3d2d2",
"p0 c #75527c",
"q0 c #dcdbdf",
"r0 c #a9aca8",
"s0 c #c4c6c3",
"t0 c #ececec",
"u0 c #75567e",
"v0 c #dddadc",
"w0 c #eaeae8",
"x0 c #f0f0ee",
"y0 c #f6f6f4",
"z0 c #a9a9a8",
"01 c #ededeb",
"11 c #f5f5f3",
"21 c #eae7e8",
"31 c #795b82",
"41 c #a9aaa7",
"51 c #dddedd",
"61 c #6f567b",
"71 c #cebbcf",
"81 c #e7e7e5",
"91 c #efefed",
":1 c #f4f4f2",
";1 c #f1f1ef",
"A1 c #9e9e9d",
"B1 c #f2f2f0",
"C1 c #d0bdd0",
"D1 c #82708e",
"E1 c #c8c9c7",
"F1 c #d1d2d0",
"G1 c #abaeaa",
"H1 c #e8e9e8",
"I1 c #75557e",
"J1 c #cdbacd",
"K1 c #dbd8da",
"L1 c #e5e5e4",
"M1 c #d3d2d1",
"N1 c #d2cfd0",
"O1 c #cfbdd0",
"P1 c #c7aac6",
"Q1 c #7c5f86",
"R1 c #e3e3e5",
"S1 c #eeeeee",
"T1 c #efefef",
"U1 c #f0f0f0",
"V1 c #e0e0df",
"W1 c #b7b9b6",
"X1 c #f1f1f1",
"Y1 c #75577e",
"Z1 c #dcc0d9",
"a1 c #d6b9d3",
"b1 c #b090b1",
"c1 c #7d5f86",
"d1 c #c4bdc9",
"e1 c #f2f2f2",
"f1 c #f3f3f3",
"g1 c #d9dad9",
"h1 c #d8dad8",
"i1 c #878984",
"j1 c #9885a1",
"k1 c #7b5d84",
"l1 c #76527c",
"m1 c #7d6086",
"n1 c #917e9b",
"o1 c #f0f0f1",
"p1 c #f6f6f6",
"q1 c #fcfcfc",
"r1 c #f4f4f4",
"s1 c #e2e4e2",
"t1 c #c7c7c6",
"u1 c #c8c8c8",
"v1 c #f8f8f8",
"w1 c #fbfbfb",
"x1 c #fdfdfd",
"y1 c #f7f7f7",
"z1 c #cbcbca",
"02 c #bbbbba",
"12 c #b4b4b3",
"22 c #c0c0bf",
"32 c #c5c5c4",
"42 c #cdcecc",
"52 c #acadaa",
"62 c #b0b0af",
"72 c #f5f5f5",
"82 c #fafafa",
"92 c #d0d0cf",
":2 c #c0c1bf",
";2 c #b2b2b1",
"A2 c #b8b9b7",
"B2 c #c9cac9",
"C2 c #d2d2d2",
"D2 c #a6a7a5",
"E2 c #b0b1af",
"F2 c #d3d3d3",
"G2 c #d8d8d8",
"H2 c #e3e3e3",
"I2 c #e5e5e5",
"J2 c #d5d5d5",
"K2 c #d7d7d7",
"L2 c #d9d9d9",
"M2 c #dcdcdc",
"N2 c #dedede",
"O2 c #e7e7e7",
"P2 c #dadada",
"Q2 c #dbdbdb",
"R2 c #dddddd",
"S2 c #e0e0e0",
"T2 c #e1e1e1",
"U2 c #e2e2e2",
"V2 c #e4e4e4",
"W2 c #e6e6e6",
"X2 c #e8e8e8",
"Y2 c #e9e9e9",
"Z2 c #ebebeb",
"a2 c #ededed",
"b2 c #ffffff",
"c2 c #abaca9",
"d2 c #888a85",
"                d2d2d2d2d2                  ",
"              c2b2b2b2b2b2d2                ",
"            d2b2a2a2Z2Y2X2b2d2              ",
"          d2b2a2Z2Y2W2V2U2T2b2d2            ",
"        d2b2Z2Y2W2V2U2S2R2Q2P2b2d2          ",
"      d2b2Y2O2V2U2S2N2M2L2K2J2J2b2d2        ",
"    d2b2O2I2H2T2N2M2P2G2J2F2E2D2C2b2d2      ",
"  d2b2B2H2T2N2M2P2G2A2;2:29282726252b2d2    ",
"  d2b24232M2221202z1y1x1w1v1v1v1u1t1b2d2    ",
"  d2b2s12232r1q1w1v1p1p1o1n1m1l1l1k1j1i1    ",
"  d2b272h1g1p172r1f1e1d1c1b1a1Z1Z1a1b1Y1    ",
"  d2b2f1X1W1V1U1T1S1R1Q1P1O1N1M1L1K1J1P1I1  ",
"  d2b2X1X1H1G1F1E1E1D1b1C1B1A1;1:1918171b161",
"  d2b2T1T1S15141d2i131a1211101z0y0x0w0v0a1u0",
"  d2b2a2a2t0s0r0p1q0p0Z1o0n0m0l0k091j0i0Z1h0",
"  d2b2Z2Z2g0f0f1X2e0p0Z1d091c0b0a0Z0Y0X0Z1h0",
"  d2b2W0V0r1t0O2W2I2U0a1T0w0S0R0w081Q0P0a1O0",
"  d2b2N0r1O2W2W2I2I2M0b1L0Q0K0J0Y0j0J0I0b1H0",
"  d2b2b2b2b2b2b2b2b2G0U0P1F0E0D0C0B0A0P1;0  ",
"  :0d2d2d2d2d2d2d2d2908070b1a1Z1Z1a1b160    ",
"                          504030201000      ",
"                                            "};
