/* XPM */
static char *image[] = {
"22 22 127 2",
"   c None",
"00 c #000000",
"10 c #232729",
"20 c #1e2223",
"30 c #8d8f8a",
"40 c #777976",
"50 c #444542",
"60 c #484946",
"70 c #4e504d",
"80 c #4f514e",
"90 c #747672",
":0 c #7a7c77",
";0 c #82847f",
"A0 c #8a8d87",
"B0 c #6c6d6a",
"C0 c #292a28",
"D0 c #363734",
"E0 c #848681",
"F0 c #757671",
"G0 c #5c5e59",
"H0 c #545652",
"I0 c #a6a9a2",
"J0 c #2a2b29",
"K0 c #3c3d3b",
"L0 c #858782",
"M0 c #4c4f4d",
"N0 c #242728",
"O0 c #454746",
"P0 c #797b76",
"Q0 c #a8aba5",
"R0 c #373836",
"S0 c #7d7f7a",
"T0 c #4c4e4d",
"U0 c #909394",
"V0 c #292d30",
"W0 c #202526",
"X0 c #181b1d",
"Y0 c #424442",
"Z0 c #8b8c89",
"a0 c #a9aca5",
"b0 c #40413f",
"c0 c #272c2d",
"d0 c #282c2e",
"e0 c #282d2f",
"f0 c #a6a7a8",
"g0 c #898b86",
"h0 c #565854",
"i0 c #242627",
"j0 c #202426",
"k0 c #a5a7a8",
"l0 c #dadbdb",
"m0 c #161718",
"n0 c #8a8c87",
"o0 c #686a66",
"p0 c #848682",
"q0 c #535551",
"r0 c #444745",
"s0 c #171a1c",
"t0 c #181b1c",
"u0 c #151718",
"v0 c #0f1112",
"w0 c #3d3f3d",
"x0 c #90928e",
"y0 c #50524e",
"z0 c #60625e",
"01 c #696b67",
"11 c #646662",
"21 c #868884",
"31 c #696b66",
"41 c #414342",
"51 c #181a1a",
"61 c #161817",
"71 c #3e3f3d",
"81 c #6b6c69",
"91 c #585a56",
":1 c #61635f",
";1 c #6a6c68",
"A1 c #656763",
"B1 c #878985",
"C1 c #555753",
"D1 c #5d5e5a",
"E1 c #8a8c88",
"F1 c #8b8d88",
"G1 c #979995",
"H1 c #666763",
"I1 c #dadbd9",
"J1 c #626460",
"K1 c #5f615d",
"L1 c #575955",
"M1 c #6b6d69",
"N1 c #6f716d",
"O1 c #71736f",
"P1 c #888a86",
"Q1 c #787a76",
"R1 c #afb1ad",
"S1 c #babbb9",
"T1 c #636561",
"U1 c #6d6f6b",
"V1 c #aaada7",
"W1 c #a4a6a0",
"X1 c #a0a39d",
"Y1 c #7b7d79",
"Z1 c #7c7e7a",
"a1 c #7d7f7b",
"b1 c #7e807c",
"c1 c #80827e",
"d1 c #828480",
"e1 c #8d8f8b",
"f1 c #898b87",
"g1 c #afb1ab",
"h1 c #b1b4ae",
"i1 c #a2a59f",
"j1 c #6e706c",
"k1 c #70726e",
"l1 c #727470",
"m1 c #737571",
"n1 c #757773",
"o1 c #7f817d",
"p1 c #adb0aa",
"q1 c #6c6e6a",
"r1 c #ffffff",
"s1 c #fdfdfd",
"t1 c #2e3436",
"u1 c #f9f9f9",
"v1 c #ebebeb",
"w1 c #ececec",
"x1 c #888a85",
"                                            ",
"                                            ",
"                                            ",
"                x1x1x1x1x1x1                ",
"                x1w1v1v1u1x1                ",
"          t1t1t1x1s1s1s1r1x1t1              ",
"    t1t1t1t1q1p1o1n1m1l1k1j1i1t1t1t1t1t1    ",
"    t1h1g1g1g1f1e1d1c1b1a1Z1Y1X1W1W1W1t1    ",
"    t1V1U1T1S1R1Q1P1O1N1U1M1L1K1m1P1c1t1    ",
"    t1V1M1J1R1I1H1G1F1E1P1D1L1C1B1A1N1t1    ",
"    t1V1;1:19181F171615141P131C12111N1t1    ",
"    t1V101z0y0x0w0v0u0t0s0r0B1q0p0J1j1t1    ",
"    t1V1o0K1:1n0m0u0l0k0j0i0x1h0Q1:1j1t1    ",
"    t1V1;1:1;1g051t0f0e0d0c021b0k111N1t1    ",
"    t1a001z0L1Z0Y0X0W0V0U0T0S0R0A1J1j1t1    ",
"    t1Q0o0K1L1P0P1O0N0c0M0L0K0J011Q1N1t1    ",
"    t1I0o0o0o0H0G0F0E0E0D1D0C0H0o0Q1B0t1    ",
"    t1L0A0;0:090M1T180706050M14030A0Y1t1    ",
"    20t1t1t1t1t1t1t1t1t1t1t1t1t1t1t1t110    ",
"            00      00000000000000          ",
"                                            ",
"                                            "};
