/* XPM */
static char *image[] = {
"64 64 2 1",
"0 c #ffffff",
"1 c #000000",
"1111111111111111111111111111111111111111111111111111111111111111",
"1111111111111111111111111111111111111111111111111111111111111111",
"1111111111111111111111111111111111111111111111111111111111111111",
"1111111111111111111111111111111111111111111111111111111111111111",
"1111111111111111111111111111111111111111111111111111111111111111",
"1111111111111111111111111111111101010110111111111111111111111111",
"1111111111111111111111111111010101101011101101111111111111111111",
"1111111111111111111111111010101010101100110110110111111111111111",
"1111111111111111111111101010100100101011011011011111111111111111",
"1111111111111111111110101000010011011010101010101010111111111111",
"1111111111111111111101100101001101010110110111011011010111111111",
"1111111111111111110110001001110101011011111010101101101101111111",
"1111111111111111101001010110010111101110101111111110110110110111",
"1111111111111111011101010101111010010000010001010111111111011111",
"1111111111111110110010110111011101100001000000001001011011110111",
"1111111111111111011101011111101011011000000000000000101111011111",
"1111111111111010101011111010110101001010000000000010010101110111",
"1111111111111101110111011010101010101010000000000000000111011111",
"1111111111101011011011101010010101010101000000000000100101110111",
"1111111111111110110110100010101010101010110000000010001110111111",
"1111111111010101100101001001010101011111101000000000010101101111",
"1111111111111110001110100101010101010110111000000000010110111111",
"1111111110101010010100011010101010011111111000000001011011111111",
"1111111111011000001011010110110100000111011000000000101101111111",
"1111111010110100010101011011010000010111111100000000101011111111",
"1111111111010000001011101101101101001011011100000001010111111111",
"1111111011000000010111111011010100010111110100000010111011111111",
"1111110110101000011110111110111001011101111100000011001111111111",
"1111111010000000001011111011101101010111011100000100111111111111",
"1111101101010000011111111110111110110101110100001011101111111111",
"1111110100000000001111101111101011011011011000010101011111111111",
"1111011010100000001110111110111101101101111000101110111111111111",
"1111101010001001001111111111110110110110110010101011111111111111",
"1110110100100000000111101101111101101011101010101101111111111111",
"1111010101000100000010111111101111011101101010110111111111111111",
"1101101010010000000011111110111101110111010101011111111111111111",
"1110110001010010000001101111110111101110101011010111111111111111",
"1111011110100100000000011101111110111101010101111111111111111111",
"1111101011010001000000001111011011110101011101111111111111111111",
"1110111111111101010000000001111110101010101011111111111111111111",
"1111101011010111011111010101000100101011011111111111111111111111",
"1111111111111101101001101010110110101101111111111111111111111111",
"1111110101111111110110110101010101010101111111111111111111111111",
"1111111011011111111111011101101010111111111111111111111111111111",
"1111111101110111111111111111011111111111111111111111111111111111",
"1111111111011011111111111111111111111111111111111111110111111111",
"1111111110110101011111111111111111111111111111111101011111111111",
"1111111111101110101111111111111111111111111111100101111111111111",
"1111111111111011101010111111111111111111111101011010111111111111",
"1111111111111101010101010111111111111111101010101111111111111111",
"1111111111111011111010101010101010101010001010110111111111111111",
"1111111111111111010110100100101010101001110110101111111111111111",
"1111111111111111110101111010010001001010101011111111111111111111",
"1111111111111111111110101011101110110111011101111111111111111111",
"1111111111111111111111101101011011011010110111111111111111111111",
"1111111111111111111111111110110101101111111111111111111111111111",
"1111111111111111111111111111111111011111111111111111111111111111",
"1111111111111111111111111111111111111111111111111111111111111111",
"1111111111111111111111111111111111111111111111111111111111111111",
"1111111111111111111111111111111111111111111111111111111111111111",
"1111111111111111111111111111111111111111111111111111111111111111",
"1111111111111111111111111111111111111111111111111111111111111111",
"1111111111111111111111111111111111111111111111111111111111111111",
"1111111111111111111111111111111111111111111111111111111111111111"};
