/* XPM */
static char *image[] = {
"64 64 193 2",
"   c None",
"00 c #3f3f3f",
"10 c #505050",
"20 c #2b2b2b",
"30 c #242424",
"40 c #1d1d1d",
"50 c #1a1a1a",
"60 c #0e0e0e",
"70 c #111111",
"80 c #0f0f0f",
"90 c #171717",
":0 c #181818",
";0 c #0d0d0d",
"A0 c #1e1e1e",
"B0 c #070707",
"C0 c #212121",
"D0 c #141414",
"E0 c #282828",
"F0 c #4b4b4b",
"G0 c #010101",
"H0 c #2d2d2d",
"I0 c #545454",
"J0 c #040404",
"K0 c #252525",
"L0 c #050505",
"M0 c #121212",
"N0 c #515151",
"O0 c #565656",
"P0 c #585858",
"Q0 c #6d6d6d",
"R0 c #020202",
"S0 c #4a4a4a",
"T0 c #555555",
"U0 c #595959",
"V0 c #6b6b6b",
"W0 c #5b5b5b",
"X0 c #080808",
"Y0 c #949494",
"Z0 c #1b1b1b",
"a0 c #e0e0e0",
"b0 c #5d5d5d",
"c0 c #090909",
"d0 c #373737",
"e0 c #202020",
"f0 c #727272",
"g0 c #232323",
"h0 c #2a2a2a",
"i0 c #7b7b7b",
"j0 c #ababab",
"k0 c #696969",
"l0 c #4f4f4f",
"m0 c #0b0b0b",
"n0 c #474747",
"o0 c #2e2e2e",
"p0 c #303030",
"q0 c #858585",
"r0 c #6f6f6f",
"s0 c #9f9f9f",
"t0 c #a5a5a5",
"u0 c #b4b4b4",
"v0 c #979797",
"w0 c #e7e7e7",
"x0 c #151515",
"y0 c #6a6a6a",
"z0 c #666666",
"01 c #343434",
"11 c #292929",
"21 c #444444",
"31 c #898989",
"41 c #8f8f8f",
"51 c #959595",
"61 c #a2a2a2",
"71 c #a8a8a8",
"81 c #4e4e4e",
"91 c #dddddd",
":1 c #f2f2f2",
";1 c #5c5c5c",
"A1 c #7d7d7d",
"B1 c #797979",
"C1 c #5a5a5a",
"D1 c #9d9d9d",
"E1 c #a4a4a4",
"F1 c #bebebe",
"G1 c #d1d1d1",
"H1 c #7a7a7a",
"I1 c #929292",
"J1 c #f3f3f3",
"K1 c #3d3d3d",
"L1 c #747474",
"M1 c #8a8a8a",
"N1 c #868686",
"O1 c #9b9b9b",
"P1 c #a1a1a1",
"Q1 c #a7a7a7",
"R1 c #aaaaaa",
"S1 c #383838",
"T1 c #3e3e3e",
"U1 c #808080",
"V1 c #989898",
"W1 c #9e9e9e",
"X1 c #a3a3a3",
"Y1 c #a9a9a9",
"Z1 c #afafaf",
"a1 c #b6b6b6",
"b1 c #bbbbbb",
"c1 c #c2c2c2",
"d1 c #dbdbdb",
"e1 c #e2e2e2",
"f1 c #414141",
"g1 c #404040",
"h1 c #8d8d8d",
"i1 c #acacac",
"j1 c #b1b1b1",
"k1 c #b8b8b8",
"l1 c #bdbdbd",
"m1 c #c3c3c3",
"n1 c #cacaca",
"o1 c #d8d8d8",
"p1 c #e3e3e3",
"q1 c #e9e9e9",
"r1 c #f4f4f4",
"s1 c #424242",
"t1 c #9a9a9a",
"u1 c #b3b3b3",
"v1 c #bababa",
"w1 c #bfbfbf",
"x1 c #c5c5c5",
"y1 c #cccccc",
"z1 c #e4e4e4",
"02 c #4d4d4d",
"12 c #000000",
"22 c #454545",
"32 c #a6a6a6",
"42 c #c1c1c1",
"52 c #c7c7c7",
"62 c #cdcdcd",
"72 c #d4d4d4",
"82 c #e1e1e1",
"92 c #efefef",
":2 c #f8f8f8",
";2 c #575757",
"A2 c #060606",
"B2 c #030303",
"C2 c #464646",
"D2 c #b2b2b2",
"E2 c #d5d5d5",
"F2 c #dedede",
"G2 c #ebebeb",
"H2 c #f5f5f5",
"I2 c #f9f9f9",
"J2 c #606060",
"K2 c #0c0c0c",
"L2 c #0a0a0a",
"M2 c #494949",
"N2 c #c0c0c0",
"O2 c #dcdcdc",
"P2 c #eaeaea",
"Q2 c #f0f0f0",
"R2 c #131313",
"S2 c #101010",
"T2 c #4c4c4c",
"U2 c #d2d2d2",
"V2 c #f1f1f1",
"W2 c #f6f6f6",
"X2 c #fbfbfb",
"Y2 c #717171",
"Z2 c #191919",
"a2 c #161616",
"b2 c #525252",
"c2 c #cfcfcf",
"d2 c #fafafa",
"e2 c #ffffff",
"f2 c #ededed",
"g2 c #686868",
"h2 c #1f1f1f",
"i2 c #1c1c1c",
"j2 c #3b3b3b",
"k2 c #3c3c3c",
"l2 c #7e7e7e",
"m2 c #adadad",
"n2 c #b7b7b7",
"o2 c #8b8b8b",
"p2 c #363636",
"q2 c #262626",
"r2 c #222222",
"s2 c #3a3a3a",
"t2 c #393939",
"u2 c #353535",
"v2 c #2f2f2f",
"w2 c #2c2c2c",
"x2 c #272727",
"y2 c #333333",
"z2 c #323232",
"                                                                                                                                ",
"                                                                                                                                ",
"                                                                                                                                ",
"                                                                                                                                ",
"                                                              z2y2                                                              ",
"                                                        x2w2v2z2u2t2s2                                                          ",
"                                                      r2q2p2o2n2m2l2s2k2j2                                                      ",
"                                                    i2h2g2f2e2e2e2d2c2b2k2j2                                                    ",
"                                                  a2Z2Y2X2e2e2e2d2W2V2U2T2k2s2                                                  ",
"                                                S2R2g2d2e2e2e2d2W2Q2P2O2N2M2k2s2                                                ",
"                                              L2K2J2I2e2e2e2d2H2Q2G2F2E2c2D2C2k2j2                                              ",
"                                            B2A2;2:2e2e2e2d2H292P282726252423222k2t2                                            ",
"                                          121202:2e2e2e2d2H292P2z172y1x1w1v1u1t1s1k2t2                                          ",
"                                        1212C2W2e2e2e2I2r192q1p1o1n1m1l1k1j1i132h1g1k2s2                                        ",
"                                      1212f1H2e2e2e2I2r1G2q1e1d1n1c1b1a1Z1Y1X1W1V1U1T1k2S1                                      ",
"                                    1212T1r1e2e2e2I2r1O2R182O2y1N2v1u1i1Q1P1O1N1h1M1L1K1k2t2                                    ",
"                                  1212t2J1e2e2e2I2r1f2I1H1d1G1F1k1j1R1E1D1V1I1C1g1B1A1;1t2k2S1                                  ",
"                                1212u2:1e2e2e2I2r1f2918181U2N2a1Z17161O1514131211101z0y0u2t2k2S1                                ",
"                              1212x0P2e2e2e2I2r1f2w0v0s1K1Y1u0m2t0s0v0r031q0U1p0q211o0n0z2u2t2k2S1                              ",
"                            1212m0m2e2e2e2I2r1f2w0O2l0K1p2k0j0X1D1i0h0R2g0;2f0e0g0q211w2v2z2u2t2k2d0                            ",
"                          1212c0b0n1e2e2I2r1f2w0a0D1K1S1Z0u2P1Y0C2m0K2S2R2a2g0i2h2g0q211w2v2z2u2t2k2                            ",
"                        1212X0W0V0z0J2b0U0T0b202S0g1S1o0R0m0Q0R2B2A2c0K2S2R2a2Z2i2h2g0q211w2v2z2u2t2k2                          ",
"                      1212A2P0V0z0J2W0O0N0T2n0s1K1S1z2M01212121212B2A2c0K2S2R2a2Z2i2h2g0q211w2v2z2u2t2k2                        ",
"                    1212L0O0V0z0J2W0O0N0T2n0s1K1S1z2K012121212121212B2A2c0K2S2R2a2Z2i2h2g0q211w2v2z2u2t2j2                      ",
"                  1212J0I0V0z0J2W0O0N0T2n0s1K1S1z2H0L21212121212121212B2A2c0K2S2R2a2Z2i2h2g0q211w2v2z2u2t2k2                    ",
"                1212B2N0V0z0J2W0O0N0T2n0s1K1S1z2H0i212121212121212121212B2A2c0K2S2R2a2Z2i2h2g0q211w2v2z2u2t2k2                  ",
"              1212R081V0z0J2W0O0N0T2n0s1K1S1z2H0x2L01212121212121212121212B2A2c0K2S2R2a2Z2i2h2g0q211w2v2z2u2t2k2                ",
"            1212G0F0V0z0J2W0O0N0T2n0s1K1S1z2H0E0D012121212121212121212121212B2A2c0K2S2R2a2Z2i2h2g0q211w2v2z2u2t2j2              ",
"            1212C2V0z0J2W0O0N0T2n0s1K1S1z2H0E0C0R01212121212121212121212121212B2A2c0K2S2R2a2Z2i2h2g0q211w2v2z2u2t2k2            ",
"          1212p0V0z0J2W0O0N0T2n0s1K1S1z2H0E0g0K212121212121212121212121212121212B2A2c0K2S2R2a2Z2i2h2g0q211w2v2z2u2t2t2          ",
"        1212J0k0z0J2W0O0N0T2n0s1K1S1z2H0E0g0Z2121212121212121212121212121212121212B2A2c0K2S2R2a2Z2i2h2g0q211w2v2z2u2t2u2        ",
"        1212B0b0J2W0O0N0T2n0s1K1S1z2H0E0g0A0B012121212121212121212121212121212121212B2A2c0K2S2R2a2Z2i2h2g0q211w2v2z2u2p2        ",
"        121212;0y2F0N0T2n0s1K1S1z2H0E0g0A0M0121212121212121212121212121212121212121212B2A2c0K2S2R2a2Z2i2h2g0q211w2v2z2z2        ",
"          1212121212L0M0A0E0p0z2H0E0g0A0:0B212121212121212121212121212121212121212121212B2A2c0K2S2R2a2Z2i2h2g0q211w2o0E0        ",
"              1212121212121212L0S290i2Z2m0121212121212121212121212121212121212121212121212B2A2c0K2S2R2a2Z2i2h2g0K0q2g0          ",
"                    121212121212121212B2G012121212121212121212121212121212121212121212121212B2A2c0K2S2R2a2Z2Z0i2A0:0            ",
"                          12121212121212121212121212121212121212121212121212121212121212121212B2A2c0K28070R2a2D0                ",
"                                1212121212121212121212121212121212121212121212121212121212121212B2L0X0L2m0L2                    ",
"                                G0R0R0R0R0R0G0G0R0R0R0R0R0R0R0R0R0R0R0R0R0R0R0R0R0R0R0R0R0R0R0R0R0J0J0R0                        ",
"                            A2B0B0B0B0B0B0B0A2      B2J0J0L0L0L0A2B0B0B0B0B0B0B0B0B0B0B0A2L0L0J0B2                              ",
"                        m0m0K2K2K2K2K2K2K2K2K2K2m0            B0X0K2K2K2K2K2K2K2K2K2K2c0X0B0B2                                  ",
"                      K280707070707070707070707070707060          70707070707070707070;0                                        ",
"                      608080M0D0a2a2a2a2a2a2a2a2a2a2a2a2a2a2x0x0a2a2a2a2a2a2a2a2a2a2x0                                          ",
"                        K2S27070M0x0:0505050505050505050505050505050505050505050505050Z0a2                                      ",
"                              S2M0R2R2D0Z240h2h2h2h2h2h2h2h2h2h2h2h2h2h2h2h2h2h2h2h2h2h2h2A0                Z0i2                ",
"                                  K2R2D0x0x0Z0r23030303030303030303030303030303030303030303030C0        C0303030K0e0            ",
"                                        60x0a2:0E0111111111111111111111111111111111111111111E0i2      909090Z29090:0            ",
"                                              Z2H0o0o0o0o0o0o0o0o0o0o0o0o0o0o0o0o0o0o0o0o0h0A0D0      D0a2a2x0a2a2a2            ",
"                                                z2y2y2y2y2y2y2y2y2y2y2y2y2y2y2y2y2y2H030i2Z2x0                                  ",
"                                  z2p2S1x2      S1S1S1S1S1S1S1S1S1S1S1S1S1S1S1S120i2Z2Z2x070      w2p0                          ",
"                              C0S1K1k2q2Z2    j2K1K1K1K1K1K1K1K1K1K1K1K1K1K1s2305090x0X0          A020q2                        ",
"                              e0Z0r240Z2:0  k2s1s1s1s1s1s1s1s1s1s1s1s1s1s1K140Z2R2                i25050A0                      ",
"                                Z0Z250a2  e0A0z2K122n0n0n0n0n0n0n0n0n0n0n0T1A0                      50R2                        ",
"                                            50Z2Z250H022T2T2T2T2T2T2T2T2T2f1                                                    ",
"                                              5040Z0:0C0101010101010101010T2                                                    ",
"                                                    :0h200T0T0T0T0T0T0T0T0N0u2K0                                                ",
"                                                        r2U0C1C1C1C1C1b2S1Z2x030                                                ",
"                                                        g030j2T1f1y2h2R2R2:050                                                  ",
"                                                          D070707070M0i2e0                                                      ",
"                                                            h2h2h240                                                            ",
"                                                                                                                                ",
"                                                                                                                                ",
"                                                                                                                                ",
"                                                                                                                                "};
