/* XPM */
static char *image[] = {
"48 48 715 2",
"   c None",
"00 c #b31a11",
"10 c #9f0704",
"20 c #e54c2f",
"30 c #cd3420",
"40 c #ce3520",
"50 c #d03620",
"60 c #d13620",
"70 c #d33720",
"80 c #d43820",
"90 c #d63920",
":0 c #d73920",
";0 c #d93a20",
"A0 c #da3b20",
"B0 c #dc3c20",
"C0 c #dd3c20",
"D0 c #df3d20",
"E0 c #e03e20",
"F0 c #e23e20",
"G0 c #e33f20",
"H0 c #e54020",
"I0 c #e64120",
"J0 c #e84120",
"K0 c #e94220",
"L0 c #eb4320",
"M0 c #ec4420",
"N0 c #ee4420",
"O0 c #ef4520",
"P0 c #f14620",
"Q0 c #f24720",
"R0 c #f44720",
"S0 c #f54820",
"T0 c #f74920",
"U0 c #f84a20",
"V0 c #fa4a20",
"W0 c #fb4b20",
"X0 c #fd4c20",
"Y0 c #fe4c20",
"Z0 c #ff4d20",
"a0 c #ff592f",
"b0 c #b31910",
"c0 c #cc2f1a",
"d0 c #a70800",
"e0 c #ac0b00",
"f0 c #c13b30",
"g0 c #cc4d40",
"h0 c #cf4e40",
"i0 c #d14f40",
"j0 c #d35040",
"k0 c #d55240",
"l0 c #ff481a",
"m0 c #b3170d",
"n0 c #cc2b15",
"o0 c #b12620",
"p0 c #da938f",
"q0 c #f5e0df",
"r0 c #ff4415",
"s0 c #b3150b",
"t0 c #cc2710",
"u0 c #c05450",
"v0 c #f9f0ef",
"w0 c #ff4010",
"x0 c #b31308",
"y0 c #cc230b",
"z0 c #b23330",
"01 c #ff3c0b",
"11 c #b31106",
"21 c #cc1f06",
"31 c #e7c0bf",
"41 c #ff3806",
"51 c #b30f03",
"61 c #cc1b02",
"71 c #c84b40",
"81 c #ca4c40",
"91 c #f2d2cf",
":1 c #ff3402",
";1 c #b30d01",
"A1 c #e0a49f",
"B1 c #fe3300",
"C1 c #b20d00",
"D1 c #ca1900",
"E1 c #b20c00",
"F1 c #c91900",
"G1 c #ce8180",
"H1 c #c14840",
"I1 c #fd3200",
"J1 c #c81800",
"K1 c #c26260",
"L1 c #e5b3af",
"M1 c #fc3100",
"N1 c #b10c00",
"O1 c #c71800",
"P1 c #aa2320",
"Q1 c #e6b3af",
"R1 c #cb5950",
"S1 c #fb3100",
"T1 c #b00c00",
"U1 c #c61700",
"V1 c #d5918f",
"W1 c #fa3000",
"X1 c #b00b00",
"Y1 c #c51700",
"Z1 c #dca29f",
"a1 c #f93000",
"b1 c #c41600",
"c1 c #a30600",
"d1 c #d28380",
"e1 c #f82f00",
"f1 c #af0b00",
"g1 c #c31600",
"h1 c #ba4440",
"i1 c #f72f00",
"j1 c #c21500",
"k1 c #a10500",
"l1 c #eed0cf",
"m1 c #d47770",
"n1 c #ba1e10",
"o1 c #cb1900",
"p1 c #ce1b00",
"q1 c #d11c00",
"r1 c #d41e00",
"s1 c #f5c7bf",
"t1 c #ec5d40",
"u1 c #e92800",
"v1 c #ec2a00",
"w1 c #ef2b00",
"x1 c #f62f00",
"y1 c #ae0b00",
"z1 c #c11500",
"02 c #a61410",
"12 c #dd958f",
"22 c #b30e00",
"32 c #b60f00",
"42 c #b91100",
"52 c #eec4bf",
"62 c #d13721",
"72 c #d43921",
"82 c #da4832",
"92 c #dc4932",
":2 c #f7d2cc",
";2 c #f07c65",
"A2 c #eb4421",
"B2 c #ee4521",
"C2 c #f14721",
"D2 c #f52e00",
"E2 c #d17069",
"F2 c #bd3024",
"G2 c #c43d31",
"H2 c #c9473a",
"I2 c #f3d4d1",
"J2 c #d95947",
"K2 c #db5a47",
"L2 c #dd5b47",
"M2 c #e05c47",
"N2 c #f7d7d1",
"O2 c #f18a75",
"P2 c #ef6447",
"Q2 c #f16547",
"R2 c #f36647",
"S2 c #ff5b31",
"T2 c #ff5024",
"U2 c #ff4212",
"V2 c #ff3705",
"W2 c #f42e00",
"X2 c #c01400",
"Y2 c #9a0200",
"Z2 c #9e0300",
"a2 c #b84340",
"b2 c #eabfbc",
"c2 c #c9564c",
"d2 c #cb574c",
"e2 c #ce584c",
"f2 c #f3d5d2",
"g2 c #da5e4c",
"h2 c #dc5f4c",
"i2 c #de604c",
"j2 c #e1614c",
"k2 c #f8d8d2",
"l2 c #f28d79",
"m2 c #ef684c",
"n2 c #f1694c",
"o2 c #f36a4c",
"p2 c #ff704c",
"q2 c #ffccbf",
"r2 c #ff3300",
"s2 c #f32d00",
"t2 c #ad0a00",
"u2 c #c11905",
"v2 c #a7211f",
"w2 c #b33b39",
"x2 c #bf5552",
"y2 c #e5ada8",
"z2 c #d9847d",
"03 c #cf5d52",
"13 c #f3d7d4",
"23 c #db6352",
"33 c #dd6452",
"43 c #df6552",
"53 c #e16652",
"63 c #f8d9d4",
"73 c #f2917d",
"83 c #f06d52",
"93 c #f26e52",
":3 c #f46f52",
";3 c #ff7552",
"A3 c #ffd4ca",
"B3 c #ff4c1f",
"C3 c #f23105",
"D3 c #ac0a00",
"E3 c #c62916",
"F3 c #bd5857",
"G3 c #bf5a57",
"H3 c #c15a57",
"I3 c #eccccb",
"J3 c #dc6857",
"K3 c #de6957",
"L3 c #e06a57",
"M3 c #e26b57",
"N3 c #f8dad5",
"O3 c #f39481",
"P3 c #f07257",
"Q3 c #f27357",
"R3 c #f47357",
"S3 c #ffddd5",
"T3 c #ff7957",
"U3 c #f13e16",
"V3 c #ac0900",
"W3 c #c62a17",
"X3 c #bf5e5d",
"Y3 c #c15f5d",
"Z3 c #c3605d",
"a3 c #d07f7b",
"b3 c #fcf5f5",
"c3 c #de6d5d",
"d3 c #e06e5d",
"e3 c #e16f5d",
"f3 c #e3705d",
"g3 c #f8dbd6",
"h3 c #f39885",
"i3 c #f1765d",
"j3 c #f3775d",
"k3 c #f4785d",
"l3 c #ffdfd6",
"m3 c #ff7d5d",
"n3 c #f03e17",
"o3 c #c62a19",
"p3 c #c16362",
"q3 c #c36462",
"r3 c #c56562",
"s3 c #c76662",
"t3 c #da9794",
"u3 c #fcf6f5",
"v3 c #df7262",
"w3 c #e17362",
"x3 c #e27462",
"y3 c #e47462",
"z3 c #f9ddd8",
"04 c #f39b89",
"14 c #f17b62",
"24 c #f37c62",
"34 c #f57c62",
"44 c #ff8262",
"54 c #ef3f19",
"64 c #ab0900",
"74 c #c52b1a",
"84 c #c36968",
"94 c #c56a68",
":4 c #c76a68",
";4 c #c96c68",
"A4 c #cb6c68",
"B4 c #d37f7b",
"C4 c #edc9c7",
"D4 c #fcf6f6",
"E4 c #e07768",
"F4 c #e27868",
"G4 c #e37968",
"H4 c #e57968",
"I4 c #f9ded9",
"J4 c #f49f8e",
"K4 c #f27f68",
"L4 c #f38068",
"M4 c #f58168",
"N4 c #ffe1d9",
"O4 c #ff8668",
"P4 c #ee401a",
"Q4 c #aa0900",
"R4 c #c52c1b",
"S4 c #c66e6d",
"T4 c #c76f6d",
"U4 c #c9706d",
"V4 c #cb716d",
"W4 c #cc726d",
"X4 c #ce736d",
"Y4 c #d0736d",
"Z4 c #d2746d",
"a4 c #dc8f89",
"b4 c #e09992",
"c4 c #e19992",
"d4 c #e29a92",
"e4 c #e39b92",
"f4 c #e59b92",
"g4 c #e69c92",
"h4 c #e79d92",
"i4 c #e17c6d",
"j4 c #e37c6d",
"k4 c #e47d6d",
"l4 c #e67e6d",
"m4 c #e87f6d",
"n4 c #ea806d",
"o4 c #eb816d",
"p4 c #ed826d",
"q4 c #ef826d",
"r4 c #f0836d",
"s4 c #f2846d",
"t4 c #f4856d",
"u4 c #f6866d",
"v4 c #f7876d",
"w4 c #f9876d",
"x4 c #fb886d",
"y4 c #fd896d",
"z4 c #fe8a6d",
"05 c #ff8b6d",
"15 c #ed401b",
"25 c #aa0800",
"35 c #c42d1d",
"45 c #c87473",
"55 c #c97573",
"65 c #cb7573",
"75 c #cd7673",
"85 c #ce7773",
"95 c #d07873",
":5 c #d27973",
";5 c #d37973",
"A5 c #d57a73",
"B5 c #d77b73",
"C5 c #d87c73",
"D5 c #da7d73",
"E5 c #dc7e73",
"F5 c #dd7e73",
"G5 c #df7f73",
"H5 c #e08073",
"I5 c #e28173",
"J5 c #e48273",
"K5 c #e58273",
"L5 c #e78373",
"M5 c #e98473",
"N5 c #ea8573",
"O5 c #ec8673",
"P5 c #ee8673",
"Q5 c #ef8773",
"R5 c #f18873",
"S5 c #f38973",
"T5 c #f48a73",
"U5 c #f68a73",
"V5 c #f88b73",
"W5 c #f98c73",
"X5 c #fb8d73",
"Y5 c #fd8e73",
"Z5 c #fe8e73",
"a5 c #ff8f73",
"b5 c #ec411d",
"c5 c #c42e1e",
"d5 c #ca7978",
"e5 c #cb7a78",
"f5 c #cd7b78",
"g5 c #ce7b78",
"h5 c #d07c78",
"i5 c #d27d78",
"j5 c #d37e78",
"k5 c #d57e78",
"l5 c #d77f78",
"m5 c #d88078",
"n5 c #da8178",
"o5 c #db8178",
"p5 c #dd8278",
"q5 c #de8378",
"r5 c #e08478",
"s5 c #e28578",
"t5 c #e38578",
"u5 c #e58678",
"v5 c #e68778",
"w5 c #e88878",
"x5 c #ea8978",
"y5 c #eb8978",
"z5 c #ed8a78",
"06 c #ee8b78",
"16 c #f08c78",
"26 c #f18c78",
"36 c #f38d78",
"46 c #f58e78",
"56 c #f68f78",
"66 c #f89078",
"76 c #fa9078",
"86 c #fb9178",
"96 c #fd9278",
":6 c #fe9378",
";6 c #ff9378",
"A6 c #eb411e",
"B6 c #a90800",
"C6 c #c32f1f",
"D6 c #cc7f7e",
"E6 c #e0afae",
"F6 c #e7bfbe",
"G6 c #e8bfbe",
"H6 c #e8c0be",
"I6 c #e9c0be",
"J6 c #eac1be",
"K6 c #ebc1be",
"L6 c #ecc2be",
"M6 c #edc2be",
"N6 c #eec2be",
"O6 c #efc3be",
"P6 c #f0c3be",
"Q6 c #f1c4be",
"R6 c #f2c4be",
"S6 c #eca89e",
"T6 c #e88c7e",
"U6 c #f5cdc6",
"V6 c #fae2de",
"W6 c #fbe3de",
"X6 c #fde4de",
"Y6 c #fee4de",
"Z6 c #fee5de",
"a6 c #ffe5de",
"b6 c #ffd1c6",
"c6 c #ff987e",
"d6 c #ea421f",
"e6 c #a80800",
"f6 c #c32f21",
"g6 c #ce8382",
"h6 c #f3e0e0",
"i6 c #f3c7c1",
"j6 c #e89082",
"k6 c #fae3e0",
"l6 c #ff9b82",
"m6 c #ea4221",
"n6 c #a80700",
"o6 c #c33022",
"p6 c #d08888",
"q6 c #f3e1e1",
"r6 c #f4cac3",
"s6 c #e99588",
"t6 c #fae5e1",
"u6 c #ffe7e1",
"v6 c #ffa088",
"w6 c #e94322",
"x6 c #c23123",
"y6 c #d28e8d",
"z6 c #f4e3e3",
"07 c #f4ccc6",
"17 c #ea9a8d",
"27 c #fae6e3",
"37 c #ffe8e3",
"47 c #ffa48d",
"57 c #e84423",
"67 c #a70700",
"77 c #c23225",
"87 c #d49393",
"97 c #f5e4e4",
":7 c #eb9f93",
";7 c #ffe9e4",
"A7 c #ffa993",
"B7 c #e74425",
"C7 c #c13326",
"D7 c #d69998",
"E7 c #f5e6e5",
"F7 c #f5d1cc",
"G7 c #eca398",
"H7 c #eda498",
"I7 c #efa598",
"J7 c #f0a598",
"K7 c #f1a698",
"L7 c #f2a698",
"M7 c #f4a798",
"N7 c #f5a898",
"O7 c #f6a898",
"P7 c #f7a998",
"Q7 c #f8a998",
"R7 c #fbbfb1",
"S7 c #fef4f2",
"T7 c #fec0b1",
"U7 c #ffac98",
"V7 c #ffad98",
"W7 c #e64526",
"X7 c #a60700",
"Y7 c #c13427",
"Z7 c #d99e9e",
"a7 c #f6e7e7",
"b7 c #f6d3ce",
"c7 c #eda89e",
"d7 c #eea99e",
"e7 c #f0aa9e",
"f7 c #f1aa9e",
"g7 c #f2ab9e",
"h7 c #f3ab9e",
"i7 c #f4ac9e",
"j7 c #f5ac9e",
"k7 c #f6ad9e",
"l7 c #f8b7a9",
"m7 c #fde5e0",
"n7 c #ffe6e0",
"o7 c #ffbba9",
"p7 c #ffb19e",
"q7 c #e54627",
"r7 c #c13529",
"s7 c #dba4a3",
"t7 c #f6e8e8",
"u7 c #f6d6d1",
"v7 c #eeada3",
"w7 c #efaea3",
"x7 c #f0aea3",
"y7 c #f2afa3",
"z7 c #f3afa3",
"08 c #f4b0a3",
"18 c #f5b0a3",
"28 c #f6b1a3",
"38 c #fbd8d0",
"48 c #fffaf9",
"58 c #ffdad0",
"68 c #ffb6a3",
"78 c #e44629",
"88 c #a50600",
"98 c #c0362a",
":8 c #dda9a9",
";8 c #f7eae9",
"A8 c #f7d8d4",
"B8 c #efb2a9",
"C8 c #f0b3a9",
"D8 c #f1b3a9",
"E8 c #f2b4a9",
"F8 c #f3b4a9",
"G8 c #f4b5a9",
"H8 c #f8c7be",
"I8 c #fdf1ee",
"J8 c #ffcfc3",
"K8 c #ffbaa9",
"L8 c #e3472a",
"M8 c #c0372c",
"N8 c #dfafae",
"O8 c #f7ebeb",
"P8 c #f7dbd7",
"Q8 c #f0b7ae",
"R8 c #f1b7ae",
"S8 c #f2b8ae",
"T8 c #f3b8ae",
"U8 c #f5bdb3",
"V8 c #fbe4e0",
"W8 c #fffbfa",
"X8 c #ffefea",
"Y8 c #ffbeae",
"Z8 c #e2472c",
"a8 c #a40600",
"b8 c #bf382d",
"c8 c #e1b4b4",
"d8 c #f8ecec",
"e8 c #f8ddd9",
"f8 c #f1bcb4",
"g8 c #f2bcb4",
"h8 c #f3bdb4",
"i8 c #f9d9d4",
"j8 c #fefbfa",
"k8 c #fdd1c7",
"l8 c #fdc5b8",
"m8 c #ffece8",
"n8 c #ffe0d9",
"o8 c #ffc6b8",
"p8 c #ffc3b4",
"q8 c #e1482d",
"r8 c #bf382e",
"s8 c #e3bab9",
"t8 c #f8eeee",
"u8 c #f8e0dc",
"v8 c #f2c1b9",
"w8 c #f5ccc6",
"x8 c #fde2dd",
"y8 c #fbc5b9",
"z8 c #fcc6b9",
"09 c #fdc6b9",
"19 c #fec6b9",
"29 c #ffd8ce",
"39 c #ffc7b9",
"49 c #e0492e",
"59 c #bf3930",
"69 c #e5bfbe",
"79 c #f9efef",
"89 c #f9e2df",
"99 c #f3c5be",
":9 c #fcf1ef",
";9 c #fef2ef",
"A9 c #fbd3cb",
"B9 c #fbc9be",
"C9 c #fccabe",
"D9 c #fdcabe",
"E9 c #fecbbe",
"F9 c #ffcfc2",
"G9 c #ffece7",
"H9 c #fff2ef",
"I9 c #ffcbbe",
"J9 c #df4930",
"K9 c #a30500",
"L9 c #be3a31",
"M9 c #e8c4c4",
"N9 c #f9f1f0",
"O9 c #f9e5e2",
"P9 c #f4cbc4",
"Q9 c #fcf2f0",
"R9 c #fffcfb",
"S9 c #fce3de",
"T9 c #facdc4",
"U9 c #fbcec4",
"V9 c #fccec4",
"W9 c #fdcfc4",
"X9 c #fecfc4",
"Y9 c #ffdcd3",
"Z9 c #fff9f8",
"a9 c #fff3f0",
"b9 c #ffd0c4",
"c9 c #de4a31",
"d9 c #a20500",
"e9 c #be3b32",
"f9 c #eac9c9",
"g9 c #faf2f2",
"h9 c #fae7e4",
"i9 c #f5cfc9",
"j9 c #fdf3f2",
"k9 c #fdf1ef",
"l9 c #fad7d0",
"m9 c #fad1c9",
"n9 c #fad2c9",
"o9 c #fbd2c9",
"p9 c #fcd2c9",
"q9 c #fcd3c9",
"r9 c #fdd3c9",
"s9 c #fed4c9",
"t9 c #ffd7cd",
"u9 c #ffede8",
"v9 c #fff4f2",
"w9 c #ffd4c9",
"x9 c #dd4b32",
"y9 c #a20400",
"z9 c #be3c34",
"0: c #eccfcf",
"1: c #faf3f3",
"2: c #faeae7",
"3: c #f6d4cf",
"4: c #fdf4f3",
"5: c #fffdfc",
"6: c #fbe3df",
"7: c #f9d6cf",
"8: c #fad6cf",
"9: c #fbd7cf",
":: c #fcd7cf",
";: c #fdd8cf",
"A: c #fed8cf",
"B: c #ffe0d8",
"C: c #fff8f6",
"D: c #fff5f3",
"E: c #ffd9cf",
"F: c #dd4b34",
"G: c #be3e35",
"H: c #eed4d4",
"I: c #fbf4f4",
"J: c #ffffff",
"K: c #fbecea",
"L: c #f7d9d4",
"M: c #fdf6f4",
"N: c #fcefed",
"O: c #f9dcd7",
"P: c #f9dad4",
"Q: c #fadad4",
"R: c #fbdbd4",
"S: c #fcdbd4",
"T: c #fddcd4",
"U: c #fedcd4",
"V: c #ffeeea",
"W: c #fff6f4",
"X: c #ffddd4",
"Y: c #dd4c35",
"Z: c #b71a0e",
"a: c #c03f36",
"b: c #c14036",
"c: c #c24036",
"d: c #c34136",
"e: c #c44136",
"f: c #c54236",
"g: c #c64236",
"h: c #c74336",
"i: c #c84336",
"j: c #c94436",
"k: c #ca4436",
"l: c #cb4436",
"m: c #cc4536",
"n: c #cd4536",
"o: c #cd4636",
"p: c #ce4636",
"q: c #cf4736",
"r: c #d14b3b",
"s: c #d14836",
"t: c #d24836",
"u: c #d34836",
"v: c #d34936",
"w: c #d44936",
"x: c #d54a36",
"y: c #d64a36",
"z: c #d74a36",
"0; c #d84b36",
"1; c #d94b36",
"2; c #d94c36",
"3; c #da4c36",
"4; c #db4c36",
"5; c #dc4d36",
"6; c #dd4f38",
"7; c #dd4d36",
"8; c #cb240e",
"9; c #a10400",
"  9;9;9;9;9;9;9;9;9;9;9;9;9;9;9;9;9;9;9;9;9;9;9;9;9;9;9;9;9;9;9;9;9;9;9;9;9;9;9;9;9;9;9;9;9;9;  ",
"9;8;7;6;7;7;7;7;7;7;7;7;5;4;3;2;1;0;z:y:x:w:v:u:t:s:r:q:p:o:n:m:l:k:j:i:h:g:g:f:e:d:c:b:a:a:Z:9;",
"9;Y:X:W:V:X:X:X:X:X:X:X:X:U:U:T:T:S:S:R:R:Q:Q:P:O:N:M:L:K:J:J:J:J:J:J:J:J:J:J:J:J:J:J:J:I:H:G:9;",
"9;F:E:D:J:C:B:E:E:E:E:E:E:A:A:;:::::9:9:8:8:7:6:5:J:4:3:2:J:J:J:J:J:J:J:J:J:J:J:J:J:J:J:1:0:z99;",
"y9x9w9v9J:J:J:u9t9w9w9w9w9s9r9r9q9p9o9n9m9l9k9J:J:J:j9i9h9J:J:J:J:J:J:J:J:J:J:J:J:J:J:J:g9f9e9y9",
"d9c9b9a9J:J:J:J:Z9Y9b9b9b9X9W9W9V9U9U9T9S9R9J:J:J:J:Q9P9O9J:J:J:J:J:J:J:J:J:J:J:J:J:J:J:N9M9L9d9",
"K9J9I9H9J:J:J:J:J:J:G9F9I9E9D9C9C9B9A9;9J:J:J:J:J:J::99989J:J:J:J:J:J:J:J:J:J:J:J:J:J:J:796959K9",
"K9493929C:J:J:J:J:J:J:R9E:1909z8y8x8J:J:J:J:J:J:J:j9w8v8u8J:J:J:J:J:J:J:J:J:J:J:J:J:J:J:t8s8r8K9",
"K9q8p8p8o8n8J:J:J:J:J:J:J:m8l8k8C:J:J:J:J:J:J:j8i8h8g8f8e8J:J:J:J:J:J:J:J:J:J:J:J:J:J:J:d8c8b8K9",
"a8Z8Y8Y8Y8Y8o8X8J:J:J:J:J:J:W8J:J:J:J:J:J:J:V8U8T8S8R8Q8P8J:J:J:J:J:J:J:J:J:J:J:J:J:J:J:O8N8M8a8",
"a8L8K8K8K8K8K8K8J8W:J:J:J:J:J:J:J:J:J:J:I8H8G8F8E8D8C8B8A8J:J:J:J:J:J:J:J:J:J:J:J:J:J:J:;8:898a8",
"887868686868686868685848J:J:J:J:J:J:4838281808z7y7x7w7v7u7J:J:J:J:J:J:J:J:J:J:J:J:J:J:J:t7s7r788",
"88q7p7p7p7p7p7p7p7p7p7o7n7J:J:J:J:m7l7k7j7i7h7g7f7e7d7c7b7J:J:J:J:J:J:J:J:J:J:J:J:J:J:J:a7Z7Y788",
"X7W7V7V7V7V7V7V7V7V7V7V7U7T7v9S7R7Q7P7O7N7M7L7K7J7I7H7G7F7J:J:J:J:J:J:J:J:J:J:J:J:J:J:J:E7D7C7X7",
"X7B7A7;7J:J:J:J:J:J:J:J:J:J:J:J:J:J:J:J:J:J:J:J:J:J:h9:7i9J:J:J:J:J:J:J:J:J:J:J:J:J:J:J:978777X7",
"67574737J:J:J:J:J:J:J:J:J:J:J:J:J:J:J:J:J:J:J:J:J:J:271707J:J:J:J:J:J:J:J:J:J:J:J:J:J:J:z6y6x667",
"67w6v6u6J:J:J:J:J:J:J:J:J:J:J:J:J:J:J:J:J:J:J:J:J:J:t6s6r6J:J:J:J:J:J:J:J:J:J:J:J:J:J:J:q6p6o667",
"n6m6l6n7J:J:J:J:J:J:J:J:J:J:J:J:J:J:J:J:J:J:J:J:J:J:k6j6i6J:J:J:J:J:J:J:J:J:J:J:J:J:J:J:h6g6f6n6",
"e6d6c6b6a6a6a6a6a6a6a6a6a6Z6Y6Y6X6X6X6S9S9W6W6W6V6V6U6T6S6R6Q6P6O6O6N6M6L6K6K6J6I6H6G6F6E6D6C6e6",
"B6A6;6;6;6;6;6;6;6;6;6;6:696867666564636261606z5y5x5w5v5u5t5s5r5q5p5o5n5m5l5k5j5i5h5g5f5e5d5c5B6",
"B6b5a5a5a5a5a5a5a5a5a5a5Z5Y5X5W5V5U5T5S5R5Q5P5O5N5M5L5K5J5I5H5G5F5E5D5C5B5A5;5:595857565554535B6",
"251505050505050505050505z4y4x4w4v4u4t4s4r4q4p4o4n4m4l4k4j4i4h4g4f4e4d4c4b4a4Z4Y4X4W4V4U4T4S4R425",
"Q4P4O4N4J:J:J:J:O4O4O4O4J:J:J:J:J:M4L4K4J4J:J:J:J:I4H4G4F4E4J:J:J:J:J:J:J:J:D4C4B4A4;4:4948474Q4",
"645444B:J:J:J:J:44444444J:J:J:J:J:34241404J:J:J:J:z3y3x3w3v3J:J:J:J:J:J:J:J:J:J:u3t3s3r3q3p3o364",
"64n3m3l3J:J:J:J:m3m3m3m3J:J:J:J:J:k3j3i3h3J:J:J:J:g3f3e3d3c3J:J:J:J:J:J:J:J:J:J:J:b3a3Z3Y3X3W364",
"V3U3T3S3J:J:J:J:T3T3T3T3J:J:J:J:J:R3Q3P3O3J:J:J:J:N3M3L3K3J3J:J:J:J:J:J:J:J:J:J:J:J:I3H3G3F3E3V3",
"D3C3B3A3J:J:J:J:;3;3;3;3J:J:J:J:J::3938373J:J:J:J:6353433323J:J:J:J:1303z2y2J:J:J:J:J:x2w2v2u2D3",
"t2s2r2q2J:J:J:J:p2p2p2p2J:J:J:J:J:o2n2m2l2J:J:J:J:k2j2i2h2g2J:J:J:J:f2e2d2c2b2J:J:J:J:a2Z2Y2X2t2",
"t2W2r2q2J:J:J:J:V2U2T2S2J:J:J:J:J:R2Q2P2O2J:J:J:J:N2M2L2K2J2J:J:J:J:I2H2G2F2E2J:J:J:J:a2Z2Y2X2t2",
"t2D2r2q2J:J:J:J:r2r2r2r2J:J:J:J:J:C2B2A2;2J:J:J:J::292827262J:J:J:J:5242322212J:J:J:J:02Z2Y2z1t2",
"y1x1r2q2J:J:J:J:r2r2r2r2J:J:J:J:J:w1v1u1t1J:J:J:J:s1r1q1p1o1J:J:J:J:5242n1m1J:J:J:J:l1k1Z2Y2j1y1",
"y1i1r2q2J:J:J:J:r2r2r2r2J:J:J:J:J:w1v1u1t1J:J:J:J:s1r1q1p1o1J:J:J:J:J:J:J:J:J:J:J:J:h1k1Z2Y2g1y1",
"f1e1r2q2J:J:J:J:r2r2r2r2J:J:J:J:J:w1v1u1t1J:J:J:J:s1r1q1p1o1J:J:J:J:J:J:J:J:J:J:J:d1c1k1Z2Y2b1f1",
"f1a1r2q2J:J:J:J:r2r2r2r2J:J:J:J:J:w1v1u1t1J:J:J:J:s1r1q1p1o1J:J:J:J:J:J:J:J:J:J:J:J:Z1k1Z2Y2Y1f1",
"X1W1r2q2J:J:J:J:r2r2r2r2J:J:J:J:J:w1v1u1t1J:J:J:J:s1r1q1p1o1J:J:J:J:J:J:J:J:J:J:J:J:J:V1Z2Y2U1X1",
"T1S1r2q2J:J:J:J:r2r2r2r2J:J:J:J:J:w1v1u1t1J:J:J:J:s1r1q1p1o1J:J:J:J:5242n1R1Q1J:J:J:J:J:P1Y2O1T1",
"N1M1r2q2J:J:J:J:r2r2r2r2J:J:J:J:J:w1v1u1t1J:J:J:J:s1r1q1p1o1J:J:J:J:52423222T1L1J:J:J:J:K1Y2J1N1",
"N1I1r2q2J:J:J:J:r2r2r2r2J:J:J:J:J:w1v1u1t1J:J:J:J:s1r1q1p1o1J:J:J:J:52423222T1H1J:J:J:J:G1Y2F1N1",
"E1I1r2q2J:J:J:J:r2r2r2r2J:J:J:J:J:w1v1u1t1J:J:J:J:s1r1q1p1o1J:J:J:J:52423222T1H1J:J:J:J:G1Y2D1E1",
"C1B1r2q2J:J:J:J:r2r2r2r2J:J:J:J:J:w1v1u1t1J:J:J:J:s1r1q1p1o1J:J:J:J:52423222T1A1J:J:J:J:K1Y2o1C1",
";1:1r2q2J:J:J:J:r2r2r2r2J:J:J:J:J:w1v1u1t1J:J:J:J:s1r1q1p1o1J:J:J:J:918171R1Q1J:J:J:J:J:P1Y261;1",
"5141r2q2J:J:J:J:r2r2r2r2J:J:J:J:J:w1v1u1t1J:J:J:J:s1r1q1p1o1J:J:J:J:J:J:J:J:J:J:J:J:J:31Z2Y22151",
"1101r2q2J:J:J:J:r2r2r2r2J:J:J:J:J:w1v1u1t1J:J:J:J:s1r1q1p1o1J:J:J:J:J:J:J:J:J:J:J:J:79z0Z2Y2y011",
"x0w0r2q2J:J:J:J:r2r2r2r2J:J:J:J:J:w1v1u1t1J:J:J:J:s1r1q1p1o1J:J:J:J:J:J:J:J:J:J:J:v0u0k1Z2Y2t0x0",
"s0r0r2q2J:J:J:J:r2r2r2r2J:J:J:J:J:w1v1u1t1J:J:J:J:s1r1q1p1o1J:J:J:J:J:J:J:J:J:q0p0o0c1k1Z2Y2n0s0",
"m0l0r2q2J:J:J:J:r2r2r2r2J:J:J:J:J:w1v1u1t1J:J:J:J:s1r1q1p1o1k0j0i0h0g08171f0T1e0Q4d0c1k1Z2Y2c0m0",
"b0a0Z0Z0Z0Z0Z0Z0Z0Z0Z0Z0Y0X0W0V0U0T0S0R0Q0P0O0N0M0L0K0J0I0H0G0F0E0D0C0B0A0;0:09080706050403020b0",
"100000000000000000000000000000000000000000000000000000000000000000000000000000000000000000000010"};
