/* XPM */
static char *image[] = {
"64 64 2 1",
"0 c #ffffff",
"1 c #000000",
"1111111111111111111111111111111111111111111111111111111111111111",
"1111111111111111111111111111111111111111111111111111111111111111",
"1111111111111111111111111111111111111111111111111111111111111111",
"1111111111111111111111111111111111111111111111111111111111111111",
"1111000100100010000100000000000000000000000000000000000100001111",
"1111100001001000100001010101001001001001001001001001010000011111",
"1111000100000000001000000000000000000000000000000000000000001111",
"1111000001010101000000000000010000100000000100000100000100011111",
"1111100110101010110111111111010110101111110101110101110100001111",
"1111000010000000001000000000000000000000000000000000000100001111",
"1111000010101010100010010001010101010100010101010101010100011111",
"1111100100010010010001000100000000000001000000000000000100001111",
"1111000010100100100100101001010101010100101010101010100100001111",
"1111100010010010010010010010101010100101000100000000010000011111",
"1111000101001001001000000000000000000000000001010101001100001111",
"1111000010100100100100000000000000000000000010000010000000011111",
"1111100010010010010100001000010101000000001001010100101100001111",
"1111000101001001001000100000001000100100100010000000000010001111",
"1111100010100100100100000001010010100000000001010101010100011111",
"1111000010010010010100000100001001000010000010001000100100001111",
"1111100010101010101000100000011010101000010010100101000100001111",
"1111000101001001001010000100000000000000000010010000101000011111",
"1111000010100100101000010001001001001001010010100101000100001111",
"1111100010010101001101000000100000000010000010010010010100011111",
"1111000101010100100100010100000101010000010010101001000100001111",
"1111100010100101010100000001000000000000000101000100101000001111",
"1111000010101010101001001000000000000000001010010010010100011111",
"1111100010101001001100000000000000000000000010101010100100001111",
"1111000101010101010101010010101010010101010010010010010100011111",
"1111000010100101010100001001000100100000100101010101010100001111",
"1111100010101010101010100000010000001010001010101001001000001111",
"1111000110101010010100000010000000000000000010100100100100011111",
"1111100010101011010101000000000000000000001010101010101010001111",
"1111000010110101010100100000000000000000001010101010101000001111",
"1111100011010101011010010110110110110101010010100100100100011111",
"1111000101010101010101010001001001001010101010101010101000001111",
"1111000010101011010101001101010101010010010101010101010100011111",
"1111100011010101011101010010010010010101001010101010010100001111",
"1111000101011010100101111101101111101101110101010101010100011111",
"1111100010101011011010100110110100110101010101010010101000001111",
"1111000011010101010110101010101011001010101010101010100100011111",
"1111100010101010101010110101010101010101010101010101010100001111",
"1111000101011010110101010101101010101010101010101010101010001111",
"1111000011010110101011011010101101101101101101010101010100011111",
"1111101000000000000000000000000000000000000000000000000000001111",
"1111000101010100101000000100010000000000000000010101100101011111",
"1111101000000000000010100000000001001001000100000000000000001111",
"1111010010101010101000001010100100000000010001001011010100101111",
"1111111111111111111111111110010010110111111111111111111111111111",
"1111111111111111111111111111000000001011111111111111111111111111",
"1111111111111111111111111110001000101011111111111111111111111111",
"1111111111111111111111111110100000001011111111111111111111111111",
"1111111111111111111111101010000000100010101111111111111111111111",
"1111111111100010000010000001010000001010000001000000000111111111",
"1111111111010000000000010100101011101000100100000010101011111111",
"1111111111101010010000000000000000000000000000010100101111111111",
"1111111111111111010110110101000000000101010111011111111111111111",
"1111111111111111111111111111111101111011111111111111111111111111",
"1111111111111111111111111111111111111111111111111111111111111111",
"1111111111111111111111111111111111111111111111111111111111111111",
"1111111111111111111111111111111111111111111111111111111111111111",
"1111111111111111111111111111111111111111111111111111111111111111",
"1111111111111111111111111111111111111111111111111111111111111111",
"1111111111111111111111111111111111111111111111111111111111111111"};
