/* XPM */
static char *image[] = {
"64 64 2 1",
"0 c #ffffff",
"1 c #000000",
"1111111111111111100001111111000000000000000001111111111111111111",
"1111111111111110000100000000001000000000000000011111111111111111",
"1111111111111110010000000100100010101111010100011111111111111111",
"1111111111111100111111111010000000000001011101001111111111111111",
"1111111111111101011010100100000000000101010110001111111111111111",
"1111111111111100101010010000000000000000001001011111111111111111",
"1111111111111110101001000100000000000101010010101111111111111111",
"1111111111111101010100010000010010000000000001010111111111111111",
"1111111111111101000001000010000000010010001000001011111111111111",
"1111111111110100100100001000000001000001000010100101111111111111",
"1111111111110100000000100101010100000100101000000010011111111111",
"1111111111010010100101010100000010101010100100010001011111111111",
"1111111111010000001001010101011001000101010010000100101111111111",
"1111111110100101000101010101010110110101010101010000010111111111",
"1111111101000000101010101011111111111101101010100010001011111111",
"1111111010010010101010101111111111111111010101010000100101111111",
"1111111010000001010101111111111111111111111010101010000011111111",
"1111110100010100101011111111111111111111110110100100010100111111",
"1111110010000010101111111111111111111111111010101010000001011111",
"1111101000101010101111111111111111111111111001101001001010111111",
"1111101000001010111111111111111111111111111101010101000000100001",
"1111010010100101011111111111111111111111111000110101010010010000",
"1111010001010101111111111111111111111111111010011010100000101010",
"1111000100010101111111111111111111111111111101001010010010011000",
"1110100001001010111111111111111111111111111111111010100000100100",
"1110001000101011111111111111111111111111111111111101010100010100",
"1100100001001011111111111111111111111111111111111101001000001000",
"1000000000010101111111111111111111111111111111111010000000000100",
"1010000001000111111111111111111111111111111111111101010000000010",
"1000000000010111111111111111111111111111111111111101000000001000",
"0000000100010011111111111111111111111111111111111110000100000000",
"0010000000101011111111111111111111111111111111111101010000000100",
"0000000000001111111111111111111111111111111111111101000000000000",
"1010000010100011111111111111111111111111111111111110000010000101",
"1000000000010111111111111111111111111111111111111101010000000000",
"1010000000001011111111111111111111111111111111111100000000000101",
"1000000101010101111111111111111111111111111111111101010000010001",
"0111010000101011111111111111111111111111111111111010101010000111",
"0010100010010101111111111111111111111111111111111101010000101011",
"0011001000100101111111111111111111111111111111110101000100010111",
"1010100000010101111111111111111111111111111000111010100001010111",
"0011010101001010011111111111111111111111100100000000010101011111",
"0101100000010101111111111111111111111111001010101011010000101111",
"0011101010000100101111111111111111111111010111010100000101010111",
"1001101000010010101011111111111111111110101110101010100000111111",
"1010110101000101010111111111111111111110011101010100001010101111",
"1000111000001001010101111111111111111111001010101001000010111111",
"1110110110100000101010101111111111111110101010100100010101111111",
"1100011101000101001010110111111111111110101010101000000101111111",
"1111011100100000010101001010111111101010101010000001010111111111",
"1110000111010001000010101010100100101010101010101000010111111111",
"1111101001010100001001010101010010100101010000000010101111111111",
"1111110101101001000100010100001010010100101010010001011111111111",
"1111111110101010010001000101000000000010100000001010111111111111",
"1111111111111010100000010000010010010100010010100111111111111111",
"1111111111111101010100000100000000000001000000101010111111111111",
"1111111111111111010010100000000001000000010110101111111111111111",
"1111111111111111101101001010001000000101001010111111111111111111",
"1111111111111111111010101000000000000000101011111111111111111111",
"1111111111111111111110110110000000000110011101111111111111111111",
"1111111111111111111111101010000000000100101111111111111111111111",
"1111111111111111111111110101010101010010111111111111111111111111",
"1111111111111111111111111000100000001001111111111111111111111111",
"1111111111111111111111111111101001010111111111111111111111111111"};
