/* XPM */
static char *image[] = {
"64 64 2 1",
"0 c #ffffff",
"1 c #000000",
"1111111111111111111111111111111111111111111111111111111111111111",
"1111111111111111111111111111111111111111111111111111111111111111",
"1111111111111111111111111111111111111111111111111111111111111111",
"1111111111111111111111111111111111111111111001011111111111111111",
"1111111111111111111111111111111101011111110100111111111111111111",
"1111111111111111111111111111111100101111100011011111111111111111",
"1111111111111111111111111111111001011111111001011111111111111111",
"1111111111111111111111111111111101011111110101011111111111111111",
"1111111111111111111100000011111101011111111110111111000011111111",
"1111111111111111110001000001111011010111111011111101010111111111",
"1111111111111111000000000000111110111111111111111110011011111111",
"1111111111111110100000000001111111111111111111111111101101111111",
"1111111111111100000000001001011111111111111111111110101011111111",
"1111111111111000000100100011111111111111111111111111011011111111",
"1111111111100000000000000111111111111111111111111111101111111111",
"1111111111110001000010010111111111111111111111111111111111111111",
"1111111111000000001000101111111111111111111111111111111111111111",
"1111111110000100000100011111111111111111111111111111111111111111",
"1111111110010000100010111111111111111111111111111111111111111111",
"1111111010000000010100111111111111111111111111111111111111111111",
"1111111100000100100010111111111111111111111111111111111111111111",
"1111110000100001001001111111111111111111111111111111111111111111",
"1111111010001000101011111111111111111111111111111111111111111111",
"1111100000000010010001111111111111111111111111111111111111111111",
"1111110101010010101011111111111111111111111111111111111111111111",
"1111000000001001000101111111111111111111111111111111111111111111",
"1111101010100101010011111111111111111111111111111111111111111111",
"1110100000010101010001011111111111111111111111111111111111111111",
"1111001010101010100010111111111111111111111111111111111111111111",
"1110100001010101010001111111111111111111111111111111111111111111",
"1110001010101010101001011111111111111111111111111111111111111111",
"1101010010010101010000111111111111111111111111111111111111111111",
"1110001001010010100100001111111111111111111111111111111111111111",
"1101010101001010010001010101111111111111111111111111111111111111",
"1110100010101001010100000101101111101010000101111111111111111111",
"1101001000100101010010010000010100010000000010111111111111111111",
"1110100101010100101000100010000001000000000000101111111111111111",
"1101001000001010010010001000101000000100000000011111111111111111",
"1110010010100001001000100010000010010000100000000111111111111111",
"1101001001010100100101001000100000000000000100101011111111111111",
"1110100100000010010000000010001010100100010000000111111111111111",
"1111010001010100100101010000100000000001000000000011111111111111",
"1110100100000010000010001010000100101000000100100101111111111111",
"1111010001010000101000100000100010000101010000000011111111111111",
"1111010100001010000010001000010000101000001001000101111111111111",
"1111100010100000101000100010000101000010100100010001111111111111",
"1111110100001010000010000000100000010100100010000101111111111111",
"1111110010000000100000010100001010000010010101010011111111111111",
"1111111001010010001010000000100000101001001000100101111111111111",
"1111111101000100000000100100000100000100100101010011111111111111",
"1111111100100000101000000001001001010010010010001011111111111111",
"1111111111010100000010101000000000001001001001010111111111111111",
"1111111110100010100000000010101010100010010101010111111111111111",
"1111111111110100001010010000000000010001001001001111111111111111",
"1111111111110101000000000100100101001010010100110111111111111111",
"1111111111111010101010100001000000000001000101011111111111111111",
"1111111111111110100000010100010101010100101010111111111111111111",
"1111111111111111011010100001000000010010010011111111111111111111",
"1111111111111111111010001000010101001001010111111111111111111111",
"1111111111111111111111101010100010010101011111111111111111111111",
"1111111111111111111110111011011010101011111111111111111111111111",
"1111111111111111111111111111111111111111111111111111111111111111",
"1111111111111111111111111111110111111111111111111111111111111111",
"1111111111111111111111111111111111111111111111111111111111111111"};
