/* XPM */
static char *image[] = {
"48 48 2 1",
"0 c #ffffff",
"1 c #000000",
"111111111111111111111111111111111111111111111111",
"111111111111111110000001111111111111111111111111",
"111111111111111000000000011111111111111111111111",
"111111111111100000111000000111111111111111111111",
"111111111100000011111111000000111111111111111111",
"111111110000001111011111101000001111111111111111",
"111111000000111101110101111010010011111111111111",
"111000000111110111111111011110000000111111111111",
"100000011011011110101011110111110010000111111111",
"100000111111111011111101011111111000010111111111",
"100000000110111110101111111010100000010111111111",
"101000000011101011110101101111001001101111111111",
"100010000000111111011111111100000010101111111111",
"101000000000011101111010110000001101010111111111",
"100110100000000111101111100000101011101111111111",
"100011010010000001111100000001011110101111111111",
"100111110000000000011000000110110111010111111111",
"100011011100000000000000010101111101101111111111",
"101011111111000000000000101110101111001111111111",
"100010101111101000000011110111111011010110111111",
"100011111010110000000101011101101110101111111111",
"110011011111111110001101110111111011010111111111",
"110101110101101110000111011101011111011111111111",
"110011101110111110001011111111101101001110111111",
"110010111011110110100101101010111110101111111111",
"111001111110111110000111111111101011011111101111",
"110011101011101011001010101010111110101111111111",
"110001111110111110000111111111101101011110111111",
"111000011011101110001010101010111010011111111111",
"100100001111111011000101111111110010111111111111",
"111100100101101110001011110111001010111101111111",
"111111000010111110000111011101010101111111111111",
"111111100000110110001011111010101111111111111111",
"111111110000011110000101101010011111111011101111",
"111111011100000111001011101010111111111111111111",
"111111111110000010000101010101111101111111111111",
"111111111001001000001010100111011111101101111111",
"111111111101100000000101011010111111111111111111",
"111111101100010001001010011101111111111111111111",
"111111111110001100000101110101111011011111111111",
"111111111110000110000101101011101111111111111111",
"111111111111000001100110100101111111111111111111",
"111111110111100000101101011111111111111111111111",
"111111111111110100010010101111111111111111111111",
"111111111111111110101101111111111111111111111111",
"111111111111111111110111111111011111111111111111",
"111111111111111111111111111101111111111111111111",
"111111111111111111111111111111111111111111111111"};
