/* XPM */
static char *image[] = {
"32 32 516 2",
"00 c #898c86",
"10 c #9e9f9c",
"20 c #a9aaa6",
"30 c #a5a7a3",
"40 c #a2a29f",
"50 c #929490",
"60 c #878984",
"70 c #888888",
"80 c #868a84",
"90 c #b1b2af",
":0 c #e8e9e8",
";0 c #cbcbcb",
"A0 c #bdbdbd",
"B0 c #d5d5d3",
"C0 c #caccc9",
"D0 c #8b8e89",
"E0 c #898989",
"F0 c #848682",
"G0 c #afb0ad",
"H0 c #e2e2e2",
"I0 c #d7d7d7",
"J0 c #b9b9b8",
"K0 c #b9b9b7",
"L0 c #d9d9d9",
"M0 c #c1c3c0",
"N0 c #8a8d87",
"O0 c #848e84",
"P0 c #0b1416",
"Q0 c #182d32",
"R0 c #132227",
"S0 c #070b0b",
"T0 c #ffffff",
"U0 c #878a84",
"V0 c #868983",
"W0 c #929390",
"X0 c #939691",
"Y0 c #8f918c",
"Z0 c #8b8d88",
"a0 c #848484",
"b0 c #000505",
"c0 c #152729",
"d0 c #22444a",
"e0 c #284f56",
"f0 c #27535b",
"g0 c #214348",
"h0 c #21454a",
"i0 c #1c3940",
"j0 c #152b2e",
"k0 c #091616",
"l0 c #898b84",
"m0 c #888b84",
"n0 c #070e0e",
"o0 c #183134",
"p0 c #21444a",
"q0 c #254c53",
"r0 c #44747c",
"s0 c #70a2aa",
"t0 c #70b8c5",
"u0 c #76b6c2",
"v0 c #56949e",
"w0 c #3e7884",
"x0 c #2c5b64",
"y0 c #22474e",
"z0 c #214951",
"01 c #1e4249",
"11 c #162d31",
"21 c #091518",
"31 c #878985",
"41 c #888a85",
"51 c #727470",
"61 c #132429",
"71 c #1f3e44",
"81 c #21444c",
"91 c #2a5861",
":1 c #5b8e97",
";1 c #72a4ae",
"A1 c #53909b",
"B1 c #307988",
"C1 c #3399ac",
"D1 c #4fa8b8",
"E1 c #62b1bf",
"F1 c #74bac7",
"G1 c #62a1ad",
"H1 c #51919d",
"I1 c #498995",
"J1 c #356d77",
"K1 c #25525a",
"L1 c #224951",
"M1 c #224b52",
"N1 c #1b3b3f",
"O1 c #787c76",
"P1 c #8c8e8a",
"Q1 c #6b7775",
"R1 c #264d54",
"S1 c #45747e",
"T1 c #73a3ab",
"U1 c #387581",
"V1 c #418490",
"W1 c #359aad",
"X1 c #369bae",
"Y1 c #379cae",
"Z1 c #3d8f9e",
"a1 c #5baebd",
"b1 c #6db7c5",
"c1 c #7ebfcb",
"d1 c #7ab8c5",
"e1 c #5999a4",
"f1 c #214a51",
"g1 c #7d817e",
"h1 c #90908f",
"i1 c #848b87",
"j1 c #77a6b0",
"k1 c #56929d",
"l1 c #367d8a",
"m1 c #256976",
"n1 c #2c7785",
"o1 c #379bae",
"p1 c #389caf",
"q1 c #399db0",
"r1 c #3b9eb0",
"s1 c #348b9b",
"t1 c #358c9c",
"u1 c #4aa6b8",
"v1 c #87c4cf",
"w1 c #214c54",
"x1 c #828582",
"y1 c #868483",
"z1 c #958b8b",
"02 c #898987",
"12 c #548188",
"22 c #307987",
"32 c #2f7886",
"42 c #256876",
"52 c #2c7685",
"62 c #287483",
"72 c #32646b",
"82 c #399caf",
"92 c #368c9c",
":2 c #46a4b6",
";2 c #88c5d1",
"A2 c #214e57",
"B2 c #938b8b",
"C2 c #948b8b",
"D2 c #af7979",
"E2 c #bd5f5f",
"F2 c #a66f6f",
"G2 c #918b8b",
"H2 c #538188",
"I2 c #2e7886",
"J2 c #2b7685",
"K2 c #2a7584",
"L2 c #297583",
"M2 c #287280",
"N2 c #2f6169",
"O2 c #368c9b",
"P2 c #3b9daf",
"Q2 c #378d9d",
"R2 c #388d9d",
"S2 c #44a4b6",
"T2 c #48a6b8",
"U2 c #8ac6d1",
"V2 c #215159",
"W2 c #8d8989",
"X2 c #9a8989",
"Y2 c #d75f5f",
"Z2 c #ca0606",
"a2 c #b50000",
"b2 c #a10303",
"c2 c #983535",
"d2 c #8d8282",
"e2 c #5c8289",
"f2 c #256875",
"g2 c #2b7684",
"h2 c #2b717f",
"i2 c #316b75",
"j2 c #356870",
"k2 c #478089",
"l2 c #346c76",
"m2 c #29616b",
"n2 c #30727c",
"o2 c #368594",
"p2 c #3e98a9",
"q2 c #388e9e",
"r2 c #398e9e",
"s2 c #4aa7b9",
"t2 c #8bc6d2",
"u2 c #21535c",
"v2 c #8e8e8e",
"w2 c #958d8d",
"x2 c #c44646",
"y2 c #b10000",
"z2 c #a20000",
"03 c #850c0c",
"13 c #974a4a",
"23 c #651b1b",
"33 c #8b8989",
"43 c #427179",
"53 c #356a75",
"63 c #3a6c75",
"73 c #609da7",
"83 c #7fc4d0",
"93 c #83c8d5",
":3 c #7cc0cd",
";3 c #65a6b3",
"A3 c #4b8994",
"B3 c #306e78",
"C3 c #2c6872",
"D3 c #337e8b",
"E3 c #419aaa",
"F3 c #47a3b5",
"G3 c #49a7b8",
"H3 c #8dc8d3",
"I3 c #21555f",
"J3 c #8f8c8c",
"K3 c #ae7575",
"L3 c #910000",
"M3 c #860000",
"N3 c #780000",
"O3 c #690000",
"P3 c #590202",
"Q3 c #986f6f",
"R3 c #8f6262",
"S3 c #643737",
"T3 c #788487",
"U3 c #296069",
"V3 c #407c85",
"W3 c #609fab",
"X3 c #7abec9",
"Y3 c #85c9d5",
"Z3 c #84c8d4",
"a3 c #6cabb6",
"b3 c #457d84",
"c3 c #35676f",
"d3 c #2e676f",
"e3 c #397e8a",
"f3 c #3b8f9e",
"g3 c #388795",
"h3 c #3b8b9a",
"i3 c #4296a6",
"j3 c #80bac6",
"k3 c #215862",
"l3 c #944444",
"m3 c #800000",
"n3 c #8d0000",
"o3 c #8e0101",
"p3 c #880101",
"q3 c #810000",
"r3 c #a96363",
"s3 c #c9aaaa",
"t3 c #561111",
"u3 c #8c8d8d",
"v3 c #3898ab",
"w3 c #348a9a",
"x3 c #357b88",
"y3 c #2e6c76",
"z3 c #377782",
"04 c #4e8d96",
"14 c #3a6f76",
"24 c #366c75",
"34 c #286c78",
"44 c #3e8592",
"54 c #4ba8ba",
"64 c #4da8b9",
"74 c #49a3b3",
"84 c #4699a9",
"94 c #66a3ad",
":4 c #205a65",
";4 c #c45050",
"A4 c #dd3c3c",
"B4 c #ed4e4e",
"C4 c #ed4949",
"D4 c #e13636",
"E4 c #d22121",
"F4 c #d67171",
"G4 c #e1b0b0",
"H4 c #801414",
"I4 c #8f8e8e",
"J4 c #3a9db0",
"K4 c #3c9eb1",
"L4 c #3fa0b2",
"M4 c #3d97a7",
"N4 c #316b74",
"O4 c #266c79",
"P4 c #206f7e",
"Q4 c #1f6e7e",
"R4 c #276874",
"S4 c #3f8693",
"T4 c #4da9ba",
"U4 c #4faabb",
"V4 c #53acbe",
"W4 c #91cad5",
"X4 c #205c68",
"Y4 c #918e8e",
"Z4 c #ac5a5a",
"a4 c #9e0d0d",
"b4 c #a40606",
"c4 c #a60505",
"d4 c #a40707",
"e4 c #9b0a0a",
"f4 c #be7879",
"g4 c #d0aeae",
"h4 c #70393b",
"i4 c #8b8d8d",
"j4 c #3b9eb1",
"k4 c #3d9fb1",
"l4 c #41a1b4",
"m4 c #1e6e7e",
"n4 c #1d6d7d",
"o4 c #408693",
"p4 c #4faabc",
"q4 c #50abbc",
"r4 c #52acbd",
"s4 c #92cbd6",
"t4 c #205f6a",
"u4 c #9a9a9a",
"v4 c #747371",
"w4 c #765e5d",
"x4 c #5e5659",
"y4 c #7a7576",
"z4 c #6e7579",
"05 c #adb7b9",
"15 c #c2d3d6",
"25 c #83a4a9",
"35 c #818b8c",
"45 c #3c9fb1",
"55 c #236e7c",
"65 c #1e6e7d",
"75 c #1c6d7d",
"85 c #51abbd",
"95 c #94ccd7",
":5 c #20616d",
";5 c #909090",
"A5 c #9c9c9b",
"B5 c #838383",
"C5 c #5f7579",
"D5 c #7e9ea2",
"E5 c #b3c8cb",
"F5 c #b7cfd3",
"G5 c #869ea2",
"H5 c #6d8184",
"I5 c #3d9fb2",
"J5 c #3fa0b3",
"K5 c #41a2b4",
"L5 c #43a3b5",
"M5 c #346b73",
"N5 c #226e7c",
"O5 c #266874",
"P5 c #418794",
"Q5 c #53acbd",
"R5 c #54adbe",
"S5 c #59b0c1",
"T5 c #95cdd7",
"U5 c #206370",
"V5 c #989898",
"W5 c #a4a4a4",
"X5 c #bebebc",
"Y5 c #8a9ea1",
"Z5 c #b2c2c5",
"a5 c #aac2c6",
"b5 c #c6d9dc",
"c5 c #b1cccf",
"d5 c #86979a",
"e5 c #567579",
"f5 c #3ea0b2",
"g5 c #40a1b3",
"h5 c #42a2b4",
"i5 c #44a3b5",
"j5 c #46a5b7",
"k5 c #1f6f7e",
"l5 c #1d6e7d",
"m5 c #1c6d7c",
"n5 c #2a6f7b",
"o5 c #3a8693",
"p5 c #4ea6b7",
"q5 c #55aebf",
"r5 c #57afc0",
"s5 c #5bb1c2",
"t5 c #96cdd8",
"u5 c #206673",
"v5 c #939393",
"w5 c #969696",
"x5 c #e7e7e7",
"y5 c #d6d6d6",
"z5 c #cacaca",
"06 c #c4c4c4",
"16 c #cdcdcd",
"26 c #dadcdc",
"36 c #e1e4e4",
"46 c #909494",
"56 c #3a6e76",
"66 c #347b86",
"76 c #378c9b",
"86 c #409cae",
"96 c #45a4b6",
":6 c #47a5b7",
";6 c #356b73",
"A6 c #226d7c",
"B6 c #226e7e",
"C6 c #2c7480",
"D6 c #307e8c",
"E6 c #36828f",
"F6 c #4f9caa",
"G6 c #3b909f",
"H6 c #368e9d",
"I6 c #4099a9",
"J6 c #54a6b6",
"K6 c #80c0cc",
"L6 c #206875",
"M6 c #999999",
"N6 c #979797",
"O6 c #b0b0b0",
"P6 c #7c979c",
"Q6 c #a8bfc3",
"R6 c #85a1a5",
"S6 c #86989b",
"T6 c #8d9293",
"U6 c #7dbac3",
"V6 c #71b0ba",
"W6 c #52929d",
"X6 c #337683",
"Y6 c #347a87",
"Z6 c #3a8a9a",
"a6 c #326e77",
"b6 c #2d737f",
"c6 c #2f7987",
"d6 c #3e848f",
"e6 c #71b2bd",
"f6 c #90ceda",
"g6 c #90ced9",
"h6 c #93d0da",
"i6 c #99d0da",
"j6 c #8cc4cf",
"k6 c #5ba2ae",
"l6 c #2e7b8b",
"m6 c #206b78",
"n6 c #929292",
"o6 c #919191",
"p6 c #909191",
"q6 c #909292",
"r6 c #959c9d",
"s6 c #9abdc3",
"t6 c #98d1dc",
"u6 c #90cfda",
"v6 c #91cfda",
"w6 c #90ced8",
"x6 c #6caab5",
"y6 c #458792",
"z6 c #337582",
"07 c #3b7b87",
"17 c #5e9da7",
"27 c #72b0bb",
"37 c #7fbdc8",
"47 c #97cfd8",
"57 c #addbe3",
"67 c #afdae2",
"77 c #72aeb9",
"87 c #337c89",
"97 c #267280",
":7 c #216f7e",
";7 c #1c7180",
"A7 c #255e68",
"B7 c #296570",
"C7 c #24626c",
"D7 c #306d79",
"E7 c #528f98",
"F7 c #78aeb7",
"G7 c #a1cdd5",
"H7 c #b2dbe3",
"I7 c #88bbc4",
"J7 c #5e97a2",
"K7 c #5c98a3",
"L7 c #76b3be",
"M7 c #92ced9",
"N7 c #93cfda",
"O7 c #87c4ce",
"P7 c #82bac4",
"Q7 c #7eb1ba",
"R7 c #619aa4",
"S7 c #3f8691",
"T7 c #257483",
"U7 c #287786",
"V7 c #1f7080",
"W7 c #246d6d",
"X7 c #22626a",
"Y7 c #22626f",
"Z7 c #296a78",
"a7 c #256774",
"b7 c #266a75",
"c7 c #3c7d8a",
"d7 c #6ca6b0",
"e7 c #9acbd2",
"f7 c #b9dfe6",
"g7 c #b6dfe7",
"h7 c #b0dde5",
"i7 c #b9e0e7",
"j7 c #89bec7",
"k7 c #448d99",
"l7 c #257482",
"m7 c #237280",
"n7 c #1f6c7c",
"o7 c #1b6476",
"p7 c #216672",
"q7 c #246d79",
"r7 c #27717d",
"s7 c #236d7b",
"t7 c #38808c",
"u7 c #5395a1",
"v7 c #287482",
"w7 c #277583",
"x7 c #1f707e",
"y7 c #008080",
"z7 c #177474",
"08 c #1f6c78",
"18 c #1f6e7c",
"28 c #226f80",
"38 c #000000",
"3838383838383838383838383838383838383838383838383838383838383838",
"3838383838383838383838383838383838383838383838383838383838383838",
"3838383838383838383838383838383838383838383838383838383838383838",
"3838383838383838383838383838383838383838383838383838383838383838",
"3838383838383838383838383838383838383838383838383838383838383838",
"383838383838383838383838281808z738383838383838383838383838383838",
"383838383838383838y7x7w7v7u7t7s7r7q7p7o7383838383838383838383838",
"38383838383838n7m7l7k7j7i7h7g7f7e7d7c7b7a7Z7Y7X7W738383838383838",
"3838383838V7U7T7S7R7Q7P7O7N7M7L7K7J7I7H7G7F7E7D7C7B7A73838383838",
"3838;7:797877767574737271707z6y6x6w6v6u6t6s6r6q6p6p6p6o6n6o63838",
"3838m6l6k6j6i6h6g6f6e6d6c6b6a6Z6Y6X6W6V6U6p6T6S6R6Q6P6O6N6o6M638",
"3838L6K6J6I6H6G6F6E6D6C6B6A6;6:696867666564636261606z5y5x5w5v538",
"3838u5t5s5r5q5p5o5n5m5l5k5A6;6j5i5h5g5f5e5d5c5b5a5Z5Y5X5W5V5o638",
"3838U5T5S5q5R5Q5P5O5m5l5k5N5M596L5K5J5I5H5G5F5E5D5Y5C5B5B5A5;538",
"3838:595r5R5Q585P5O57565k555M5i5h5g5f54535251505z4y4x4w4v4u4o638",
"3838t4s4q5r4q4p4o4O5n4m4k555M5h5l4J5k4j4i4h4g4f4e4d4c4b4a4Z4Y438",
"3838X4W4V4q4U4T4S4R4l5Q4P4O4N4M4L4f5K4J4I4H4G4F4E4D4C4B4A4;4Y438",
"3838:4948474645444R41834241404z3y3x3w3v3u3t3s3r3q3p3o3n3m3l3Y438",
"3838k3j3i3h3g3f3e3d3c3b3a3Z3Y3Y3X3W3V3U3T3S3R3Q3P3O3N3M3L3K3J338",
"3838I3H3T4G3F3E3D3C3B3A3;3:39393837363534333231303L3z2y2x2w2v238",
"3838u2t2s2:6j596r2q2p2o2n2m2l2k2j2i2h2g2f2e2d2c2b2a2Z2Y2X2W23838",
"3838V2U2T296S2L5R2Q2g5L4I5P2O2N2M2L2K2J2f2I2H2G2F2E2D2C2B2383838",
"3838A2;2:2L5h5K59292f5k4K4J4827262L2g2524232221202z1y1x138383838",
"3838w1v1u1l4g5J5t1s145r1q1p1o17262K2g2n1m1l1k1j1i1h1g13838383838",
"3838f1e1d1c1b1a1Z1w3J482Y1X1W172L2K2J2V1U1T1S1R1Q1P1O13838383838",
"3838N1M1L1K1J1I1H1G1F1E1D1J4C172B1A1;1:1918171615141313838383838",
"3838383838211101z0y0x0w0v0u0t072s0r0q0p0o0n03838m041l03838383838",
"383838383838383838k0j0i0h0g0f0e0d071c0b038a041Z0Y041X0W0V0U0T038",
"38383838383838383838383838S0R0Q0P0383838O0N0M0L0K041J0I0H0G0F038",
"3838383838383838383838383838383838383838E0D0C0I0B0A0;0L0:0908038",
"3838383838383838383838383838383838383838387060504030201000U0T038",
"3838383838383838383838383838383838383838383838383838383838383838"};
