/* XPM */
static char *image[] = {
"16 16 91 2",
"   c None",
"00 c #585c50",
"10 c #787060",
"20 c #686458",
"30 c #585850",
"40 c #505048",
"50 c #303030",
"60 c #585448",
"70 c #686050",
"80 c #484430",
"90 c #504838",
":0 c #505040",
";0 c #706858",
"A0 c #282828",
"B0 c #504c38",
"C0 c #403c28",
"D0 c #403828",
"E0 c #484030",
"F0 c #605c48",
"G0 c #484838",
"H0 c #202020",
"I0 c #484840",
"J0 c #605c50",
"K0 c #383828",
"L0 c #787c70",
"M0 c #787868",
"N0 c #787468",
"O0 c #606050",
"P0 c #706c50",
"Q0 c #706850",
"R0 c #383830",
"S0 c #182020",
"T0 c #303438",
"U0 c #182018",
"V0 c #101410",
"W0 c #606058",
"X0 c #686858",
"Y0 c #d8d8d8",
"Z0 c #c8ccc8",
"a0 c #b0b4a8",
"b0 c #b0b0a8",
"c0 c #585848",
"d0 c #202828",
"e0 c #a8aca8",
"f0 c #787068",
"g0 c #808078",
"h0 c #d8d8d0",
"i0 c #202420",
"j0 c #c8c4c0",
"k0 c #101010",
"l0 c #e0e4e0",
"m0 c #b0b4b0",
"n0 c #e0e0e0",
"o0 c #181818",
"p0 c #707060",
"q0 c #808070",
"r0 c #484c48",
"s0 c #a8a8a8",
"t0 c #d0ccc8",
"u0 c #383838",
"v0 c #f0f0f0",
"w0 c #788080",
"x0 c #202428",
"y0 c #303838",
"z0 c #888880",
"01 c #e8ece8",
"11 c #b8b8b0",
"21 c #d8dcd8",
"31 c #d0d4d0",
"41 c #787c78",
"51 c #706c60",
"61 c #808478",
"71 c #909088",
"81 c #d0d0c8",
"91 c #f8fcf8",
":1 c #909490",
";1 c #c0c4c0",
"A1 c #c0c0c0",
"B1 c #888c88",
"C1 c #888480",
"D1 c #707068",
"E1 c #303028",
"F1 c #606460",
"G1 c #707870",
"H1 c #989c90",
"I1 c #808480",
"J1 c #787870",
"K1 c #303430",
"L1 c #283028",
"M1 c #585858",
"N1 c #282c28",
"                              N1",
"      N1                    N1N1",
"      N1N1                N1M1L1",
"      K1J1J1J1I1H1I1J1G1F1E1D1N1",
"      C1B1A1;1:1:1919181716151N1",
"      41312121110191919181z051N1",
"  y0x0w0v091u0t00101s0r031q0p0N1",
"o0n0m0N1l0u0k0j001n0K1i0h0g0f0N1",
"k0m0e0d0c0n0b0a0a0Z0Y0Z0J1X0W0N1",
"V0U0T0S0R0Q0P0O0N0M0q0L0K0J0I0N1",
"  o0V0H0G0F0F0E0D0D0K0C0B051N1A0",
"    N1E1J0p0;0J0:090D080706050  ",
"        N140302051105100I050    ",
"          K1L1L1L1N1N1N1A0      ",
"                                ",
"                                "};
