/* XPM */
static char *image[] = {
"48 48 2 1",
"0 c #ffffff",
"1 c #000000",
"111111111111111111111111111111111111111111111111",
"111111111111111111111111111111111111111111111111",
"111111111010101010111111111111111111111111111111",
"111111101010101010101010101010111111111111111111",
"111111010101010101010101010101010111111111111111",
"111110101010101010101010101010101101111111111111",
"111101011011010110101101010101010101111111111111",
"111101101010101010110101011011010101011111111111",
"111010101010101010101010101010101010101111111111",
"111010101010101010101010101010101101010111111111",
"110101010101010101000000000010101010101011111111",
"111010101010110100000000000000101010101010111111",
"110101010101010000000000000000001010101010111111",
"111011011010101000000000000000000101010101111111",
"111010101011010000000010000000000010110110111111",
"110101010101000000001101110000000010101010101111",
"111010101010100000010101011100000010101010101111",
"111010110101000000010101000100000010101010111111",
"111101010110100000001010111011010101010101001111",
"111010101010100000000101010101010101101101101111",
"111101010101000000000000101010101010101010101111",
"111011011010110000000000000001011010101010101111",
"111101010101010000000000000000001011010101010111",
"111101010110101100000000000000000101011011011111",
"111010101010110101000000000000000010101010100111",
"111101011010101010110100000000000001010101011111",
"111011010101010101010101100000000001101010101111",
"111101010101101010101010111000000001010110110111",
"111101011010100001011011001110000001011010101111",
"111101101010100000101010101000000001010101010111",
"111101010101000000010101010100000001010101011011",
"111110101011100000000110110100000001010110101111",
"111110101100100000000001000000000010101010101011",
"111111010110100000000000000000000010110101101011",
"111111010101011000000000000000001011010110101111",
"111111101010101100000000000000010101010101010111",
"111111110110110111010000000010101101011010101011",
"111111110101010101010110111011010101101010110111",
"111111111010101010101011001010101010101011010111",
"111111111101101010110101101101011010101101011111",
"111111111110101101011010101010101011010101010111",
"111111111111101011010101010101101101011010101111",
"111111111111110101010110110110101010101011011111",
"111111111111111110101010101010110101101010111111",
"111111111111111111110101011011010110101101111111",
"111111111111111111111111111111101010110111111111",
"111111111111111111111111111111111111111111111111",
"111111111111111111111111111111111111111111111111"};
