/* XPM */
static char *image[] = {
"64 64 2 1",
"0 c #ffffff",
"1 c #000000",
"1111111111111111111111111111111111111111111111111111111111111111",
"1111111111111111111111111110101010101111111111111111111111111111",
"1111111111111111111111010111111111110101011111111111111111111111",
"1111111111111111111101111000000000000101101011111111111111111111",
"1111111111111111110110000000000000000000011110111111111111111111",
"1111111111111111011000000000000000000000000011011111111111111111",
"1111111111111111100000000000000000000000000000110111111111111111",
"1111111111111010000010000000000000000000000000001101111111111111",
"1111111111111100010000010010000000000000000000000111011111111111",
"1111111111010100000000000000010000100010010010010001111111111111",
"1111111111110000100000000001000010000000000000000001010111111111",
"1111111110100000000000000000000000010010010001000100111111111111",
"1111111101000101001000100000000000000000000100010000001011111111",
"1111111110100000000000001000000000000010100001000010010111111111",
"1111110100010101010001000101010010000000001000010001001010111111",
"1111111101000000000000100000001000100000000010001000000111111111",
"1111110000101010101010010101000100010100000000100101010001011111",
"1111011010000001000001000010101001000010100000000001001010111111",
"1111101001010100101010010100000100101001001000001010010001101111",
"1111100100101010010001001001010010010000000101000001001010111111",
"1110101010000101001010100101001001000000000000000010100100101011",
"1111010010110001010100101000101010000000000010100000010111011111",
"1101010101001100100010010101010010000110110000100001111010110111",
"1111010100100101010101010010010100001001001000010001010111101101",
"1101010010101010101010101010100100010100000000111000111101010111",
"1110101010101010010100100101010000001000000100010100010111111011",
"1101010101010101010010101010010100010100001100011000101101010111",
"1010101010101010101010101001010100010010110000101100011011101101",
"1110101101010101010101010101010000001011011000101000010110110111",
"1010110101101010101010100101010100001101100000110110001101101010",
"1101010101010101010101010001010110000010100001011010001011011111",
"1010101101011010101010100000010101000000000010101100001101110010",
"1101110101101011011010111000001010100000000101101010001011011011",
"1010101101010101010101001000000001011010011010110100001101101101",
"1101101011011011010110110100000000101010101011010000010110110111",
"1010110101101101011010101011000000000010110100000000001011010101",
"1101011110101010101010101010110100000000000000000000010101101011",
"1101101010110101101010101010101010000000000000001110001110110111",
"1101010101010110101011010101010101101000000001101000010101010101",
"1110111011011010101010101010101010010101011101010100010110110111",
"1010101010101010101010101010101010101010100101010000011011010101",
"1110101101101010101010101010101010101010110101000000101010101111",
"1110101010101011010101010101010101010101001000000011010101010111",
"1110101010101101010101010101001001001010100000001010101011011011",
"1111010101010101000000000010101010100000000000101010101010101111",
"1111101101010100000000000000000000000000000101010101010101010111",
"1110100101001011010100000000000000000001010101010101010110111111",
"1111110101010001010011111010000010010101010101010100101001011111",
"1111110101010100101010000101101010101010100101010010010101111111",
"1111101010101010001001010100010100100100101010001001101010111111",
"1111111101010001010100101010100101010010100001010100101011111111",
"1111111010101100100010000010010010001010010100000011010101111111",
"1111111110010010001000101000100100100000000010101010010111111111",
"1111111101101010100010000010000000001010101000010101010111111111",
"1111111111010101010000101000010010100000000101010100101111111111",
"1111111111101001001010000010000000000100100001010011011111111111",
"1111111111110100101010010000101001000001001101001010111111111111",
"1111111111111111000101001000000000010100100010010101111111111111",
"1111111111111101010000100101010010000010010100101111111111111111",
"1111111111111111111101010010001001010101001010111111111111111111",
"1111111111111111100101001001010010010000101011011111111111111111",
"1111111111111111111110110100100100100110101011111111111111111111",
"1111111111111111111111010110101010101010111111111111111111111111",
"1111111111111111111111111111010110110111111111111111111111111111"};
