/* XPM */
static char *image[] = {
"64 64 2 1",
"0 c #ffffff",
"1 c #000000",
"1111111111111111111111111111111111111111111111111111111111111111",
"1111111111111111111111111111111111111111111111111111111111111111",
"1111111111111111111111111111111111111111111111000000011111111111",
"1111101111111111111111111111111111111111111100010010000111111111",
"1111000111111111111111111111111111111111111000000000000001111111",
"1110000000111111111111111111111111111111110010000000000111111111",
"1100000001111111111111111111111111111111101000001000111011111111",
"1100000000111111111111111111111111111111100000000011011111111111",
"1110000100111111111111111111111111111111100000000011111111111111",
"1111000001001111111111111111111111111111100100000111111111111111",
"1111100100001111111111111111111111111111010000000011111111111111",
"1111110000000111111111111111111111111111000000000111111111111111",
"1111111110100011111111111111111111111111001000010011111111111111",
"1111111111000000111111111111111111111111000000000011111111111111",
"1111111111100000111111111111111111111110101001000001111111101111",
"1111111111110000010111111111111111111110000000000000111110010111",
"1111111111111010001111111111111111111110101000010101001000101111",
"1111111111111100000011111111111111111110000011000000100010011111",
"1111111111111110000010111111111111111101001001100010010001011111",
"1111111111111111000001011111111111111100110010100100101001011111",
"1111111111111111100000101111111111111010011001110000010010111111",
"1111111111111111110000011111111111111000010000110011001010111111",
"1111111111111111111010000111111111110000011100010100101011111111",
"1111111111111111111100000011111111100100011001101010110111111111",
"1111111111111111111110001001111111000000101110010101011111111111",
"1111111111111111111111000000111110010110010101010111111111111111",
"1111111111111111111111110000011100011101001010111111111111111111",
"1111111111111111111111110000000000101110101111111111111111111111",
"1111111111111111111111111100010101111000111111111111111111111111",
"1111111111111111111111111110000011011010111111111111111111111111",
"1111111111111111111111111111000101110011111111111111111111111111",
"1111111111111111111111111110100000101011111111111111111111111111",
"1111111111111111111111111000110000010110011111111111111111111111",
"1111111111111111111111111001101000101100101111111111111111111111",
"1111111111111111111111100010111100000000101111111111111111111111",
"1111111111111111111111010011111110001000010111111111111111111111",
"1111111111111111111110001110111001000010010111111111111111111111",
"1111111111111111111100101011110011101000100111111111111111111111",
"1111111111111111111000111111100111000010010011111111111111111111",
"1111111111111111110010101110010110101001001000111111111111111111",
"1111111111111111100011111011001111010100000101001111111111111111",
"1111111111111111000110111100111111101010100000000111111111111111",
"1111111111111110001111101101011111110101001010101001111111111111",
"1111111111111100011010111001111111111110100000000101111111111111",
"1111111111111000111111110011111111111111010100010010011111111111",
"1111111111100001101111100111111111111111100010000100101111111111",
"1111111111100111111011001011111111111111110100100001010111111111",
"1111111110001010111110010111111111111111110010001000001011111111",
"1111111100011111101100101111111111111111111010100001001011111111",
"1111111010101011111010111111111111111111111010010100010000111111",
"1111110000111111110001111111111111111111111101001001000101011111",
"1111101010001101100101111111111111111111111111100100000001010111",
"1111000101100111010011111111111111111111111111010010101000010111",
"1111011111100111001111111111111111111111111111110101000101001011",
"1110001111110000010111111111111111111111111111111000101000010011",
"1110101111111010101111111111111111111111111111111110010001001011",
"1110011111110000111111111111111111111111111111111101001010000111",
"1111001111101011111111111111111111111111111111111111100100101111",
"1111000111100101111111111111111111111111111111111111010010011111",
"1111010000010111111111111111111111111111111111111111111010111111",
"1111101011001111111111111111111111111111111111111111111011111111",
"1111111000111111111111111111111111111111111111111111111111111111",
"1111111111111111111111111111111111111111111111111111111111111111",
"1111111111111111111111111111111111111111111111111111111111111111"};
