/* XPM */
static char *image[] = {
"32 32 369 2",
"   c None",
"00 c #7b7d78",
"10 c #7e7f7b",
"20 c #858882",
"30 c #989a96",
"40 c #a3a4a0",
"50 c #a2a3a0",
"60 c #999b97",
"70 c #8b8d89",
"80 c #797b77",
"90 c #596066",
":0 c #1e4378",
";0 c #204882",
"A0 c #1d447a",
"B0 c #80827e",
"C0 c #c9cac7",
"D0 c #858782",
"E0 c #868782",
"F0 c #cccccb",
"G0 c #f7f7f6",
"H0 c #e1e1e1",
"I0 c #d0d0d0",
"J0 c #c8c8c8",
"K0 c #c0c0c0",
"L0 c #c1c1c1",
"M0 c #adb2b9",
"N0 c #2c538b",
"O0 c #456da5",
"P0 c #6288bd",
"Q0 c #4a72a7",
"R0 c #224c89",
"S0 c #b2b3af",
"T0 c #d0d1cf",
"U0 c #c5c6c3",
"V0 c #d7d8d4",
"W0 c #9ea09b",
"X0 c #91938e",
"Y0 c #636362",
"Z0 c #2c2c2c",
"a0 c #444442",
"b0 c #7b7c77",
"c0 c #234c86",
"d0 c #4f75ac",
"e0 c #6080aa",
"f0 c #628fc6",
"g0 c #86a9d4",
"h0 c #557bac",
"i0 c #244b87",
"j0 c #90938e",
"k0 c #dbdcd8",
"l0 c #c7c9c4",
"m0 c #dfe1de",
"n0 c #e9e9e6",
"o0 c #bbbcb9",
"p0 c #bebebd",
"q0 c #abacaa",
"r0 c #979ea4",
"s0 c #2d548e",
"t0 c #5277ac",
"u0 c #6480a7",
"v0 c #5a87bf",
"w0 c #6188b8",
"x0 c #769ecb",
"y0 c #87a7cd",
"z0 c #26518c",
"01 c #828480",
"11 c #91928e",
"21 c #d6d9d5",
"31 c #e6e7e3",
"41 c #cecfcb",
"51 c #dadbd8",
"61 c #d3d4cf",
"71 c #8c8d89",
"81 c #8b8c88",
"91 c #7b8185",
":1 c #2a508a",
";1 c #547aae",
"A1 c #6883aa",
"B1 c #5b87c0",
"C1 c #6089b8",
"D1 c #6b93c1",
"E1 c #b6cde6",
"F1 c #5e83b3",
"G1 c #244e8c",
"H1 c #848680",
"I1 c #868884",
"J1 c #b5b5b3",
"K1 c #dcdedb",
"L1 c #9a9b97",
"M1 c #757f88",
"N1 c #587aaa",
"O1 c #6f8aad",
"P1 c #5e8ac2",
"Q1 c #6a92c1",
"R1 c #b7cee6",
"S1 c #7394be",
"T1 c #254f8a",
"U1 c #858883",
"V1 c #b5b7b3",
"W1 c #dcded9",
"X1 c #babbb8",
"Y1 c #c1c3bf",
"Z1 c #e1e2de",
"a1 c #b0b3b0",
"b1 c #8b8f8e",
"c1 c #6889b3",
"d1 c #6088b7",
"e1 c #6b95c1",
"f1 c #b9d0e8",
"g1 c #7191bc",
"h1 c #244f8b",
"i1 c #8a8d89",
"j1 c #9d9e9a",
"k1 c #c3c5c0",
"l1 c #b6b6b3",
"m1 c #cbccc8",
"n1 c #8e918f",
"o1 c #7e95aa",
"p1 c #bbd1e8",
"q1 c #7293bd",
"r1 c #254e8a",
"s1 c #8f908d",
"t1 c #cccdc8",
"u1 c #cfd1cd",
"v1 c #b1b3af",
"w1 c #cfd0cc",
"x1 c #d9dbd7",
"y1 c #a0a39f",
"z1 c #8b959b",
"02 c #2d538a",
"12 c #8d8f8b",
"22 c #b9bbb5",
"32 c #d6d8d3",
"42 c #b4b6b2",
"52 c #c0c2be",
"62 c #dee0db",
"72 c #b0b2b0",
"82 c #949592",
"92 c #5c5e5b",
":2 c #535450",
";2 c #8e8f8c",
"A2 c #9ea09c",
"B2 c #d5d7d3",
"C2 c #c1c4bf",
"D2 c #b2b4b0",
"E2 c #d7dad4",
"F2 c #cdd0cc",
"G2 c #979895",
"H2 c #9d9e99",
"I2 c #9c9d9a",
"J2 c #6f736e",
"K2 c #5e5f5c",
"L2 c #70716e",
"M2 c #515250",
"N2 c #8a8886",
"O2 c #979894",
"P2 c #cbcdc9",
"Q2 c #cfd1cc",
"R2 c #d5d7d2",
"S2 c #e1e3de",
"T2 c #dedfdc",
"U2 c #b8b9b6",
"V2 c #d8d9d6",
"W2 c #cfd0cd",
"X2 c #aaaca8",
"Y2 c #9c9f9a",
"Z2 c #888a85",
"a2 c #7e807b",
"b2 c #9c9d99",
"c2 c #656563",
"d2 c #a07472",
"e2 c #d55454",
"f2 c #bc7171",
"g2 c #999793",
"h2 c #b9bbb7",
"i2 c #e3e5e1",
"j2 c #dfe0dc",
"k2 c #dfe1db",
"l2 c #e1e3df",
"m2 c #e3e5e0",
"n2 c #eaebe8",
"o2 c #eeefec",
"p2 c #bbbdb9",
"q2 c #9d9d9a",
"r2 c #8a8c87",
"s2 c #c5c6c1",
"t2 c #888682",
"u2 c #ad5250",
"v2 c #c80101",
"w2 c #b90000",
"x2 c #a90000",
"y2 c #a32625",
"z2 c #9d8886",
"03 c #a8a8a5",
"13 c #e0e2de",
"23 c #dde0db",
"33 c #dbded8",
"43 c #dee0dc",
"53 c #c2c4c0",
"63 c #ccceca",
"73 c #edeeec",
"83 c #9fa09d",
"93 c #8a8b86",
":3 c #8d8e89",
";3 c #c4c5c0",
"A3 c #95938e",
"B3 c #ae4240",
"C3 c #ba0000",
"D3 c #ae0000",
"E3 c #920000",
"F3 c #932121",
"G3 c #7a0c0c",
"H3 c #8d6f6d",
"I3 c #b8b9b5",
"J3 c #e2e4df",
"K3 c #dee1da",
"L3 c #e6e7e4",
"M3 c #a0a09e",
"N3 c #9a9a96",
"O3 c #9c9d9b",
"P3 c #afb0ad",
"Q3 c #b2b2af",
"R3 c #888a86",
"S3 c #8c8d88",
"T3 c #c4c5c1",
"U3 c #95948f",
"V3 c #9f4341",
"W3 c #a50000",
"X3 c #9b0000",
"Y3 c #900000",
"Z3 c #830000",
"a3 c #760000",
"b3 c #924646",
"c3 c #a16e6e",
"d3 c #775150",
"e3 c #bbbcb8",
"f3 c #e3e6e0",
"g3 c #eaece8",
"h3 c #abada9",
"i3 c #9b9c99",
"j3 c #999a97",
"k3 c #8e8f88",
"l3 c #c5c5c0",
"m3 c #91918c",
"n3 c #9f5d5b",
"o3 c #8c0000",
"p3 c #840000",
"q3 c #7b0000",
"r3 c #650000",
"s3 c #580000",
"t3 c #692a2a",
"u3 c #a68383",
"v3 c #997f7e",
"w3 c #a4a29f",
"x3 c #eceeeb",
"y3 c #ebece9",
"z3 c #abaca8",
"04 c #898b87",
"14 c #90928c",
"24 c #a1a29c",
"34 c #c6c6c2",
"44 c #8f918c",
"54 c #b29c9a",
"64 c #770707",
"74 c #6e0000",
"84 c #700000",
"94 c #710000",
":4 c #6c0000",
";4 c #670000",
"A4 c #620000",
"B4 c #6f1d1d",
"C4 c #ab8383",
"D4 c #c6afaf",
"E4 c #96928f",
"F4 c #d4d5d1",
"G4 c #f5f6f4",
"H4 c #cecfcc",
"I4 c #9d9d9b",
"J4 c #898b86",
"K4 c #9c9d97",
"L4 c #cdcdc8",
"M4 c #dfdfdc",
"N4 c #b0b1ae",
"O4 c #8d8d8b",
"P4 c #c79696",
"Q4 c #a80909",
"R4 c #bf3434",
"S4 c #d66464",
"T4 c #e88b8b",
"U4 c #e78a8a",
"V4 c #df7474",
"W4 c #cf5252",
"X4 c #c14a4a",
"Y4 c #cd8989",
"Z4 c #d8b1b1",
"a4 c #914f4f",
"b4 c #989694",
"c4 c #caccc8",
"d4 c #f4f4f3",
"e4 c #dcdddb",
"f4 c #9e9f9b",
"g4 c #898a86",
"h4 c #c4c4c0",
"i4 c #ebebe8",
"j4 c #e4e4e3",
"k4 c #8f918b",
"l4 c #8f8b8a",
"m4 c #d29191",
"n4 c #cf0505",
"o4 c #d90707",
"p4 c #dd0606",
"q4 c #db0202",
"r4 c #d70101",
"s4 c #d00000",
"t4 c #c70000",
"u4 c #c82a2a",
"v4 c #da8383",
"w4 c #e4b1b1",
"x4 c #a92929",
"y4 c #752f2f",
"z4 c #9a9a97",
"05 c #9a9b98",
"15 c #9da09b",
"25 c #9a9c99",
"35 c #9c9e9b",
"45 c #8c8e88",
"55 c #d0d1ce",
"65 c #989996",
"75 c #b19393",
"85 c #981b1b",
"95 c #920404",
":5 c #990303",
";5 c #a20101",
"A5 c #a30000",
"B5 c #a00000",
"C5 c #980000",
"D5 c #a53838",
"E5 c #c18888",
"F5 c #d5b7b7",
"G5 c #6b1414",
"H5 c #714646",
"I5 c #8d8f8a",
"J5 c #9a9a9a",
"K5 c #482424",
"L5 c #501a1a",
"M5 c #501515",
"N5 c #4e1010",
"O5 c #480e0e",
"P5 c #987b7b",
"Q5 c #d4cbcb",
"R5 c #f5f3f3",
"S5 c #e8e8e8",
"T5 c #f4f4f4",
"U5 c #ffffff",
"V5 c #a9a9a9",
"W5 c #f8f8f8",
"X5 c #f0f0f0",
"Y5 c #ececec",
"Z5 c #eaeaea",
"a5 c #ededed",
"b5 c #eeeeee",
"c5 c #f6f6f6",
"d5 c #fefefe",
"e5 c #a4a4a4",
"f5 c #959595",
"g5 c #909090",
"h5 c #949494",
"i5 c #929292",
"j5 c #919191",
"                                                                ",
"                        j5j5j5j5j5j5j5j5i5                      ",
"                      j5j5              j5i5                    ",
"                      i5h5j5j5g5g5g5j5j5f5h5                    ",
"                      e5d5c5b5a5Z5Z5Y5X5W5V5j5                  ",
"                    i5    U5                g5                  ",
"                    j5    U5                g5                  ",
"                    j5    T5                j5                  ",
"                    j5  W5S5                i5                  ",
"                  j5    R5Q5P5O5N5M5L5K5    J5j5    I5          ",
"                  i5H5G5F5E5D5C5B5A5;5:5958575g5  655545        ",
"          35251505z4y4x4w4v4u4t4s4r4q4p4o4n4m4l4k4j4i4h4g4      ",
"            f4e4d4c4b4a4Z4Y4X4W4V4U4T4S4R4Q4P4O4N4M4L4K4J4      ",
"              I4H4G4F4E4D4C4B4A4;4:494847464544434241404        ",
"                z3y3x3w3v3u3t3s3r384q3p3o3n3m3l3k3g4            ",
"      j3i3    25h3g3f3e3d3c3b3a3Z3Y3X3W3V3U3T3S3R3              ",
"      Q3P3O3N3M3L3K3J3I3H3G3F3E3B5D3C3B3A3;3:393                ",
"      8373635343J333231303z2y2x2w2v2u2t2s245r2                  ",
"      q2p2o2n2m2l2m2k2j2i2h2g2f2e2d2c2b2a2Z2                    ",
"        Y2X2W2V255U2T2S2R2Q2P2O2N2M2L2K2J2                      ",
"            I2b2H2G2j3F2E2D2C2B2A2;2:292                        ",
"                      8272625242322212                          ",
"                      02z1y1x1w1v1u1t1s145                      ",
"                    r1q1p1o1n1m1x1l1k1V2j1i1                    ",
"                  h1g1f1e1d1c1b1a1Z1Y1X1W1V1U1                  ",
"                T1S1R1Q1d1P1O1N1M1L1K155J1F4P2I1H1              ",
"              G1F1E1D1C1B1A1;1:191817161514131211101            ",
"              z0y0x0w0v0u0t0s0r0Z2q0p0Z2o0n0m0l0k0j0            ",
"              i0h0g0f0e0d0c0    b0a0Z0Y0X0W0V0U0T0S0            ",
"                R0Q0P0O0N0M0L0K0J0I0H0G0F0E0D0C055B0            ",
"                  A0;0:09080706050403020      1000              ",
"                                                                "};
