/* XPM */
static char *image[] = {
"32 32 317 2",
"   c None",
"00 c #ee7903",
"10 c #f47a01",
"20 c #f27a02",
"30 c #d36b03",
"40 c #e07203",
"50 c #f5870e",
"60 c #fbcb40",
"70 c #fcdb4a",
"80 c #fab934",
"90 c #f27d04",
":0 c #8d4700",
";0 c #f6870e",
"A0 c #fdde4b",
"B0 c #feb539",
"C0 c #ffa635",
"D0 c #ffa531",
"E0 c #feb733",
"F0 c #fcd143",
"G0 c #f37e05",
"H0 c #9e4f00",
"I0 c #f27c05",
"J0 c #fccb41",
"K0 c #feb743",
"L0 c #ffc15d",
"M0 c #ffd669",
"N0 c #ffc84e",
"O0 c #ffae38",
"P0 c #feb333",
"Q0 c #fcd547",
"R0 c #f47e05",
"S0 c #f67a02",
"T0 c #fbdc4c",
"U0 c #ffb95b",
"V0 c #ffcc52",
"W0 c #ffaa3a",
"X0 c #ff8c13",
"Y0 c #ffb82b",
"Z0 c #ffa93a",
"a0 c #fcd648",
"b0 c #fcd346",
"c0 c #f57e04",
"d0 c #f57c03",
"e0 c #fcd348",
"f0 c #ffc16d",
"g0 c #ffbb30",
"h0 c #ffe77f",
"i0 c #ffa530",
"j0 c #ffb92d",
"k0 c #ffae47",
"l0 c #fed140",
"m0 c #fcda4a",
"n0 c #fcd145",
"o0 c #f57d04",
"p0 c #fabb36",
"q0 c #fec768",
"r0 c #ffcb6f",
"s0 c #ffbd33",
"t0 c #ffbb31",
"u0 c #ffbe56",
"v0 c #ffb946",
"w0 c #fed742",
"x0 c #fdc741",
"y0 c #fcdb4b",
"z0 c #fbce42",
"01 c #f67c03",
"11 c #f67e03",
"21 c #fcd14a",
"31 c #ffc972",
"41 c #ffcd83",
"51 c #ffc778",
"61 c #ffbf59",
"71 c #fed241",
"81 c #fdc540",
"91 c #fcbb40",
":1 c #fbcb41",
";1 c #f57b04",
"A1 c #f58107",
"B1 c #fcd848",
"C1 c #fdd24c",
"D1 c #fed747",
"E1 c #fed743",
"F1 c #fdce41",
"G1 c #fdc541",
"H1 c #fdbc3f",
"I1 c #fcdd4b",
"J1 c #fbc83f",
"K1 c #f57b03",
"L1 c #f58309",
"M1 c #fdd344",
"N1 c #fdcd40",
"O1 c #fdc640",
"P1 c #fdbd40",
"Q1 c #fcb33e",
"R1 c #fcad36",
"S1 c #fce54e",
"T1 c #f7ad2c",
"U1 c #ec7908",
"V1 c #f7850b",
"W1 c #fcdc4a",
"X1 c #fdc73a",
"Y1 c #fdba3c",
"Z1 c #fcb33f",
"a1 c #fda62e",
"b1 c #fdb42c",
"c1 c #fcdf4c",
"d1 c #f18a14",
"e1 c #716d73",
"f1 c #f6870d",
"g1 c #fcde4b",
"h1 c #fdbc33",
"i1 c #fcaa36",
"j1 c #fcaf3e",
"k1 c #fda72f",
"l1 c #fdb52c",
"m1 c #fcdc4b",
"n1 c #f38815",
"o1 c #efb57c",
"p1 c #8eaccf",
"q1 c #4975ae",
"r1 c #6e93c1",
"s1 c #5c86b9",
"t1 c #3a69a8",
"u1 c #3667a6",
"v1 c #3868a7",
"w1 c #f57c02",
"x1 c #f8890f",
"y1 c #fbdf4c",
"z1 c #fdb42f",
"02 c #fda024",
"12 c #fdb72e",
"22 c #fcdb49",
"32 c #f18613",
"42 c #b39070",
"52 c #88abd3",
"62 c #e8eff7",
"72 c #d6e2f0",
"82 c #d6e3f1",
"92 c #bdd2e8",
":2 c #b4cce5",
";2 c #98b7da",
"A2 c #648dc0",
"B2 c #f67c02",
"C2 c #f48c13",
"D2 c #fbe04c",
"E2 c #fdce3f",
"F2 c #fcd949",
"G2 c #f18410",
"H2 c #b19379",
"I2 c #7aa2ce",
"J2 c #759bc8",
"K2 c #7198c5",
"L2 c #9ebede",
"M2 c #98b9db",
"N2 c #92b5da",
"O2 c #90b3d9",
"P2 c #8cb1d8",
"Q2 c #8ab0d7",
"R2 c #87aed5",
"S2 c #6e98c9",
"T2 c #3d6daa",
"U2 c #3869a7",
"V2 c #f67b04",
"W2 c #f38c15",
"X2 c #fac23b",
"Y2 c #f58512",
"Z2 c #bfa188",
"a2 c #7fa4cf",
"b2 c #799fca",
"c2 c #6c92c0",
"d2 c #98b6da",
"e2 c #a2bfdf",
"f2 c #a1bfdf",
"g2 c #9dbcdd",
"h2 c #99b9dc",
"i2 c #94b6da",
"j2 c #8eb2d8",
"k2 c #87add6",
"l2 c #7da6d1",
"m2 c #3b6ca9",
"n2 c #cc7827",
"o2 c #968f90",
"p2 c #ebf1f8",
"q2 c #8fadd2",
"r2 c #7096c2",
"s2 c #a0bcdc",
"t2 c #acc6e2",
"u2 c #aec8e3",
"v2 c #afc8e3",
"w2 c #adc7e3",
"x2 c #aac5e2",
"y2 c #a5c2e0",
"z2 c #a0bede",
"03 c #9abadc",
"13 c #93b5da",
"23 c #8bb0d7",
"33 c #709ac9",
"43 c #3768a6",
"53 c #82a2c9",
"63 c #a8c2df",
"73 c #b5cde6",
"83 c #b9cfe7",
"93 c #bbd1e8",
":3 c #bcd2e8",
";3 c #bcd1e8",
"A3 c #bad0e7",
"B3 c #b7cee6",
"C3 c #b6cde5",
"D3 c #b3cbe6",
"E3 c #9ebdde",
"F3 c #95b7db",
"G3 c #8cb0d7",
"H3 c #5381b7",
"I3 c #3767a6",
"J3 c #edf2f9",
"K3 c #bdd1e8",
"L3 c #c2d5ea",
"M3 c #c6d8eb",
"N3 c #c9daec",
"O3 c #c7d9ec",
"P3 c #c8d9eb",
"Q3 c #c1d4e9",
"R3 c #547fb4",
"S3 c #93b1d4",
"T3 c #9fbede",
"U3 c #96b7db",
"V3 c #739bc9",
"W3 c #6087b8",
"X3 c #e6eef6",
"Y3 c #c8daec",
"Z3 c #cadbed",
"a3 c #ccdcee",
"b3 c #ccdced",
"c3 c #d0dfee",
"d3 c #cfdded",
"e3 c #547eb4",
"f3 c #3869a6",
"g3 c #3a6aa7",
"h3 c #99b6d8",
"i3 c #a9c4e1",
"j3 c #9fbdde",
"k3 c #8cafd6",
"l3 c #3667a5",
"m3 c #86a5cb",
"n3 c #cbdced",
"o3 c #cdddee",
"p3 c #cedeee",
"q3 c #cfdeee",
"r3 c #d3e1ef",
"s3 c #d4e1f0",
"t3 c #5981b5",
"u3 c #9fbbdb",
"v3 c #a7c3e1",
"w3 c #9cbbdd",
"x3 c #3a6aa8",
"y3 c #789ac3",
"z3 c #ceddee",
"04 c #cfdeef",
"14 c #d4e2f0",
"24 c #5e86b8",
"34 c #3c6ca8",
"44 c #3f6eaa",
"54 c #a1bddc",
"64 c #a3c0df",
"74 c #4875ae",
"84 c #e5edf6",
"94 c #d0dfef",
":4 c #d1e0ef",
";4 c #d3e1f0",
"A4 c #d7e4f1",
"B4 c #dbe7f2",
"C4 c #638aba",
"D4 c #4472ac",
"E4 c #8daed3",
"F4 c #d9e5f1",
"G4 c #d4e2f1",
"H4 c #d3e2f0",
"I4 c #dee8f3",
"J4 c #6a8fbd",
"K4 c #3b6ba8",
"L4 c #a0b9d7",
"M4 c #d5e3f1",
"N4 c #d7e4f2",
"O4 c #e0eaf4",
"P4 c #7e9fc6",
"Q4 c #3969a7",
"R4 c #cedbec",
"S4 c #dae6f3",
"T4 c #d9e6f2",
"U4 c #dfe9f4",
"V4 c #6f93bf",
"W4 c #5f86b7",
"X4 c #dde8f3",
"Y4 c #dee9f4",
"Z4 c #dce7f2",
"a4 c #6188b9",
"b4 c #5680b4",
"c4 c #c7d7ea",
"d4 c #dfeaf4",
"e4 c #e1ebf5",
"f4 c #dfeaf5",
"g4 c #d8e4f1",
"h4 c #3c6ba8",
"i4 c #3b6aa7",
"j4 c #8eabcf",
"k4 c #c4d5e8",
"l4 c #dde8f4",
"m4 c #dce8f3",
"n4 c #d1dfee",
"o4 c #507bb1",
"p4 c #3b6ba7",
"q4 c #3f6da9",
"r4 c #3d6ca8",
"s4 c #5881b5",
"t4 c #537db3",
"u4 c #3a69a7",
"v4 c #3868a6",
"                                                                ",
"              v4u4t4s4u4r4q4                                    ",
"              p4o4n4m4l4k4j4i4                                  ",
"                h4s4g4f4e4d4c4b4r4                              ",
"                  r4a4Z4Y4l4l4X4W4                              ",
"                    r4V4U4m4T4S4R4r4                            ",
"    Q4                r4P4O4N4M4X4L4q4                          ",
"  K4Q4Q4              r4J4I4M4H4G4F4Q4                          ",
"  Q4E4D4            r4C4B4A4;4:4948474                          ",
"  v4645444        3424g414:49404z3e4y3                          ",
"  x3w3v3u3h4    h4t3s3r3q3p3p3o3n3e4m3                          ",
"  l3k3j3i3h3g3f3e3d3c3b3a3b3n3Z3Y3X3W3                          ",
"  x3V3U3T3i3S3R3Q3P3O3N3Z3Y3M3L3K3J3q4                          ",
"  I3H3G3F3E3v3D3C3B3A3;3:393837363U453g3                        ",
"    4333231303z2y2x2w2v2v2u2t2s2r2q2p2o2n2                      ",
"      m2l2k2j2i2h2g2z2f2e2f2d2c2b2a2Z2Y2X2W2V2                  ",
"      U2T2S2R2Q2P2O2N2i2M2L2K2J2I2H2G2F2E2D2C2B2                ",
"          v4A2;2w2:292a3827262524232221202z1y1x1w1              ",
"            v1u1t1s1r1q1l3u1p1o1n1m1l1k1j1i1h1g1f1              ",
"                            e1d1c1b1a1j1j1Z1Y1X1W1V1            ",
"                            U1T1S1R1j1j1Q1P1O1N1M122L1          ",
"                              K1J1I1Z1Q1H1G1F1E1D1C1B1A1        ",
"                                ;1:1m19181F171615141312111      ",
"                                  01z0y0x0w0v0u0t0s0r0q0p001    ",
"                                    o0n0m0l0k0j0i0h0g0f0e0d0    ",
"                                      c0b0a0Z0Y0X0W0V0U0T0S0    ",
"                                        R0Q0P0O0N0M0L0K0J0I0    ",
"                                        H0G0F0E0D0C0B0A0;0      ",
"                                          :0908070D2605040      ",
"                                              30201000          ",
"                                                                ",
"                                                                "};
