/* XPM */
static char *image[] = {
"22 22 2 1",
"0 c #ffffff",
"1 c #000000",
"1110101010101010101011",
"1110000000000000000001",
"1100000000000000000000",
"1110000000000000000001",
"1100010000000000001001",
"1110000000111100000000",
"1100000000111100000001",
"1110000011110110010001",
"1100000001111110000000",
"1110001001001010000001",
"1100000001101010001001",
"1110000001111101000000",
"1100001000000100100001",
"1110000000001000110001",
"1100000000010010001000",
"1110001010110001000101",
"1101000000001000000110",
"1110101010101101000101",
"1111111111111110011011",
"1111111111111101010101",
"1111111111111111101110",
"1111111111111111111111"};
