/* XPM */
static char *image[] = {
"48 48 600 2",
"   c None",
"00 c #898b85",
"10 c #8b8e88",
"20 c #8c8e89",
"30 c #8e908a",
"40 c #8f918b",
"50 c #8f918c",
"60 c #90928c",
"70 c #92938e",
"80 c #92938f",
"90 c #93948f",
":0 c #939490",
";0 c #969792",
"A0 c #949690",
"B0 c #eeefee",
"C0 c #ececeb",
"D0 c #979994",
"E0 c #8e908b",
"F0 c #b0b3ad",
"G0 c #b6b9b4",
"H0 c #babcb6",
"I0 c #c0c1bd",
"J0 c #c2c5c0",
"K0 c #cbcdca",
"L0 c #c0c3be",
"M0 c #e0e0de",
"N0 c #8f908c",
"O0 c #a8aca5",
"P0 c #cfd0cd",
"Q0 c #ced0cd",
"R0 c #cccdcb",
"S0 c #b9bcb7",
"T0 c #8f918d",
"U0 c #5d605c",
"V0 c #dddddb",
"W0 c #9a9c96",
"X0 c #90928d",
"Y0 c #cecfca",
"Z0 c #babcb7",
"a0 c #9b9d97",
"b0 c #91938e",
"c0 c #dddfdc",
"d0 c #cccec8",
"e0 c #666763",
"f0 c #afb2ab",
"g0 c #9c9e98",
"h0 c #92948e",
"i0 c #d0d1cc",
"j0 c #d2d3cf",
"k0 c #c3c6bf",
"l0 c #bfc2bc",
"m0 c #b3b6b0",
"n0 c #6b6d68",
"o0 c #b1b5ae",
"p0 c #dddedc",
"q0 c #93958f",
"r0 c #d4d6d1",
"s0 c #d7d7d5",
"t0 c #c9cac7",
"u0 c #c7c8c6",
"v0 c #cacbc9",
"w0 c #c8c9c6",
"x0 c #c2c3c0",
"y0 c #bfc1bd",
"z0 c #bcbeba",
"01 c #b6b9b5",
"11 c #b8b8b5",
"21 c #70726e",
"31 c #b4b8b1",
"41 c #939691",
"51 c #b9bcb6",
"61 c #cfd0cc",
"71 c #a4a5a1",
"81 c #a0a19c",
"91 c #bdc0b9",
":1 c #b9bbb4",
";1 c #767873",
"A1 c #9ea29b",
"B1 c #dddedb",
"C1 c #7b7e79",
"D1 c #e1e2e0",
"E1 c #a0a39c",
"F1 c #e2e3e0",
"G1 c #939591",
"H1 c #a7a9a5",
"I1 c #8d8f89",
"J1 c #81847e",
"K1 c #bdbfba",
"L1 c #e2e3e1",
"M1 c #a1a49d",
"N1 c #979a94",
"O1 c #838680",
"P1 c #b2b3ae",
"Q1 c #939590",
"R1 c #b3b4b1",
"S1 c #bcbeb9",
"T1 c #b8bcb6",
"U1 c #a1a39e",
"V1 c #868984",
"W1 c #989b95",
"X1 c #898c86",
"Y1 c #e6e6e3",
"Z1 c #e0e2df",
"a1 c #c7c9c2",
"b1 c #8c8f89",
"c1 c #eaeae9",
"d1 c #cccecb",
"e1 c #8f928c",
"f1 c #e5e5e2",
"g1 c #c7c8c4",
"h1 c #c4c6c1",
"i1 c #c1c2bd",
"j1 c #bbbdb8",
"k1 c #b6b7b1",
"l1 c #b2b4ad",
"m1 c #b3b7b0",
"n1 c #bcbdb8",
"o1 c #91948f",
"p1 c #c4c7c2",
"q1 c #9a9c97",
"r1 c #d1d2cf",
"s1 c #959892",
"t1 c #e0e1dd",
"u1 c #bfc0bb",
"v1 c #d1d2ce",
"w1 c #989a94",
"x1 c #a5a8a1",
"y1 c #9b9d98",
"z1 c #9b9e98",
"02 c #e7e7e5",
"12 c #e3e3e1",
"22 c #dadcd9",
"32 c #c7c9c4",
"42 c #c7cac5",
"52 c #cacbc6",
"62 c #cdcfca",
"72 c #d1d3cd",
"82 c #edeeec",
"92 c #a6a9a2",
":2 c #9c9e99",
";2 c #dcdedb",
"A2 c #dbddd9",
"B2 c #dadbd7",
"C2 c #d4d7d2",
"D2 c #d7dad5",
"E2 c #d9dbd7",
"F2 c #f1f1f0",
"G2 c #e9e9e8",
"H2 c #a7aaa3",
"I2 c #9da099",
"J2 c #eeefed",
"K2 c #d2d3d1",
"L2 c #a7a9a4",
"M2 c #a5a7a2",
"N2 c #a6a8a2",
"O2 c #aaaca5",
"P2 c #cfd1cd",
"Q2 c #a8aaa4",
"R2 c #9ea19a",
"S2 c #cbccc9",
"T2 c #c8cac6",
"U2 c #c1c4bf",
"V2 c #bbbeb9",
"W2 c #b5b8b2",
"X2 c #abafa8",
"Y2 c #adb0a9",
"Z2 c #afb3ac",
"a2 c #b4b6b0",
"b2 c #b8bbb5",
"c2 c #babdb8",
"d2 c #bcbfba",
"e2 c #bfc1bc",
"f2 c #c1c3bf",
"g2 c #c6c7c3",
"h2 c #c7c9c6",
"i2 c #caccc7",
"j2 c #a0a29b",
"k2 c #bdc0bb",
"l2 c #b7bab4",
"m2 c #aeb1ac",
"n2 c #a9ada6",
"o2 c #adb0ab",
"p2 c #b1b4ae",
"q2 c #b3b7b1",
"r2 c #b6b8b3",
"s2 c #b8bab5",
"t2 c #bdbeba",
"u2 c #bec1bc",
"v2 c #c1c3be",
"w2 c #c3c5c1",
"x2 c #c5c7c3",
"y2 c #c9cbc8",
"z2 c #ccccc9",
"03 c #cdcecb",
"13 c #aaaca7",
"23 c #a1a29c",
"33 c #e9eae9",
"43 c #585a56",
"53 c #585b56",
"63 c #595b56",
"73 c #595b57",
"83 c #60625f",
"93 c #eeeeed",
":3 c #abada7",
";3 c #a1a39d",
"A3 c #c2c4c0",
"B3 c #5b5d59",
"C3 c #cbccc7",
"D3 c #bfc1bb",
"E3 c #c1c4bd",
"F3 c #d3d5d0",
"G3 c #d8dad6",
"H3 c #dbdcd8",
"I3 c #e3e3e0",
"J3 c #636561",
"K3 c #d9dad7",
"L3 c #a2a49d",
"M3 c #bec1bb",
"N3 c #60625e",
"O3 c #bec0ba",
"P3 c #c4c7c1",
"Q3 c #caccc6",
"R3 c #dedfdc",
"S3 c #e1e2de",
"T3 c #e3e4e1",
"U3 c #e1e1df",
"V3 c #696a67",
"W3 c #ecedeb",
"X3 c #acafa9",
"Y3 c #a2a59e",
"Z3 c #666864",
"a3 c #c0c3bd",
"b3 c #bdbfb9",
"c3 c #c0c3bc",
"d3 c #c2c5bf",
"e3 c #c7c9c3",
"f3 c #c9cbc6",
"g3 c #dbdcd9",
"h3 c #dfe0dc",
"i3 c #e2e2df",
"j3 c #e4e5e2",
"k3 c #6e706c",
"l3 c #d6d7d3",
"m3 c #ebeceb",
"n3 c #adb0aa",
"o3 c #a3a6a0",
"p3 c #e3e4e2",
"q3 c #6c6e69",
"r3 c #bcbfb9",
"s3 c #c1c3bd",
"t3 c #c3c6c0",
"u3 c #bcbeb8",
"v3 c #b1b3ae",
"w3 c #afb2ad",
"x3 c #b2b3af",
"y3 c #b3b6b1",
"z3 c #b6b7b3",
"04 c #b7bab5",
"14 c #b9bbb7",
"24 c #bcbdb9",
"34 c #bdbfbb",
"44 c #bfc0bd",
"54 c #c5c6c4",
"64 c #737571",
"74 c #aeb1ab",
"84 c #a4a7a1",
"94 c #72746f",
":4 c #b9bcb4",
";4 c #bcbfb8",
"A4 c #bfc2bb",
"B4 c #c1c4be",
"C4 c #c4c6c0",
"D4 c #c6c8c2",
"E4 c #8a8c87",
"F4 c #c4c5c2",
"G4 c #cdcecc",
"H4 c #aeafab",
"I4 c #dedfdb",
"J4 c #797b76",
"K4 c #afb2ac",
"L4 c #a5a8a2",
"M4 c #aeb1aa",
"N4 c #787a75",
"O4 c #c0c2bc",
"P4 c #c2c5be",
"Q4 c #c6c8c4",
"R4 c #8b8d88",
"S4 c #ebebea",
"T4 c #fefefe",
"U4 c #ffffff",
"V4 c #999b96",
"W4 c #e9e9e6",
"X4 c #7e807c",
"Y4 c #b0b3ac",
"Z4 c #a6a9a3",
"a4 c #acafa8",
"b4 c #7d807b",
"c4 c #bec1ba",
"d4 c #c3c5bf",
"e4 c #c5c8c2",
"f4 c #c8cac5",
"g4 c #8d8f8a",
"h4 c #898b86",
"i4 c #949692",
"j4 c #959792",
"k4 c #959793",
"l4 c #969893",
"m4 c #969894",
"n4 c #91938d",
"o4 c #dcddd9",
"p4 c #838681",
"q4 c #d0d3cd",
"r4 c #e9eae8",
"s4 c #b1b4ad",
"t4 c #a7aaa4",
"u4 c #dedfdd",
"v4 c #aeb2ab",
"w4 c #828580",
"x4 c #c2c4be",
"y4 c #c6c8c3",
"z4 c #cbcdc8",
"05 c #d1d2cd",
"15 c #a9aba6",
"25 c #92948f",
"35 c #b0b0ad",
"45 c #caccc8",
"55 c #cccdca",
"65 c #ced0cc",
"75 c #d0d1ce",
"85 c #d5d6d3",
"95 c #d6d8d5",
":5 c #b3b4b0",
";5 c #949691",
"A5 c #babab8",
"B5 c #ebebe8",
"C5 c #e8e9e5",
"D5 c #a8aba4",
"E5 c #dfe0de",
"F5 c #b2b5ae",
"G5 c #888b85",
"H5 c #c5c7c1",
"I5 c #cfd0cb",
"J5 c #d4d5d1",
"K5 c #c8c9c5",
"L5 c #ddddda",
"M5 c #e6e6e4",
"N5 c #e8e8e6",
"O5 c #ececea",
"P5 c #f0f0ee",
"Q5 c #ecece9",
"R5 c #d7d9d5",
"S5 c #e9eae6",
"T5 c #e5e6e2",
"U5 c #dadcd6",
"V5 c #8d918a",
"W5 c #e8e9e7",
"X5 c #b3b6af",
"Y5 c #a9aca5",
"Z5 c #e0e1df",
"a5 c #b4b7b1",
"b5 c #8e918b",
"c5 c #c8cbc5",
"d5 c #cdcfc9",
"e5 c #d7d8d4",
"f5 c #cdcec9",
"g5 c #cecfcb",
"h5 c #d5d5d1",
"i5 c #d6d6d4",
"j5 c #d9d9d6",
"k5 c #dadad8",
"l5 c #d9dad6",
"m5 c #dfe0dd",
"n5 c #e6e7e3",
"o5 c #e4e6e2",
"p5 c #e3e5e0",
"q5 c #d8dbd5",
"r5 c #929590",
"s5 c #e7e8e6",
"t5 c #b4b7b0",
"u5 c #aaada6",
"v5 c #e2e2e0",
"w5 c #b7bbb4",
"x5 c #949791",
"y5 c #cccec9",
"z5 c #d0d2cd",
"06 c #d5d7d2",
"16 c #dadcd8",
"26 c #dddeda",
"36 c #dfdfdc",
"46 c #e1e2df",
"56 c #e4e4e1",
"66 c #e9e9e7",
"76 c #e7e8e4",
"86 c #e4e6e1",
"96 c #e3e4e0",
":6 c #e0e2dd",
";6 c #d8dad5",
"A6 c #989a95",
"B6 c #cacec8",
"C6 c #b5b8b1",
"D6 c #abaea7",
"E6 c #e3e3e2",
"F6 c #babdb7",
"G6 c #9a9d97",
"H6 c #d0d1cd",
"I6 c #d6d8d3",
"J6 c #d8d9d6",
"K6 c #dbddd8",
"L6 c #dededa",
"M6 c #e0e1de",
"N6 c #e2e4e0",
"O6 c #e7e8e5",
"P6 c #eaeae8",
"Q6 c #ededea",
"R6 c #efefed",
"S6 c #eeeeec",
"T6 c #ecedea",
"U6 c #eaebe9",
"V6 c #eaeae7",
"W6 c #e6e8e4",
"X6 c #e5e6e3",
"Y6 c #e4e5e1",
"Z6 c #e2e4df",
"a6 c #e1e3de",
"b6 c #e7e9e4",
"c6 c #9da09a",
"d6 c #b6b9b2",
"e6 c #acaea8",
"f6 c #e4e5e3",
"g6 c #bdc0ba",
"h6 c #a0a29c",
"i6 c #d2d4d0",
"j6 c #dbdbd8",
"k6 c #dcddda",
"l6 c #e0e0dd",
"m6 c #e1e3e0",
"n6 c #e7e7e4",
"o6 c #e9eae7",
"p6 c #ebece9",
"q6 c #ededec",
"r6 c #f0f0ef",
"s6 c #f1f1ee",
"t6 c #efefec",
"u6 c #ebebe9",
"v6 c #e8e9e6",
"w6 c #e6e7e4",
"x6 c #e3e5e1",
"y6 c #e2e3df",
"z6 c #dfe1dd",
"07 c #fbfbfb",
"17 c #a3a49f",
"27 c #c8cbc4",
"37 c #e5e7e4",
"47 c #adafa9",
"57 c #e5e5e4",
"67 c #c0c2bd",
"77 c #a8aaa6",
"87 c #a6a8a3",
"97 c #a9aba5",
":7 c #c6c9c2",
";7 c #e5e6e4",
"A7 c #aeb0aa",
"B7 c #e6e7e5",
"C7 c #c3c5c0",
"D7 c #c5c7c2",
"E7 c #c7c9c5",
"F7 c #c9cbc7",
"G7 c #cbcdc9",
"H7 c #cdcfcb",
"I7 c #d2d3d0",
"J7 c #d4d5d2",
"K7 c #d6d7d4",
"L7 c #d5d6d2",
"M7 c #d3d5d1",
"N7 c #d2d4d1",
"O7 c #d1d3cf",
"P7 c #cfd1cc",
"Q7 c #ced0cb",
"R7 c #cbcdc7",
"S7 c #c9ccc6",
"T7 c #c8ccc6",
"U7 c #c6c9c3",
"V7 c #c5c8c1",
"W7 c #c4c7c0",
"X7 c #c4c9c2",
"Y7 c #afb1ab",
"Z7 c #e8e8e7",
"a7 c #c9cac6",
"b7 c #caccc9",
"c7 c #ccceca",
"d7 c #cecfcc",
"e7 c #d0d2ce",
"f7 c #d3d4d0",
"g7 c #d4d6d3",
"h7 c #d7d8d5",
"i7 c #d9d9d8",
"j7 c #d9d9d7",
"k7 c #d8d9d5",
"l7 c #d6d8d4",
"m7 c #d5d7d3",
"n7 c #d4d6d2",
"o7 c #d3d4d1",
"p7 c #d2d4cf",
"q7 c #d1d3ce",
"r7 c #cfd2cd",
"s7 c #ced1cc",
"t7 c #cdd0ca",
"u7 c #cccfca",
"v7 c #cbcec9",
"w7 c #cacdc8",
"x7 c #c9ccc7",
"y7 c #c9cbc5",
"z7 c #c7cac4",
"08 c #c6cac3",
"18 c #c5cac2",
"28 c #e4e6e3",
"38 c #b0b2ac",
"48 c #edeeeb",
"58 c #ededeb",
"68 c #f3f3f2",
"78 c #f4f6f4",
"88 c #f6f6f5",
"98 c #f1f2f1",
":8 c #eff2ee",
";8 c #ebedea",
"A8 c #eaebe8",
"B8 c #eceeeb",
"C8 c #b2b4ae",
"D8 c #c3c7c1",
"E8 c #e5e7e3",
"F8 c #e6e9e4",
"G8 c #e8eae6",
"H8 c #ebede9",
"I8 c #f2f3f0",
"J8 c #eef0ed",
"K8 c #f3f5f2",
"L8 c #c7ccc6",
"M8 c #bbbfb7",
"N8 c #b4b5b0",
"O8 c #c5c6c1",
"P8 c #f3f4f1",
"Q8 c #e9ebe7",
"R8 c #eaece8",
"S8 c #eceeea",
"T8 c #edefec",
"U8 c #eff0ee",
"V8 c #f1f2ef",
"W8 c #f9faf9",
"X8 c #fafbfa",
"Y8 c #fbfbfa",
"Z8 c #f6f7f6",
"a8 c #f2f3f1",
"b8 c #f0f2ef",
"c8 c #b5b7b0",
"d8 c #c6c7c2",
"e8 c #f4f4f2",
"f8 c #f0f1ee",
"g8 c #eeefec",
"h8 c #eff0ed",
"i8 c #f0f1ef",
"j8 c #f1f3f0",
"k8 c #f5f5f4",
"l8 c #fdfdfc",
"m8 c #fcfdfc",
"n8 c #fcfcfc",
"o8 c #fbfcfb",
"p8 c #fafaf9",
"q8 c #f4f5f3",
"r8 c #f5f6f5",
"s8 c #c8ccc5",
"t8 c #b5b9b2",
"u8 c #c8cac4",
"v8 c #f1f2f0",
"w8 c #f3f4f2",
"x8 c #f4f4f3",
"y8 c #f4f5f4",
"z8 c #f6f7f4",
"09 c #f7f8f7",
"19 c #f8f9f7",
"29 c #f9f9f8",
"39 c #f8f9f8",
"49 c #f8f8f7",
"59 c #f7f8f6",
"69 c #f7f7f6",
"79 c #f6f7f5",
"89 c #f5f7f5",
"99 c #f5f6f4",
":9 c #f2f4f1",
";9 c #c7cbc5",
"A9 c #b9bbb5",
"B9 c #b6bab2",
"C9 c #b6b9b3",
"D9 c #b7b9b3",
"E9 c #b7bab3",
"F9 c #b8bbb4",
"G9 c #b9bcb5",
"H9 c #babdb6",
"I9 c #bbbdb7",
"J9 c #bbbeb6",
"K9 c #bbbeb7",
"                      K9J9I9I9I9I9I9I9K9K9H9H9H9G9G9G9F9F9F9E9E9D9C9B9A9                        ",
"                    K9;9:999897969594939393929194909096979z899y8x8w8v8u8t8                      ",
"                  K9s879r8q8r86919p8o8n8m8l8n8o8p83959r8k8w8j8i8h8g8f8e8d8c8                    ",
"                K9;999w8b8a8w899Z84929p8Y8Y8X8W8196999q8a8V8U8T8S8R8Q8T8P8O8N8                  ",
"              M8L8K8i8S8T8J8f8V8I8:9w8q8q8q8q8w8P8a8v8f8h8T8S8H8Q8G8F8E8R8v8D8C8                ",
"              G9B8h8A8;8S8T8h8:8v898P8x8q8998888r878K868j8V8b8J8T858H8R8G848J838                ",
"              H928181808z7y7x7w7v7u7t7s7r7q7p7o7n7m7l7k7j7i7h7g7f7e7d7c7b7a7Z7Y7                ",
"              G928X7W7V7U7z7T7S7R7v7u7Q7P7e7O7N7M7L7K7h7h7J7I7e7H7G7F7E7D7C7B7A7                ",
"              F9;7:7978777878787878787878787878787878787878787878787878787675747                ",
"              E9372717v807z6y6x6E8w6v6Q8u658t6U8s6r6q6p6o6n628m6l6k6j6i6h6g6f6e6                ",
"              d6B7T7c6b6v8a6Z6Y6X6W6G8V6U6T6S6R6R6Q6P6O6;7N6M6L6K6J6I6H6G6F6E6D6                ",
"              C6O6B6A6;6:6a69686E876O6v6V6u6T6p666w65646362616k706f7z5y5x5w5v5u5                ",
"              t5s5y5r5q5Z6p5o5n5O6m5h7k7l5k5j5i5h5I7H6g5f5I7e5L7p7P7d5c5b5a5Z5Y5                ",
"              X5W5t7V5U5x6T5w6O6S5R5Q5P5r6S6O5P6N5M556m6L5K5J5q7I5y5S7H5G5F5E5D5                ",
"              F5o6s7G5j6X676C5o6B5A5;5:59585i67565554535251505Q7z4y7y4x4w4v4u4t4                ",
"              s4r4q4p4o476v6V6u6T6n45777m4m4l4k4j4i4i4h4k5g4z4R7f4e4d4c4b4a4u4Z4                ",
"              Y4A8p7X4k6W4A8p658S6V4U4T4S4S4S4S4S4S4S4S457R4Q4z7H5P4O4K9N4M4Z5L4                ",
"              K4u6o7J4I4A8Q55858u6H4G4F4R4R4R4R4R4R4R4R4E4V4D4C4B4A4;4:494F5v584                ",
"              74S4g76436O55858P6O6j6544434241404z3y3x3w3v3u3t3s3c4u3u3r3q3C9p3o3                ",
"              n3m3l3k3z6S6O5o6n6j3i3h3g3l5I6J5q7Q7y5f3e3H5d3c3g6K9b3a3s3Z3F657Y3                ",
"              X3W3R5V3U3u6W4w6T3S3R3o4l5l7J5q7P7y5Q3e3P3x4A4b3H9O3B4H5D4N3M3B7L3                ",
"              e6q6K3J3k6N5X6I3M6I4H3G3l3F305Q7z4y7U7C4E3M3;4K9D3d3D4Q3C3B3A3Z7;3                ",
"              :393J6837373737373636353434343434343434343434343434343434343Q43323                ",
"              13q68503z2y2K5x2w2v2u2t2F6s2r2q2p2w3o2e6n2e6m2p2a5l2F6k2v2F445S4j2                ",
"              15m3f76555i2h2g2t3f2e2d2c2b2C9a2F5Z2Y2X2v4F5W2b2V2M3U2D7T2S265q6R2                ",
"              Q2S4P2O2877787N2L4M2M2M2M2M2M2M2M2M2M2M2M2M2M2M2M2N2878787L2K2J2I2                ",
"              H2G20317F2Y8E2E2G3D2I6l3C2J5F3p7q7q7F3L7l7k7B2A2;2R3z64646;3h7J2:2                ",
"              92Z745c6x682n7F372P762y55242:7C432Q3d5P7p7m7;622L6:612W602z185q6y1                ",
"              x102K5w162v1Q7z4f3U7C4a3u1;4K9u1U2H5y7y5z5J5G3k6t156O6u6u6s1r1S4q1                ",
"              84;7p1o1x762R7f4D4t3n1m1l1F5k1s2j1O3i1h1g14585S3f1v6O5O5w6e1d1c1V4                ",
"              o3f6A3b1a1i2z7H5d3c3X5H5S7y5P7i606k7H3R3Z1U3v1Y1o658u6N546X1f3Z7W1                ",
"              Y3p367V1d3e3P3x4A4b3U1e1;3T1S1e2U2p1K5w7R1Q1P1A8S6P6n6T3L5O1D702N1                ",
"              M1L1K1J1e2C4E3c4;4K9I157H125Q1G1;5i4j4k4h4k5g4P6o6Y1F136k7b4f257l4                ",
"              E1D1F6C1n1c3O3K9;4O4l4U4T4S4S4S4S4S4S4S4S457R4T3f146B1B2F3N4g6p3j4                ",
"              A1M6l2;1:191H991E3H581G4F4R4R4R4R4R4R4R4R4E471I3M6k6l506619451v541                ",
"              R2u43121a5K9c4P4D4Q3h1110114z0y0x0x2w0v0u0t0s0h3A2k7r005i2q3W2Z5q0                ",
"              I2p0o0n0m0l0k0e3R7Q7j0m7k7o4l6T3O6u6u6N5j3i3I416e5F3i0y5D7Z3o0m5h0                ",
"              g0k6f0e0l2C4u8d0P7F3l7B2I4i3X66658p6N5j3S326E2l3p7I5z4z7s3N3M4c0b0                ",
"              a022p2N3Z0y7f5z5J5k7A2h3I3w6P6S6A802T3l6o4l5L7q7Y0i2U7d4;4B3X2c0X0                ",
"              W0V0W2U04343436373737373737373737373737373534343434343434343X2c0T0                ",
"              V4u4S0D9Z0K167w2Q4y2R0Q0I7I7P0R0y232w2a334F6l2a5p2m2e6n2n2O0X2c0N0                ",
"              A6M0g6g6L0h1E745H7r1J5h785I7P2K0f3g2J0I0d2H0G0m0F0Y2X2X2X2X2X2c0E0                ",
"              D0D1f6;7s5W533S4C093B082C0S433W5s5;7f6p3F1Z5E5R3;2;2;2;2;2;2;2c0g4                ",
"              A0;041G1Q1Q1:090258070b0b0n4X0X060505040E0E030g4g4I1202010R4R4R400                ",
"                                                                                                ",
"                                                                                                ",
"                                                                                                ",
"                                                                                                "};
