/* XPM */
static char *image[] = {
"32 32 256 2",
"   c None",
"00 c #cbcbcb",
"10 c #6c6c6c",
"20 c #939393",
"30 c #f2f4f4",
"40 c #d9d9d9",
"50 c #adc3c7",
"60 c #b7c6c9",
"70 c #222222",
"80 c #7e7e7e",
"90 c #c3d0d4",
":0 c #97b4b9",
";0 c #e9e4e9",
"A0 c #8c8c8c",
"B0 c #111111",
"C0 c #61929f",
"D0 c #bba6ca",
"E0 c #b91a90",
"F0 c #d21775",
"G0 c #ecf0f1",
"H0 c #cad2d5",
"I0 c #1d1d1d",
"J0 c #324247",
"K0 c #a1a6c9",
"L0 c #7816c3",
"M0 c #9b049b",
"N0 c #e26291",
"O0 c #f9f2f5",
"P0 c #dae0e0",
"Q0 c #9fb4ba",
"R0 c #7aa3ad",
"S0 c #4d7e8e",
"T0 c #344d57",
"U0 c #060708",
"V0 c #4a23c0",
"W0 c #7f06bb",
"X0 c #e0729b",
"Y0 c #eaecec",
"Z0 c #c8d8da",
"a0 c #9cbbc1",
"b0 c #abbac4",
"c0 c #ae60bd",
"d0 c #290a59",
"e0 c #e26c81",
"f0 c #dee3e3",
"g0 c #e5d6de",
"h0 c #e32b7b",
"i0 c #0d021f",
"j0 c #28068e",
"k0 c #460de8",
"l0 c #ab04a0",
"m0 c #da7a99",
"n0 c #e785a0",
"o0 c #5e0fad",
"p0 c #3a0acd",
"q0 c #e3016e",
"r0 c #e6c4cd",
"s0 c #eab3b2",
"t0 c #d20481",
"u0 c #8210df",
"v0 c #33087f",
"w0 c #520ee3",
"x0 c #db4461",
"y0 c #f1e0d6",
"z0 c #cb10b6",
"01 c #1e054b",
"11 c #16044e",
"21 c #440bec",
"31 c #ee0a5d",
"41 c #df6675",
"51 c #e0a78a",
"61 c #eb4c81",
"71 c #d90d8d",
"81 c #a108ac",
"91 c #6e11e2",
":1 c #5d10eb",
";1 c #220771",
"A1 c #540cdf",
"B1 c #df6c8d",
"C1 c #f2ebe1",
"D1 c #d87a73",
"E1 c #a309b7",
"F1 c #7310da",
"G1 c #520ecd",
"H1 c #25057a",
"I1 c #e11058",
"J1 c #d83d57",
"K1 c #e4bbbe",
"L1 c #e6c8ae",
"M1 c #ec585a",
"N1 c #dd086c",
"O1 c #840bcb",
"P1 c #580ea7",
"Q1 c #2a0587",
"R1 c #aa0494",
"S1 c #e4385a",
"T1 c #e7c8c8",
"U1 c #e3c679",
"V1 c #ef125d",
"W1 c #440da6",
"X1 c #3a068f",
"Y1 c #e50b62",
"Z1 c #e8aab3",
"a1 c #d95365",
"b1 c #ed755d",
"c1 c #e3056a",
"d1 c #860abe",
"e1 c #590892",
"f1 c #05000b",
"g1 c #490472",
"h1 c #7a09c0",
"i1 c #f7f2ef",
"j1 c #dd8d7a",
"k1 c #5e0894",
"l1 c #080118",
"m1 c #2c0984",
"n1 c #6e08cd",
"o1 c #9d05a9",
"p1 c #d8036e",
"q1 c #dc6e74",
"r1 c #dda37c",
"s1 c #a708a4",
"t1 c #780999",
"u1 c #0d0226",
"v1 c #2a046c",
"w1 c #6108d0",
"x1 c #6909d3",
"y1 c #e08d8d",
"z1 c #e12155",
"02 c #e6015e",
"12 c #750fc8",
"22 c #2b033a",
"32 c #140348",
"42 c #4a0bd4",
"52 c #8506b9",
"62 c #ba038c",
"72 c #ed0f5a",
"82 c #e9545a",
"92 c #e9c0c0",
":2 c #da1e64",
";2 c #ed1b5b",
"A2 c #e80d5f",
"B2 c #dc016d",
"C2 c #c10488",
"D2 c #9b0bb0",
"E2 c #370883",
"F2 c #75058e",
"G2 c #b90597",
"H2 c #7208ca",
"I2 c #7508c6",
"J2 c #a50f8c",
"K2 c #d8a5b5",
"L2 c #f3e0e6",
"M2 c #d74d69",
"N2 c #c90483",
"O2 c #930bba",
"P2 c #5e069e",
"Q2 c #100229",
"R2 c #2f068a",
"S2 c #5209e7",
"T2 c #c6047b",
"U2 c #cd2672",
"V2 c #d73e6a",
"W2 c #e297ac",
"X2 c #f8f7f8",
"Y2 c #d79d99",
"Z2 c #e22657",
"a2 c #e40167",
"b2 c #490bdb",
"c2 c #35034d",
"d2 c #460241",
"e2 c #7506b8",
"f2 c #610bdb",
"g2 c #a6049c",
"h2 c #d3156f",
"i2 c #de215e",
"j2 c #e7bac5",
"k2 c #eb075b",
"l2 c #ea015c",
"m2 c #8e05af",
"n2 c #b1059a",
"o2 c #31079d",
"p2 c #1c023d",
"q2 c #a8026d",
"r2 c #ee0069",
"s2 c #e8415c",
"t2 c #d89192",
"u2 c #f5e7e9",
"v2 c #de3669",
"w2 c #e35059",
"x2 c #d91f6b",
"y2 c #d70173",
"z2 c #7706a2",
"03 c #290457",
"13 c #59047d",
"23 c #b5038c",
"33 c #df0466",
"43 c #ed2d59",
"53 c #d98d76",
"63 c #f3f1e1",
"73 c #e7d2c4",
"83 c #d97265",
"93 c #e6275f",
":3 c #d20276",
";3 c #b20492",
"A3 c #8806b5",
"B3 c #5b0474",
"C3 c #720240",
"D3 c #e5315a",
"E3 c #ea635b",
"F3 c #e89c5b",
"G3 c #dcc664",
"H3 c #e4c1c3",
"I3 c #da806f",
"J3 c #ec225c",
"K3 c #dc1466",
"L3 c #ce027a",
"M3 c #c10384",
"N3 c #822d85",
"O3 c #745e31",
"P3 c #ceaf55",
"Q3 c #d9ce57",
"R3 c #d1cc75",
"S3 c #fcfbfb",
"T3 c #e3bcb6",
"U3 c #e17f62",
"V3 c #d31759",
"W3 c #e4235b",
"X3 c #c71e7e",
"Y3 c #96803e",
"Z3 c #b9954e",
"a3 c #e9c760",
"b3 c #e3d35b",
"c3 c #eeecd8",
"d3 c #f8edf0",
"e3 c #e0b29f",
"f3 c #e51262",
"g3 c #d8c057",
"h3 c #e8da5f",
"i3 c #bea250",
"j3 c #af8f4a",
"k3 c #d7b55a",
"l3 c #dbcf9f",
"m3 c #edb6c2",
"n3 c #d1b177",
"o3 c #dbd559",
"p3 c #dfcc5a",
"q3 c #d2c854",
"r3 c #c0ad4f",
"s3 c #dcca92",
"t3 c #ffffff",
"u3 c #edede0",
"v3 c #e6e3ba",
"w3 c #dcd69e",
"x3 c #dad395",
"y3 c #f5f3ea",
"y3x3w3v3u3t3                                                    ",
"s3r3q3p3o3n3m3                                                  ",
"l3k3j3i3h3g3f3e3d3t3                                            ",
"c3b3a3Z3Y3p3X3W3V3U3T3S3                                        ",
"t3R3Q3p3P3O3N3M3L3K3J3I3H3S3                                    ",
"  y3G3F3E3D3C3B3A3;3:393W38373                                  ",
"    63534333231303z2A3y2:3x2w2v2u2                              ",
"      S3t2s2f3r2q2p2o2n2m2;3l2k283j2                            ",
"        S3i2h2g2f2e2d2c2b2A3y2a2J3Z2Y2X2                        ",
"          W2V2U2T2A3S2R2Q2P2O2N2a2k2s2M2L2                      ",
"          t3K2J2I2H2g2G2F2Q2E2D2C2B2A2;2:292S3                  ",
"            t3e38272a2625242322212;3B2a202z1y1S3                ",
"              S3y1723362A3x1w1v1u1t1s1N2B2l282r1d3              ",
"                S3q19333p1C2o1n1m1l1k1s1M3B2s2s2j1y3            ",
"                  i1t2z102y223m2h1g1f1e1d1G2k2c1b1a163          ",
"                    t3Z1W3Y1p1y2;3f2X1f1W1D2N2:3V1Y1U1S3        ",
"                        T1S1A2L3R1g2h1Q1f1P1O1G2N2N1M1L1        ",
"                          K1J1I1B2R1A3H2H1l1G1F1E1y2k2D1C1      ",
"                            B1A2c1y2;3n1A1;1Q2:19181716151t3    ",
"                            i14131y262g2I2211101:191z03182y0    ",
"                              u2x072B2;3h1w021u1v0u0t0l2;2s0    ",
"                                r031q0M3o1H2A1p0l1o0n2B2l2n0    ",
"                                  m002y2M3l0I2k0j0i0h1C2h0g0f0S3",
"                                  t3e0k2B223m2x1k011d0c0b0a0Z0Y0",
"                                    t3X0a2:3;3W0A1V0U0T0S0R0Q0P0",
"                                      O0N0a2M3M0L0K0J0I0H0Q0G0  ",
"                                        O0X0F0E0D0C0Q0B0A0      ",
"                                            O0;0:0R0908070t3    ",
"                                              Y06050t3Y0B040    ",
"                                              30X2S3    8020    ",
"                                                        Y010    ",
"                                                          00    "};
