/* XPM */
static char *image[] = {
"48 48 188 2",
"   c None",
"00 c #3b3b3b",
"10 c #212121",
"20 c #ececec",
"30 c #f8f8f8",
"40 c #f3f3f3",
"50 c #e4e4e4",
"60 c #efefef",
"70 c #dfdfdf",
"80 c #eaeaea",
"90 c #dbdbdb",
":0 c #e5e5e5",
";0 c #484848",
"A0 c #c3c3c3",
"B0 c #666666",
"C0 c #939393",
"D0 c #d9d9d9",
"E0 c #0f0f0f",
"F0 c #121212",
"G0 c #2c2c2c",
"H0 c #1e1e1e",
"I0 c #171717",
"J0 c #161616",
"K0 c #d4d4d4",
"L0 c #cdcdcd",
"M0 c #bdbdbd",
"N0 c #616161",
"O0 c #0d0d0d",
"P0 c #d7d7d7",
"Q0 c #8e8e8e",
"R0 c #cacaca",
"S0 c #d1d1d1",
"T0 c #575757",
"U0 c #d3d3d3",
"V0 c #434343",
"W0 c #cccccc",
"X0 c #cecece",
"Y0 c #8a8a8a",
"Z0 c #626262",
"a0 c #c9c9c9",
"b0 c #bcbcbc",
"c0 c #ababab",
"d0 c #090909",
"e0 c #3d3d3d",
"f0 c #757575",
"g0 c #b5b5b5",
"h0 c #c5c5c5",
"i0 c #868686",
"j0 c #585858",
"k0 c #404040",
"l0 c #737373",
"m0 c #565656",
"n0 c #574400",
"o0 c #967600",
"p0 c #a98500",
"q0 c #8c6e00",
"r0 c #413300",
"s0 c #272727",
"t0 c #505050",
"u0 c #999999",
"v0 c #c0c0c0",
"w0 c #b3b3b3",
"x0 c #1a1a1a",
"y0 c #0c0c0c",
"z0 c #b6b6b6",
"01 c #919191",
"11 c #3a2d00",
"21 c #a78300",
"31 c #c89d00",
"41 c #c79c00",
"51 c #d6a800",
"61 c #cfa200",
"71 c #d7a900",
"81 c #ad8800",
"91 c #110d00",
":1 c #bbbbbb",
";1 c #818181",
"A1 c #9e9e9e",
"B1 c #080600",
"C1 c #bf9600",
"D1 c #fdc600",
"E1 c #aa8500",
"F1 c #5b5b5b",
"G1 c #b7b7b7",
"H1 c #030303",
"I1 c #706026",
"J1 c #fcc809",
"K1 c #fcc80c",
"L1 c #6c623d",
"M1 c #383838",
"N1 c #b2b2b2",
"O1 c #7d7d7d",
"P1 c #4e4e4e",
"Q1 c #050505",
"R1 c #4e472d",
"S1 c #b49110",
"T1 c #fec908",
"U1 c #ffc800",
"V1 c #ffc801",
"W1 c #c39c0c",
"X1 c #413818",
"Y1 c #dddddd",
"Z1 c #191919",
"a1 c #aeaeae",
"b1 c #8f8f8f",
"c1 c #414141",
"d1 c #b9b9b9",
"e1 c #b6b5b1",
"f1 c #676149",
"g1 c #c8c6be",
"h1 c #a1a1a1",
"i1 c #5d5d5d",
"j1 c #a9a9a9",
"k1 c #797979",
"l1 c #9d9d9d",
"m1 c #474747",
"n1 c #070707",
"o1 c #e2e2e2",
"p1 c #262626",
"q1 c #e8e8e8",
"r1 c #141414",
"s1 c #a4a4a4",
"t1 c #717171",
"u1 c #0e0e0e",
"v1 c #f0f0f0",
"w1 c #bfbfbf",
"x1 c #d2d2d2",
"y1 c #aaaaaa",
"z1 c #e1e1e1",
"02 c #c7c7c7",
"12 c #f5f5f5",
"22 c #1c1c1c",
"32 c #9a9a9a",
"42 c #a0a0a0",
"52 c #747474",
"62 c #959595",
"72 c #787878",
"82 c #343434",
"92 c #7c7c7c",
":2 c #979797",
";2 c #3a3a3a",
"A2 c #0a0a0a",
"B2 c #9b9b9b",
"C2 c #727272",
"D2 c #909090",
"E2 c #1d1d1d",
"F2 c #707070",
"G2 c #8c8c8c",
"H2 c #111111",
"I2 c #929292",
"J2 c #6e6e6e",
"K2 c #4c4c4c",
"L2 c #060606",
"M2 c #7e7e7e",
"N2 c #8d8d8d",
"O2 c #6b6b6b",
"P2 c #838383",
"Q2 c #858585",
"R2 c #020202",
"S2 c #5a5a5a",
"T2 c #888888",
"U2 c #696969",
"V2 c #808080",
"W2 c #080808",
"X2 c #000000",
"Y2 c #010101",
"Z2 c #848484",
"a2 c #636363",
"b2 c #555555",
"c2 c #5e5e5e",
"d2 c #767676",
"e2 c #7f7f7f",
"f2 c #656565",
"g2 c #a8a8a8",
"h2 c #7b7b7b",
"i2 c #acacac",
"j2 c #dcdcdc",
"k2 c #e7e7e7",
"l2 c #969696",
"m2 c #6a6a6a",
"n2 c #dedede",
"o2 c #afafaf",
"p2 c #b8b8b8",
"q2 c #ffffff",
"r2 c #363636",
"s2 c #3e3e3e",
"t2 c #676767",
"u2 c #222222",
"                                                                                                ",
"                                                                                                ",
"                                                                                                ",
"                                                                                                ",
"                                                                                                ",
"                                                                                                ",
"                                                                                                ",
"                                                                                                ",
"    u2t2t2t2t2t2t2t2t2t2t2t2t2t2t2t2t2t2t2t2t2t2t2t2t2t2t2t2t2t2t2t2t2t2t2t2t2t2t2t2t2t2s2      ",
"    r2q2p2o2o2o2o2o2o2o2o2o2o2o2o2o2o2o2o2o2o2o2o2o2o2o2o2o2o2o2o2o2o2o2o2o2o2o2o2o2o2n2m2      ",
"    r2q2l2k2k2k2k2k2k2k2k2k2k2k2k2k2k2k2k2k2k2k2k2k2k2k2k2k2k2k2k2k2k2k2k2k2k2k2k2k2j2i2m2      ",
"    r2q2h2o2o2o2o2o2o2o2o2o2o2o2o2o2o2o2o2o2o2o2o2o2o2o2o2o2o2o2o2o2o2o2o2o2o2o2o2o2g2i2m2      ",
"    r2q2f2e2e2e2e2e2e2e2e2e2e2e2e2e2e2e2e2e2d2c2b2b2a2h2e2e2e2e2e2e2e2e2e2e2e2e2e2e2h2i2m2      ",
"    r2q2t2Z2Z2Z2Z2Z2Z2Z2Z2Z2Z2Z2Z2Z2Z2Z2t2u2Y2X2X2X2X2W2s2V2Z2Z2Z2Z2Z2Z2Z2Z2Z2Z2Z2Z2e2i2m2      ",
"    r2q2U2T2T2T2T2T2T2T2T2T2T2T2T2T2T2S2R2X2X2X2X2X2X2X2X2u2Q2T2T2T2T2T2T2T2T2T2T2T2P2i2m2      ",
"    r2q2O2N2N2N2N2N2N2N2N2N2N2N2N2N2M2L2X2X2X2X2X2X2X2X2X2X2K2N2N2N2N2N2N2N2N2N2N2N2T2i2m2      ",
"    r2q2J2I2I2I2I2I2I2I2I2I2I2I2I2I2K2X2X2X2X2X2X2X2X2X2X2X2H2I2I2I2I2I2I2I2I2I2I2I2G2i2m2      ",
"    r2q2F2l2l2l2l2l2l2l2l2l2l2l2l2l2E2X2X2X2X2X2X2X2X2X2X2X2X2P2l2l2l2l2l2l2l2l2l2l2D2i2m2      ",
"    r2q2C2B2B2B2B2B2B2B2B2B2B2B2B2B2A2X2;2:2U2R2X2W292B282X2X272B2B2B2B2B2B2B2B2B2B262i2m2      ",
"    r2q25242424242424242424242424232X2221202z1G2X2y1x1w1v1u1X2t14242424242424242424232i2m2      ",
"    r2q2d2s1s1s1s1s1s1s1s1s1s1s1s1s1X2a202Y2r1q1p1o1n1Y2x1m1X292s1s1s1s1s1s1s1s1s1s1l1i2m2      ",
"    r2q2k1j1j1j1j1j1j1j1j1j1j1j1j1j1n1i1h1X2X2g1f1e1X2X2d1c1X2b1j1j1j1j1j1j1j1j1j1h1M2i2m2      ",
"    r2q2h2a1a1a1a1a1a1a1a1a1a1a1a1a1E2Z1Y1X1W1V1U1T1S1R1Y1A2Q1y1a1a1a1a1a1a1a1a1a1P1d2i2m2      ",
"    r2q2O1N1N1N1N1N1N1N1N1N1N1N1N1N1M1X2L1K1U1U1U1U1U1J1I1X2p1N1N1N1N1N1N1N1N1N1b1H1Q2i2m2      ",
"    r2q2e2G1G1G1G1G1G1G1G1G1G1G1G1G1F1X2E1U1U1U1U1U1U1D1C1B1b2G1G1G1G1G1G1G1G1A1r1X2h1i2m2      ",
"    r2q2;1:1:1:1:1:1:1:1:1:1:1:1:1:1Q2X2918171615141312111X201:1:1:1:1:1:1z0C2y0X2x0w0i2m2      ",
"    r2q2P2v0v0v0v0v0v0v0v0v0:1u052t0s0X2X2X2r0q0p0o0n0B1X2R2m0U272h2l0t2k0H2X2X2X2j0p2i2m2      ",
"    r2q2i0h0h0h0h0h0h0g0f0e0d0X2X2X2X2X2X2X2X2X2X2X2X2X2X2X2X2X2X2X2X2X2X2X2X2X2Q1c0b0i2m2      ",
"    r2q2T2a0a0a0a0j1K2L2X2X2X2X2X2X2X2X2X2X2X2X2X2X2X2X2X2X2X2X2X2X2X2X2X2X2X2X2Z0a0v0i2m2      ",
"    r2q2Y0X0X0W0O2Q1X2X2X2X2X2X2X2X2X2X2X2X2X2X2X2X2X2X2X2X2X2X2X2X2X2X2X2X2X2V0W0X0h0i2m2      ",
"    r2q2G2U0U0T0X2X2X2X2X2X2X2X2X2X2X2X2X2X2X2X2X2X2X2X2X2X2X2X2X2X2X2X2X2H1f2S0U0U0R0i2m2      ",
"    r2q2Q0P0P2X2X2X2X2X2X2X2X2X2X2X2X2X2X2X2X2X2X2X2X2X2X2X2X2X2X2X2X2O0N0M0P0P0P0P0L0i2m2      ",
"    r2q201K0J0X2X2X2X2X2X2R2I0H0G0G0G0G0G0G0H0E2E2F0E0E0J0E2s0k0m0h2o2D0j2j2j2j2j2j2x1i2m2      ",
"    r2q2C032X2X2X2G0B0h1A0j2z1z1z1z1z1z1z1z1z1z1z1z1z1z1z1z1z1z1z1z1z1z1z1z1z1z1z1z1P0i2m2      ",
"    r2q262F1R2;0G1:0:0:0:0:0:0:0:0:0:0:0:0:0:0:0:0:0:0:0:0:0:0:0:0:0:0:0:0:0:0:0:0:090i2m2      ",
"    r2q2:2c1c0808080808080808080808080808080808080808080808080808080808080808080808070i2m2      ",
"    r2q2u0W060606060606060606060606060606060606060606060606060606060606060606060606050i2m2      ",
"    r2q2B240404040404040404040404040404040404040404040404040404040404040404040404040q1i2m2      ",
"    r2q2A13030303030303030303030303030303030303030303030303030303030303030303030303020i2m2      ",
"    r2q2B26060606060606060606060606060606060606060606060606060606060606060606060606050i2m2      ",
"    r2q2p2o2o2o2o2o2o2o2o2o2o2o2o2o2o2o2o2o2o2o2o2o2o2o2o2o2o2o2o2o2o2o2o2o2o2o2o2o2o2n2m2      ",
"    10c2c2c2c2c2c2c2c2c2c2c2c2c2c2c2c2c2c2c2c2c2c2c2c2c2c2c2c2c2c2c2c2c2c2c2c2c2c2c2c2c200      ",
"                                                                                                ",
"                                                                                                ",
"                                                                                                ",
"                                                                                                ",
"                                                                                                ",
"                                                                                                "};
