/* XPM */
static char *image[] = {
"14 16 6 1",
"  c None",
"0 c #eeeeee",
"1 c #2020e0",
"2 c #e8d880",
"3 c #f0e890",
"4 c #fff098",
"   4433333    ",
" 433333333332 ",
"43333223333332",
"4342      2332",
"443        332",
"    3333 33   ",
"   233332 333 ",
"     2222  342",
"    211112 332",
" 4 21100112 33",
"43 21100112 33",
"433 211112 433",
"4333 2222 4332",
"4333333333332 ",
" 2333333332   ",
"   2222222    "};
